<?xml version="1.0" encoding="utf-8"?>
<!-- Generator: Adobe Illustrator 24.1.0, SVG Export Plug-In . SVG Version: 6.00 Build 0)  -->
<svg version="1.1" xmlns="http://www.w3.org/2000/svg" xmlns:xlink="http://www.w3.org/1999/xlink" x="0px" y="0px"
	 viewBox="0 0 593.3 468.4" style="enable-background:new 0 0 593.3 468.4;" xml:space="preserve">
<style type="text/css">
	.st0{display:none;}
	.st1{display:inline;fill:#B4B7DB;}
	.st2{display:inline;opacity:0.2;}
	.st3{fill:#E4E6FE;}
	.st4{clip-path:url(#SVGID_2_);}
	.st5{opacity:0.6;}
	.st6{fill:#F3F4FF;}
	.st7{fill:#B4B7DB;}
	.st8{clip-path:url(#SVGID_4_);}
	.st9{fill:#312B61;}
	.st10{fill:#FFFFFD;}
	.st11{fill:#C5421E;}
	.st12{fill:#3F4680;}
	.st13{fill:#F7D2BA;}
	.st14{opacity:0.5;}
	.st15{fill:#E5B9A1;}
	.st16{fill:#4C3B2E;}
	.st17{opacity:0.3;fill:url(#SVGID_5_);}
	.st18{fill:#E58A76;}
	.st19{filter:url(#Adobe_OpacityMaskFilter);}
	.st20{mask:url(#SVGID_6_);}
	.st21{filter:url(#Adobe_OpacityMaskFilter_1_);}
	.st22{mask:url(#SVGID_7_);}
	.st23{fill:#D3D6F4;}
	.st24{fill:#E6EDF7;}
	.st25{fill:none;stroke:#FFFFFD;stroke-width:2;stroke-miterlimit:10;}
	.st26{fill:none;stroke:#E4E6FE;stroke-miterlimit:10;}
	.st27{fill:none;stroke:#E4E6FE;stroke-linecap:round;stroke-linejoin:round;stroke-miterlimit:10;stroke-dasharray:2,5;}
</style>
<g id="BACKGROUND" class="st0">
	<rect x="-66.5" y="-15" class="st1" width="750" height="500"/>
	<g class="st2">
		<path class="st3" d="M529.3,378c4.4-2.7-1.7-17.6-9.7-15C511.6,365.7,521.1,383.2,529.3,378z"/>
		<path class="st3" d="M116.7,57.2c-3.9,7.7,17.6,23.6,26.8,12.9S124.1,42.6,116.7,57.2z"/>
		<path class="st3" d="M517.7,392.1c0.2,0.1,0.4,0.3,0.6,0.5c1.2,1.1,1.8,2.6,1.8,4.5c0.1,4.8-3.4,10.6-7,14.2
			c-5.1,5.3-12.5,8.6-18.3,8.3c-3-0.2-5.3-1.3-6.8-3.3l0,0c-1.6-2.2-2.1-4.3-1.5-6.5c1.2-4,6.3-7.5,15-10.4l0.2-0.1
			c0.7-0.2,2.1-1.3,3.5-2.4C509.2,394.1,514.3,390.1,517.7,392.1z M490.9,417c1.1,0.7,2.4,1.1,4,1.2c5.4,0.3,12.4-2.9,17.2-7.8
			c3.9-4.1,6.6-9.5,6.6-13.2c0-1.5-0.5-2.7-1.4-3.5c-2.4-2.2-7.6,1.8-11.1,4.5c-1.7,1.3-3,2.3-3.9,2.6l-0.2,0.1
			c-10.3,3.5-13.4,7.1-14.1,9.5c-0.5,1.7-0.1,3.4,1.3,5.2l0,0C489.6,416.1,490.2,416.6,490.9,417z"/>
		<path class="st3" d="M123,409.7c2.2,4.7,17.7,0.3,16-8C137.3,393.5,118.9,400.9,123,409.7z"/>
		<path class="st3" d="M110.3,396.5c-0.2,0.2-0.4,0.4-0.6,0.6c-1.2,1-2.8,1.5-4.7,1.3c-4.7-0.4-10.1-4.6-13.3-8.5
			c-4.7-5.7-7.1-13.4-6.1-19.2c0.5-2.9,1.9-5.1,4-6.4l0,0c2.3-1.4,4.6-1.6,6.6-0.7c3.8,1.7,6.7,7.1,8.6,16.1l0,0.2
			c0.2,0.7,1,2.2,2,3.8C109.4,387.8,112.7,393.4,110.3,396.5z M88.7,367c-0.8,1-1.3,2.3-1.6,3.8c-0.9,5.3,1.4,12.7,5.8,18
			c3.6,4.4,8.7,7.7,12.4,8c1.5,0.1,2.7-0.2,3.6-1c2.5-2.1-0.9-7.8-3.2-11.6c-1.1-1.8-1.9-3.3-2.1-4.2l0-0.2
			c-2.3-10.7-5.5-14.1-7.8-15.1c-1.6-0.7-3.3-0.5-5.3,0.7l0,0C89.8,365.9,89.2,366.4,88.7,367z"/>
		<path class="st3" d="M69.2,162.7c8.8,3.6,11.3-9.2,12.4-12.2c1.1-3,9.6-9.8,6.1-15.4c-3.5-5.6-17.8,0.8-22,8.1
			C61.5,150.4,64.2,160.7,69.2,162.7z"/>
		<path class="st3" d="M524.8,129.5c0,0-0.1,0-0.1,0c-6.4-0.2-8.9-7.5-10.7-12.8c-0.7-2-1.3-3.8-1.9-4.7c-0.3-0.4-0.7-0.9-1.2-1.5
			c-2.7-3.3-7.8-9.3-7.1-14.9c0.3-2.4,1.7-4.4,4.1-6.1l0,0c2.4-1.7,6.1-2,10.1-1c6,1.6,11.4,5.8,14,11.1c3.5,7,2.9,19.6-1.1,26
			C529.1,128.1,527,129.5,524.8,129.5z M513.5,89.2c-2,0-3.7,0.5-5,1.3l0,0c-2.1,1.4-3.3,3.2-3.6,5.2c-0.7,5,4.2,10.8,6.8,14
			c0.5,0.6,1,1.2,1.3,1.6c0.8,1,1.4,2.9,2.1,5c1.7,5,4,11.8,9.6,12c2,0,3.6-1.1,5.1-3.3c3.9-6.1,4.4-18.1,1.1-24.8
			c-2.9-5.9-8.8-9.3-13.3-10.4C516.1,89.4,514.7,89.2,513.5,89.2z"/>
		<path class="st3" d="M113.6,83.6c0.1,0.5,0.1,1.1,0.1,1.6c0.1,11-10.8,13.9-19.6,16.3c-2.6,0.7-5.1,1.4-7.1,2.2
			c-2.2,0.9-5,3.2-8,5.6c-6.1,4.9-13,10.5-19.5,9.5c-3-0.4-5.6-2.3-7.8-5.5l0,0c-3-4.5-3.6-11-1.5-18c2.9-9.6,9.9-17.5,18.7-21.1
			c12.3-5.1,30.2-4.4,39,1.5C111.2,77.7,113.1,80.5,113.6,83.6z M53.3,112.2c1.9,2.8,4,4.3,6.5,4.7c5.7,0.8,12.2-4.4,18-9.1
			c3.2-2.6,6.1-4.9,8.5-5.9c2.1-0.9,4.6-1.6,7.3-2.3c8.6-2.3,18.2-4.9,18.2-14.4c0-3.2-1.7-5.9-4.9-8.1c-8.3-5.6-25.4-6.1-37.2-1.3
			c-8.3,3.4-14.9,10.9-17.6,19.9C50.2,102.2,50.7,108.3,53.3,112.2L53.3,112.2z"/>
		<path class="st3" d="M504.8,77.1c0,0.4,0,0.9-0.1,1.3c-1,5.6-9.4,5.4-13.4,5.4l-0.8,0c-1,0-2.5,0.4-4.1,0.8
			c-4,1.1-9.1,2.5-11.3-1.3c-0.3-0.5-0.5-1.1-0.7-1.7c-0.3-1.5-0.1-3.1,0.6-4.8c1.8-3.9,6.2-7.2,11-8c6.2-1.1,12.9,0.5,16.5,4
			C504,74.1,504.7,75.6,504.8,77.1z"/>
		<path class="st3" d="M336,41.4c7.1,2.6,4.4-15.6-2.7-15.1C326.2,26.8,327.7,38.4,336,41.4z"/>
		<g>
			<path class="st3" d="M544.5,358.5c-9.5,2.3-3.9,15.2-4.7,21.3c-0.9,6.1-9.8,21.6-0.5,24.1c8.6,2.3,19.8-10.1,19.7-24.1
				C558.9,365,551.9,356.8,544.5,358.5z"/>
		</g>
	</g>
</g>
<g id="OBJECTS">
	<g>
		<defs>
			<rect id="SVGID_1_" x="-66.5" y="-15" width="750" height="500"/>
		</defs>
		<clipPath id="SVGID_2_">
			<use xlink:href="#SVGID_1_"  style="overflow:visible;"/>
		</clipPath>
		<g class="st4">
			<g>
				<g>
					
						<image style="overflow:visible;" width="1849" height="411" xlink:href="56CBCFD3.png"  transform="matrix(0.24 0 0 0.24 86.8985 401.127)">
					</image>
				</g>
				<g>
					<g>
						<g>
							<path class="st3" d="M361.7,371.8l13.3,67.5c1.3,6.3-3.9,12.2-10.7,12.2H245.6v-9.1h31.9c5.2,0,9.3-4.3,8.7-9.3l-7.2-61.3
								H361.7z"/>
							<g class="st5">
								
									<image style="overflow:visible;" width="841" height="633" xlink:href="56CBCFD1.png"  transform="matrix(0.24 0 0 0.24 209.5385 335.607)">
								</image>
							</g>
						</g>
						<g>
							<path class="st3" d="M351.8,371.8l13.3,67.5c1.3,6.3-3.9,12.2-10.7,12.2H235.7v-9.1h31.9c5.2,0,9.3-4.3,8.7-9.3l-7.2-61.3
								H351.8z"/>
							<g class="st5">
								
									<image style="overflow:visible;" width="841" height="633" xlink:href="56CBCFD7.png"  transform="matrix(0.24 0 0 0.24 199.6985 335.607)">
								</image>
							</g>
						</g>
						<rect x="235.7" y="442.4" class="st6" width="101.8" height="9.1"/>
						<path class="st3" d="M375.2,442.4c-0.6,5-5.1,9.1-10.8,9.1h-26.8v-9.1h24.8c1.7,0,3.1-1.5,2.8-3.1c0,0,0,0,0,0l-13.3-67.5h9.9
							l13.3,67.5C375.3,440.3,375.3,441.3,375.2,442.4z"/>
						<g class="st5">
							
								<image style="overflow:visible;" width="458" height="633" xlink:href="56CBCFD0.png"  transform="matrix(0.24 0 0 0.24 301.4585 335.607)">
							</image>
						</g>
					</g>
					<path class="st3" d="M154.9,380.2h325c11.3,0,20.4-9.1,20.4-20.4V125.3c0-11.3-9.1-20.4-20.4-20.4h-325
						c-11.3,0-20.4,9.1-20.4,20.4v234.5C134.6,371.1,143.7,380.2,154.9,380.2z"/>
					<g class="st5">
						
							<image style="overflow:visible;" width="1825" height="1448" xlink:href="56CBCFDE.png"  transform="matrix(0.24 0 0 0.24 98.4185 68.727)">
						</image>
					</g>
					<path class="st3" d="M118.3,128.8v227.5c0,13.2,10.7,23.9,23.9,23.9h318c13.2,0,23.9-10.7,23.9-23.9V128.8
						c0-13.2-10.7-23.9-23.9-23.9h-318C129,104.9,118.3,115.6,118.3,128.8z"/>
					<path class="st7" d="M118.3,128.8v203.7h365.8V128.8c0-13.2-10.7-23.9-23.9-23.9h-318C129,104.9,118.3,115.6,118.3,128.8z"/>
					<g>
						
							<image style="overflow:visible;" width="1825" height="1250" xlink:href="56CBCFDF.png"  transform="matrix(0.24 0 0 0.24 82.0985 68.727)">
						</image>
					</g>
					<g>
						
							<image style="overflow:visible;" width="1825" height="1250" xlink:href="56CBCFD2.png"  transform="matrix(0.24 0 0 0.24 82.0985 68.727)">
						</image>
					</g>
					<g>
						<defs>
							<path id="SVGID_3_" d="M118.3,128.8v203.7h365.8V128.8c0-13.2-70.3-129.4-83.5-129.4L210.3,3
								C197.1,3,118.3,115.6,118.3,128.8z"/>
						</defs>
						<clipPath id="SVGID_4_">
							<use xlink:href="#SVGID_3_"  style="overflow:visible;"/>
						</clipPath>
						<g class="st8">
							<g>
								<path class="st9" d="M343,142.7c-16.4,56.8-81.5,114.6-145.6,70.2c-14.8-10.3-24-35-20.7-53.3c1.7-9.7,5.9-18.9,12-26.5
									c6.4-7.9,14.8-13.6,23.4-18.5c17.7-10.1,41.3-20.5,44.9-43.9c1.6-10.5-4.9-20.6-1.6-31c2.9-9,10.9-16.2,18.6-21
									c13.5-8.5,31.6-9.6,43.9,0.6c2.2-0.1,4.3,0.4,6.4,1C355.2,29,349.6,120,343,142.7z"/>
								<path class="st9" d="M349.6,68.7c-2.9-14.8-5.9-33.6-18.6-43c-0.1-0.1-0.2,0.1-0.1,0.1c11.5,9,14.4,25.3,17.1,39.1
									c3.3,16.3,4.8,32.7,2.9,49.3c-3.7,31.2-18.5,60.5-41.3,81.5c-11.8,10.8-25.3,19.1-39.9,25c-0.4,0.2-0.2,0.9,0.3,0.7
									c27-10,50.4-30.5,65-55.9c8.1-14.1,13.6-29.9,16.1-46.1C353.9,102.5,352.9,85.5,349.6,68.7z"/>
								<path class="st9" d="M241.3,222.1c-22.8,2.1-47.7-5.3-60.5-26.2c-5.7-9.3-8.6-20.7-7.7-31.7c0.9-12.1,6.8-22.7,15.4-30.9
									c10.3-9.8,23.1-17,35.4-23.5c0.1-0.1,0-0.2-0.1-0.2c-20.9,10.8-47,24.3-51.3,50.7c-3.8,23.5,9.4,46.1,29.6,56.3
									c12,6,26.1,8.3,39.3,6.2C241.8,222.7,241.7,222,241.3,222.1z"/>
								<path class="st9" d="M281.9,15.7c-7.5,3.7-15,7.7-21.3,13.6c-5.2,4.8-12.1,12.4-10.7,20.3c0.8,4.4,2.7,8.6,3.9,12.9
									c1.4,5.3,1.9,10.6,0.7,16c-2.2,9.7-7.2,19.8-14.2,26.6c-0.2,0.2,0,0.5,0.2,0.3c6.3-5.4,10.2-12.9,13.1-20.8
									c1.6-4.2,2.7-8.6,2.6-13.1c-0.1-4.5-1.2-8.9-2.6-13.2c-1.7-5.4-4.2-10.5-1.7-16.2c1.9-4.4,5.2-8.4,8.6-11.6
									c6.3-6.1,13.9-10.6,21.5-14.6C282.1,15.8,282,15.6,281.9,15.7z"/>
							</g>
							<g>
								<path class="st10" d="M280.9,201.8c-0.4,1.7-1.1,4-1.9,6.8c-5.9,21.1-20.7,70-27.8,79.6c-6.3,8.4-37.4,31-41.8,28.9
									c-10.2-4.7-18.9-23.6-18.9-30.3c0-0.8,0.1-1.4,0.3-1.8c1.6-2.9,26.8-27.4,28.4-33.2c1.6-5.8,24.3-57.3,34.5-80
									c7.5-16.6,25.2-29.9,33.7-40.4C287.3,131.4,289,171.1,280.9,201.8z"/>
								<g>
									
										<image style="overflow:visible;" width="670" height="754" xlink:href="56CBCFD5.png"  transform="matrix(0.24 0 0 0.24 154.3385 172.407)">
									</image>
								</g>
							</g>
							<path class="st11" d="M265.6,15.5c-0.3,0.1-0.6,0.3-0.8,0.4c0,0,0,0,0,0C265,15.8,265.3,15.7,265.6,15.5
								C265.6,15.5,265.6,15.5,265.6,15.5z"/>
							<g>
								<path class="st7" d="M300.5,125.4c-6.7,1.3-18.1,12.7-22.2,26.4c-7.5,25.7-17.4,46.5-15.9,57.9c1.5,11.4,4.8,19.7,11.2,27.6
									c1.4,1.7,1.2,40.6,0.7,47.8h84.4c0,0-5.5-36.1-5.2-49.8c0.3-13.7,4.2-71.7-4.1-80.7C335.7,139.7,316.5,122.3,300.5,125.4z"
									/>
								<g>
									<path class="st12" d="M332.8,231c-6.3,3.1-12.3,5.5-19.3,5.7c-6.7,0.2-13.8-1.2-19.7-4.6c-0.2-0.1-0.4,0.3,0.5,0.9
										c11.8,7.7,27.5,7.8,38.7-1.5C333.4,231.2,333.2,230.8,332.8,231z"/>
									<path class="st12" d="M297.8,236.3c-5.9-1.9-12.3-1.5-18.3-1.1c-0.1,0-0.1,0.2,0,0.2c6.2-0.3,12.2,0.9,18.3,1.4
										C298,236.8,298,236.4,297.8,236.3z"/>
								</g>
							</g>
							<g>
								<g>
									<path class="st13" d="M323.9,133.6c0,0-14.2,27.6-23.2,27.1c-11.1-0.6-15.9-21.9-15.9-21.9c1.5-2.9,2.3-6.3,2.9-8.9
										c0.2-0.8,0.4-1.5,0.5-2.1c0.1-0.4,0.2-1.2,0.3-2.1c0-0.2,0-0.4,0-0.7c0.1-1.6,0-3.6-0.1-5.9c-0.1-2.5-0.3-5.3-0.4-8.2
										c-0.7-10.6-1.8-22.4-2-24.5c0-0.2,0-0.3,0-0.3c0,0,0,0,0,0l24.2-1.8l2.9-0.2h0c0,0,0,0.1,0,0.3c0,0.6,0.1,1.9,0.2,3.8
										c0,0.6,0.1,1.2,0.1,1.9c0,0.9,0.1,1.9,0.2,3c0.1,0.9,0.1,1.9,0.2,2.9c0,0.7,0.1,1.4,0.1,2.1c0.2,3.5,0.5,7.3,0.8,10.9
										c0.2,2.6,0.5,5.1,0.7,7.4c0.3,3.2,0.7,5.9,1.1,7.7c0.2,0.8,0.3,1.3,0.5,1.7c0.5,1.2,1.3,2.2,2.4,3.4
										C320.5,130.3,322,131.7,323.9,133.6z"/>
									<g class="st14">
										
											<image style="overflow:visible;" width="424" height="477" xlink:href="56CBCFD6.png"  transform="matrix(0.24 0 0 0.24 249.8585 48.327)">
										</image>
									</g>
								</g>
								<g>
									<g>
										<path class="st13" d="M268.4,65.2c0,0-4-6.5-8.8-4.5c-5.9,2.5-2.8,23.3,5,24.3c3.4,0.4,4.6-2.1,4.6-2.1L268.4,65.2z"/>
										<path class="st15" d="M260.3,63.7c-0.1-0.1-0.1,0-0.1,0.1c3.6,6.2,5.9,12.5,8.3,19.1c0.1,0.4,0.7,0.3,0.7-0.1
											C268.8,75.8,265,68.7,260.3,63.7z"/>
									</g>
									<path class="st13" d="M321.2,94.9c-5.8,10-19.3,16.1-30.3,15.2c-9.5-0.8-20.9-11.8-24.3-23.3c-2.2-7.5-3.3-43.9,1.7-54.6
										c4-8.5,18.4-16.9,32-15.7c13,1.2,26.2,12,28.8,21.1C333,51.2,327.8,83.6,321.2,94.9z"/>
									<g>
										<g class="st14">
											
												<image style="overflow:visible;" width="394" height="390" xlink:href="8B750980.png"  transform="matrix(0.24 0 0 0.24 256.8185 22.167)">
											</image>
										</g>
										<g>
											<path class="st16" d="M298.8,71.5c-0.1,1.4,1,2.6,2.4,2.7c1.4,0.1,2.6-1,2.7-2.4s-1-2.6-2.4-2.7
												C300.1,69.1,298.9,70.1,298.8,71.5z"/>
											<path class="st16" d="M306.5,70.4c0,0.6-0.4,1.2-1.1,1.4c-0.3,0.1-0.6,0.1-1,0.1c-0.4-0.1-0.7-0.3-0.9-0.5
												c-0.4-0.5-0.7-0.9-1-1.3c-0.3-0.4-0.7-0.6-1.3-0.8c0.5-0.2,1.2,0,1.7,0.4c0.5,0.4,0.8,0.9,1.1,1.2
												c0.3,0.3,0.6,0.4,1.1,0.4C305.7,71.1,306.1,70.9,306.5,70.4z"/>
											<path class="st16" d="M305.4,68.6c0.2,0.5,0.1,1.2-0.4,1.6c-0.2,0.2-0.5,0.4-0.8,0.5c-0.3,0.1-0.7,0-1-0.1
												c-0.5-0.2-0.9-0.5-1.3-0.7c-0.4-0.2-0.8-0.3-1.4-0.2c0.4-0.4,1-0.5,1.6-0.4c0.6,0.1,1,0.4,1.4,0.5
												c0.4,0.2,0.7,0.1,1.1-0.1C305,69.5,305.3,69.1,305.4,68.6z"/>
										</g>
										<g class="st14">
											
												<image style="overflow:visible;" width="394" height="389" xlink:href="8B750987.png"  transform="matrix(0.24 0 0 0.24 227.2985 20.487)">
											</image>
										</g>
										
											<linearGradient id="SVGID_5_" gradientUnits="userSpaceOnUse" x1="286.4741" y1="68.3914" x2="286.4741" y2="78.402" gradientTransform="matrix(0.9979 6.430000e-02 -6.430000e-02 0.9979 6.855 -19.5239)">
											<stop  offset="0" style="stop-color:#B8835A;stop-opacity:0"/>
											<stop  offset="1" style="stop-color:#B8835A"/>
										</linearGradient>
										<path class="st17" d="M290.5,77.5c-0.4,0.9-2.2,1.8-3,1.8c-0.8-0.1-2.4-1.2-2.7-2.2c-0.3-0.9,3.4-16.9,3.9-16.8l0,0
											C289.3,60.4,290.9,76.7,290.5,77.5z"/>
										<path class="st15" d="M288.5,93c1.9,0.3,3.7,0.4,5.5,0.1c0.9-0.1,1.8-0.3,2.6-0.6c0.9-0.3,1.7-0.7,2.6-1.1
											c-0.7,0.7-1.4,1.3-2.3,1.7c-0.4,0.2-0.9,0.4-1.4,0.5c-0.5,0.1-0.9,0.2-1.4,0.3c-1,0.1-1.9,0.1-2.9-0.1
											C290.3,93.7,289.3,93.4,288.5,93z"/>
										<path class="st9" d="M281.8,55c-2.1-1.6-5.7-1.3-8.5-0.6c-3.5,0.9-5.6,3.2-5.4,4.1c0.2,0.7,2.8-0.6,7.6-0.9
											c2-0.1,4.8,0.8,6.1,0.1C282.7,57.1,282.7,55.6,281.8,55z"/>
										<path class="st9" d="M298.1,56c2.3-1.3,5.9-0.6,8.5,0.5c3.3,1.3,5.2,3.9,4.8,4.8c-0.3,0.6-2.7-0.9-7.4-1.8
											c-2-0.4-4.8,0.2-6.1-0.7C297,58,297.1,56.6,298.1,56z"/>
										<g>
											<path class="st16" d="M279.1,70.3c-0.1,1.4-1.3,2.5-2.7,2.4c-1.4-0.1-2.5-1.3-2.4-2.7s1.3-2.5,2.7-2.4
												C278.1,67.7,279.2,68.9,279.1,70.3z"/>
											<path class="st16" d="M271.7,68.2c0.3,0.5,0.7,0.8,1.1,0.9c0.5,0.1,0.8,0,1.2-0.2c0.4-0.3,0.7-0.7,1.3-1
												c0.5-0.3,1.2-0.4,1.7-0.1c-0.6,0.1-1,0.3-1.4,0.7c-0.4,0.3-0.7,0.8-1.1,1.2c-0.2,0.2-0.6,0.4-0.9,0.4c-0.4,0-0.7,0-1-0.2
												C272,69.4,271.6,68.8,271.7,68.2z"/>
											<path class="st16" d="M272.9,66.5c0.1,0.5,0.3,0.9,0.6,1.2c0.3,0.3,0.6,0.3,1,0.2c0.4-0.1,0.9-0.3,1.5-0.4
												c0.6-0.1,1.2,0.2,1.5,0.6c-0.5-0.1-1-0.1-1.4,0.1c-0.4,0.1-0.8,0.4-1.4,0.5c-0.3,0.1-0.6,0.1-1,0
												c-0.3-0.1-0.6-0.3-0.8-0.6C272.7,67.7,272.7,67,272.9,66.5z"/>
										</g>
										<g>
											<path class="st16" d="M300.1,87.5c-0.1,0.2-0.3,0.5-0.5,0.7c-1.2,1.4-3.4,2.6-5.9,2.9c-2.4,0.4-4.9-0.1-6.5-1.1
												c-0.3-0.2-0.5-0.3-0.7-0.5c-1.4-1.3-1.4-3.7,0-4.5c1.9-1.1,4.2,0.1,6.2-0.2c2-0.3,3.9-2.1,6-1.6
												C300.4,83.5,301,85.8,300.1,87.5z"/>
											<path class="st18" d="M299.6,88.2c-1.2,1.4-3.4,2.6-5.9,2.9c-2.4,0.4-4.9-0.1-6.5-1.1c1-1.6,3.1-3,5.8-3.4
												C295.7,86.2,298.2,86.9,299.6,88.2z"/>
										</g>
										<g class="st14">
											<defs>
												<filter id="Adobe_OpacityMaskFilter" filterUnits="userSpaceOnUse" x="264.3" y="70.6" width="9.3" height="9.3">
													<feFlood  style="flood-color:white;flood-opacity:1" result="back"/>
													<feBlend  in="SourceGraphic" in2="back" mode="normal"/>
												</filter>
											</defs>
											<mask maskUnits="userSpaceOnUse" x="264.3" y="70.6" width="9.3" height="9.3" id="SVGID_6_">
												<g class="st19">
													
														<image style="overflow:visible;" width="56" height="56" xlink:href="8B750980.jpg"  transform="matrix(0.24 0 0 0.24 262.3385 68.487)">
													</image>
												</g>
											</mask>
											<g class="st20">
												
													<ellipse transform="matrix(0.9874 -0.1582 0.1582 0.9874 -8.5096 43.4972)" class="st18" cx="269" cy="75.2" rx="4.6" ry="4.6"/>
											</g>
										</g>
										<g class="st14">
											<defs>
												<filter id="Adobe_OpacityMaskFilter_1_" filterUnits="userSpaceOnUse" x="307.8" y="72.7" width="9.3" height="9.3">
													<feFlood  style="flood-color:white;flood-opacity:1" result="back"/>
													<feBlend  in="SourceGraphic" in2="back" mode="normal"/>
												</filter>
											</defs>
											<mask maskUnits="userSpaceOnUse" x="307.8" y="72.7" width="9.3" height="9.3" id="SVGID_7_">
												<g class="st21">
													
														<image style="overflow:visible;" width="56" height="56" xlink:href="8B750983.jpg"  transform="matrix(0.24 0 0 0.24 305.7785 70.647)">
													</image>
												</g>
											</mask>
											<g class="st22">
												<path class="st18" d="M317.1,77c0.2,2.6-1.8,4.8-4.4,4.9c-2.6,0.2-4.8-1.8-4.9-4.4c-0.2-2.6,1.8-4.8,4.4-4.9
													C314.8,72.5,317,74.5,317.1,77z"/>
											</g>
										</g>
									</g>
									<path class="st9" d="M329,68c-3.1-0.3-6.3-13.6-7.5-24.9c0,0,0,11.2-1,12.1c-1,0.8-18.1-6.5-23.1-22.4
										c0,0,3.1,13.5,1.8,14.1c-1.3,0.6-11.4-0.3-19.6-10.5c0,0,4.3,8.2,3.3,8.5c-0.9,0.3-8.8-0.4-12.3-3.8c0,0-5.3,24.3-6.9,21.5
										c-0.8-1.4-1.2-26.9,3.4-33.2c4.6-6.3,18.7-14.9,32.3-13.8c13.7,1.1,27.7,10.5,31.1,19.2C333.9,43.5,331.4,68.2,329,68z"/>
									<g>
										<path class="st13" d="M325.3,67.2c0,0,4.8-5.9,9.3-3.3c5.5,3.2-0.2,23.4-8,23.5c-3.4,0-4.3-2.7-4.3-2.7L325.3,67.2z"/>
										<path class="st15" d="M333.5,66.7C333.6,66.7,333.6,66.8,333.5,66.7c-4.3,5.8-7.3,11.7-10.6,18c-0.2,0.3-0.7,0.2-0.7-0.2
											C323.5,77.6,328.2,71.1,333.5,66.7z"/>
									</g>
								</g>
							</g>
							<path class="st9" d="M274.3,285.1h84.4c0,0,23.3,43.4,30.6,65.8c14.6,44.9,17.5,93.2,17.5,93.2H255.8
								C255.8,444.2,251.6,364.6,274.3,285.1z"/>
							<g>
								<path class="st10" d="M426,444.2h-83.3l-0.9-12.8l-21.9-301.8c0,0,33.9,18.9,37.1,30.5c2.1,8,1.2,34.3,1.1,54.5
									c-0.1,9.3,0,17.3,0.7,21.6c0.7,4.8,9.6,32.8,20.6,66.8c1.5,4.7,3.1,9.5,4.7,14.4c0,0,0,0,0,0
									C403.1,375.8,426,444.2,426,444.2z"/>
								<g>
									
										<image style="overflow:visible;" width="652" height="830" xlink:href="8B750981.png"  transform="matrix(0.24 0 0 0.24 305.5385 281.127)">
									</image>
								</g>
								<g>
									
										<image style="overflow:visible;" width="436" height="697" xlink:href="8B75099F.png"  transform="matrix(0.24 0 0 0.24 310.8185 171.687)">
									</image>
								</g>
							</g>
							<g>
								<path class="st13" d="M365.3,261.8c0,0-10,27.2-10.9,29.3c-0.9,2-5.4,8.2-6.5,10.3c-1.1,2.1-1.3,3.4-1.3,3.4
									s7.1,15.6,15.4,21.7c0,0,5.1-8.3,6.2-10.9c1.1-2.6,3.1-14.7,3.1-14.7l18.8-26.1C390,274.7,377.8,261.3,365.3,261.8z"/>
								<path class="st10" d="M428,233.1C428,233.1,428,233.1,428,233.1c-8.4,30.7-34.6,84.2-36.4,84.2c-2.3,0-13.2-2.5-20.2-9.1
									c-5-4.7-10.2-13.6-12.8-19c-1-2.1-1.6-3.7-1.6-4.3c0-2,19.3-50.4,20.9-51.7c1.5-1.2-33.2-30.8-37.9-35
									c-4.7-4.3-20.4-41.2-18.7-67.9c0,0,15.7,5.2,24.5,11.2c28.1,19.1,78.1,61.9,83.9,72.3C431.4,216.9,430.5,224,428,233.1z"/>
								<path class="st23" d="M358.1,214.1c-0.9-1.1-6.1-4.5-7.5-5.5c-0.2-0.1-0.2,0-0.1,0.2c1.1,1.1,5,4.6,7.4,5.6
									C358.4,214.6,358.4,214.5,358.1,214.1z"/>
								<path class="st23" d="M365.2,262.1c-1.9,3.3-7.3,18.4-8.3,22.4c0,0.2,0.2,0.3,0.3,0.1c1.7-3.4,7.7-18.5,8.5-22.5
									C365.7,261.7,365.4,261.7,365.2,262.1z"/>
								<g>
									
										<image style="overflow:visible;" width="590" height="652" xlink:href="8B750982.png"  transform="matrix(0.24 0 0 0.24 322.5785 196.887)">
									</image>
								</g>
							</g>
							<g>
								<path class="st23" d="M320,129.5c-0.1-0.1-0.3,0-0.2,0.1c4.9,8.7,24.1,36.3,23.8,36.7c-0.5,0.6-9.9,9.2-13.7,12.4
									c-0.4,0.3,0.2,0.9,0.6,0.6c4.3-3.7,10.3-9,14.2-12.9C345.2,165.9,326.3,139.3,320,129.5z"/>
								<path class="st23" d="M348.1,199.6c-0.1-0.9-13.9-17.3-17.8-20.8c-0.3-0.2-0.6,0.2-0.4,0.5c3.5,3.8,16.8,20.5,17,21
									c0.2,0.5-11.9,78.8-14.2,99.8c-0.1,0.5,0.7,0.5,0.7,0C335.7,277.3,348.4,201.7,348.1,199.6z"/>
							</g>
							<g>
								<path class="st10" d="M287.3,131.4c0,0-21.9,33-23.5,50.5c-1.6,17.5-12.6,262.2-12.6,262.2h36.1V131.4z"/>
								<g>
									<path class="st23" d="M287.2,131.5c0.1-0.1,0.2,0,0.2,0.1c-3.5,8.8-18.6,38.3-18.3,38.7c0.4,0.6,8.4,8.6,11.6,11.6
										c0.3,0.3-0.1,0.9-0.4,0.6c-3.6-3.4-8.7-8.3-12-12C267.7,169.9,282.6,141.4,287.2,131.5z"/>
									<path class="st23" d="M267.1,203.1c0.1-0.9,10.3-17.6,13.3-21.2c0.2-0.2,0.5,0.2,0.3,0.4c-2.6,3.9-12.5,20.9-12.6,21.4
										c-0.1,0.5,14.4,75.7,17.3,96.2c0.1,0.5-0.5,0.5-0.6,0C281.8,277.7,266.9,205.2,267.1,203.1z"/>
								</g>
								<path class="st23" d="M261.9,208.1c-0.3,5-0.6,10-1,14.9c-0.4-2.4-0.7-4.8-1.1-7.2c0-0.2-0.3-0.1-0.3,0
									c0.4,3.6,0.6,7.3,1,10.9c0,0.1,0,0.1,0.1,0.2c-0.3,4.6-0.6,9.2-0.9,13.7c-0.5,10.5-1,20.9-1.5,31.4
									c-0.9,21.3-2.2,42.6-2.7,63.9c0,0.4,0.6,0.4,0.6,0c1.5-21.3,2.3-42.6,3.4-63.9c0.5-10.5,1.1-20.9,1.6-31.4
									c0.5-10.8,0.5-21.7,1-32.5C262.2,207.9,261.9,207.9,261.9,208.1z"/>
							</g>
							<path class="st23" d="M370.5,333.4c-3.1-2.1-17.8-12.8-28.1-37.5c-0.1-0.3-0.6-0.2-0.5,0.2c2.9,8,6.6,15.4,11.4,22.4
								c4.6,6.6,9.4,12,16.9,15.4C370.4,334,370.8,333.6,370.5,333.4z"/>
							<g>
								<g>
									<polygon class="st12" points="282.6,346.3 201,346.3 179,238 260.6,238 									"/>
									<polygon class="st23" points="237.2,245 202.7,245 199.9,231.3 234.4,231.3 									"/>
									<polygon class="st23" points="230.5,236.1 206.3,236.1 204.3,226.5 228.5,226.5 									"/>
								</g>
								<path class="st13" d="M197.1,318.7c3.5-0.8,21.4-12.7,21.8-15.9c0.5-3.8-17.6,6.2-17.8,6c-0.2-0.2,18.7-8,18.3-11.8
									c-0.3-3.3-20.9,6.5-20.9,6.5s20-8.6,19.6-11.5c-0.4-3.3-20.8,4.4-20.8,4.1c0,0,14.8-5.1,15.2-7.9c0.3-2.5-13.2,1.1-18.1,1.6
									c-4.9,0.4-9.3,10.1-9.5,13.6C184.6,306.8,192.7,319.8,197.1,318.7z"/>
							</g>
							<g>
								<path class="st23" d="M330,137.3c-0.7-0.7-2.2-0.6-3,0.1c-1-4-4-6.6-7.7-8.4c-1.1-1.2-1.9-2.2-2.4-3.4
									c-0.2-0.4-0.3-0.9-0.5-1.7C323.2,126.2,328.6,130.6,330,137.3z"/>
								<path class="st23" d="M288.5,125c0,0.2,0,0.4,0,0.7c0,0.9-0.1,1.7-0.3,2.1c-0.2,0.6-0.3,1.3-0.5,2.1
									c-2.6,2.1-4.6,5.2-5.8,9.7c-2.9,11.1-3.3,23.6-3.3,35.2c-0.7-0.2-1.5-0.3-2.2-0.3c-0.2,0-0.5,0-0.7,0
									c0-13.6-1-38.4,9.2-47.2C286,126.4,287.2,125.7,288.5,125z"/>
								<path class="st23" d="M276.4,174.5c0.8,0,1.5,0.1,2.2,0.3v0.3c0,2.2-2.9,2.2-2.9,0v-0.6C276,174.5,276.2,174.5,276.4,174.5z
									"/>
								<path class="st23" d="M327.4,139.2c-0.1-0.6-0.2-1.2-0.3-1.8c0.7-0.7,2.2-0.8,3-0.1c0.1,0.6,0.2,1.2,0.3,1.9
									C330.5,141.3,327.6,141.4,327.4,139.2z"/>
								<g>
									<path class="st12" d="M284.3,182.2c0.1,4.3-3.4,7.9-7.7,7.9c-4.3,0.1-7.8-3.4-7.9-7.7c-0.1-4.1,3-7.5,7-7.9
										c0.2,0,0.5,0,0.7,0c0.8,0,1.5,0.1,2.2,0.3C281.9,175.7,284.3,178.6,284.3,182.2z"/>
									<path class="st24" d="M271.9,182.3c0,2.6,2.2,4.7,4.8,4.6c2.6,0,4.7-2.2,4.6-4.8c0-2.6-2.2-4.7-4.8-4.6
										C273.9,177.6,271.8,179.8,271.9,182.3z"/>
								</g>
								<g>
									<g>
										<g>
											<path class="st23" d="M321.6,177.1c-2.8,33.6-0.1,41.2,3.2,44.4c3.5,3.4,8.4,4.7,8.6,4.7l0.6-2.3l-0.3,1.1l0.3-1.1
												c0,0-4.5-1.2-7.6-4.2c-2.4-2.3-5.3-9.3-2.5-42.5L321.6,177.1z"/>
											<path class="st12" d="M330.8,222.5l-0.9,2.7c-0.2,0.6,0.1,1.2,0.7,1.4l5.6,1.9c0.6,0.2,1.2-0.1,1.4-0.7l0.9-2.7
												c0.2-0.6-0.1-1.2-0.7-1.4l-5.6-1.9C331.6,221.6,331,221.9,330.8,222.5z"/>
										</g>
										<g>
											<path class="st23" d="M342.7,174.2c10.6,23.1,14.5,36,12.2,40.8c-1.9,3.8-5.6,6.5-5.7,6.5l1.3,1.9c0.2-0.1,4.3-3,6.5-7.4
												c2.8-5.7-0.8-18.1-12.2-42.8L342.7,174.2z"/>
											<path class="st12" d="M351.9,219l1.8,2.2c0.4,0.5,0.3,1.2-0.2,1.6l-4.6,3.8c-0.5,0.4-1.2,0.3-1.6-0.2l-1.8-2.2
												c-0.4-0.5-0.3-1.2,0.2-1.6l4.6-3.8C350.8,218.4,351.5,218.5,351.9,219z"/>
										</g>
									</g>
									<path class="st12" d="M345.9,175.4c-0.2,0.5-0.7,0.7-1.1,0.9c-0.4,0.2-0.7,0.3-1,0.2c-0.9,0-1.6-0.8-2.7-3.5
										c-2.4-5.8-6-16.2-10.2-15.9v0c-4.2,0.7-4.6,11.2-5.3,17.6c-0.3,3.1-0.8,4.5-1.8,4.8c-0.3,0.1-0.5,0.1-0.8,0.1
										c-0.5-0.1-1.1-0.2-1.5-0.7c-0.4-0.5-0.7-1.5-0.6-3.3c0.1-2.9,1.6-12.9,2.8-16.8c1-3.5,4-6.2,4-6.2c0.5-0.1,0-4.2-0.5-7.5
										c-0.4-3-1-6.4-0.3-7.4c0.1-0.1,0.2-0.2,0.3-0.3c0.7-0.7,2.2-0.8,3-0.1c0,0,0,0,0,0c0.9,0.8,1.2,4.3,1.5,7.3
										c0.4,3.4,0.9,7.5,1.3,7.4c0,0,3.8,1.7,5.7,4.9c2.3,3.9,5.7,11.9,7,15.1C346.2,173.8,346.2,174.8,345.9,175.4z"/>
								</g>
							</g>
						</g>
					</g>
				</g>
			</g>
			<g>
				<g>
					<ellipse class="st3" cx="204.5" cy="61.3" rx="39.1" ry="28.9"/>
					<polygon class="st3" points="225.8,80.7 244.9,85.6 237.8,69.8 					"/>
					<g>
						<path class="st25" d="M190.4,61.3c0,2.2-1.8,4.1-4.1,4.1c-2.2,0-4.1-1.8-4.1-4.1c0-2.2,1.8-4.1,4.1-4.1
							C188.6,57.2,190.4,59,190.4,61.3z"/>
						<path class="st25" d="M208.5,61.3c0,2.2-1.8,4.1-4.1,4.1c-2.2,0-4.1-1.8-4.1-4.1c0-2.2,1.8-4.1,4.1-4.1
							C206.7,57.2,208.5,59,208.5,61.3z"/>
						<path class="st25" d="M226.6,61.3c0,2.2-1.8,4.1-4.1,4.1c-2.2,0-4.1-1.8-4.1-4.1c0-2.2,1.8-4.1,4.1-4.1
							C224.8,57.2,226.6,59,226.6,61.3z"/>
					</g>
				</g>
				<g>
					<g>
						<path class="st18" d="M130,239v-46.8c0,0-4.7-24-20.9-22.2c-14.8,1.7-18.3,21.5-10.5,37.9C106.9,225.5,130,239,130,239z"/>
					</g>
					<g>
						
							<image style="overflow:visible;" width="449" height="589" xlink:href="8B750983.png"  transform="matrix(0.24 0 0 0.24 58.3385 133.767)">
						</image>
					</g>
					<g>
						<path class="st18" d="M130,239v-46.8c0,0,4.7-24,20.9-22.2c14.8,1.7,18.3,21.5,10.5,37.9C153,225.5,130,239,130,239z"/>
					</g>
					<path class="st10" d="M119.9,210.7v3.8c0,0.8-0.6,1.4-1.4,1.4h-7.8c-0.8,0-1.4,0.6-1.4,1.4v7.8c0,0.8-0.6,1.4-1.4,1.4h-3.8
						c-0.8,0-1.4-0.6-1.4-1.4v-7.8c0-0.8-0.6-1.4-1.4-1.4h-7.8c-0.8,0-1.4-0.6-1.4-1.4v-3.8c0-0.8,0.6-1.4,1.4-1.4h7.8
						c0.8,0,1.4-0.6,1.4-1.4V200c0-0.8,0.6-1.4,1.4-1.4h3.8c0.8,0,1.4,0.6,1.4,1.4v7.8c0,0.8,0.6,1.4,1.4,1.4h7.8
						C119.3,209.2,119.9,209.9,119.9,210.7z"/>
				</g>
				<path class="st26" d="M438.3,303v3.8c0,0.8-0.6,1.4-1.4,1.4H429c-0.8,0-1.4,0.6-1.4,1.4v7.8c0,0.8-0.6,1.4-1.4,1.4h-3.8
					c-0.8,0-1.4-0.6-1.4-1.4v-7.8c0-0.8-0.6-1.4-1.4-1.4h-7.8c-0.8,0-1.4-0.6-1.4-1.4V303c0-0.8,0.6-1.4,1.4-1.4h7.8
					c0.8,0,1.4-0.6,1.4-1.4v-7.8c0-0.8,0.6-1.4,1.4-1.4h3.8c0.8,0,1.4,0.6,1.4,1.4v7.8c0,0.8,0.6,1.4,1.4,1.4h7.8
					C437.7,301.6,438.3,302.2,438.3,303z"/>
				<path class="st26" d="M207.2,237.1v3.8c0,0.8-0.6,1.4-1.4,1.4H198c-0.8,0-1.4,0.6-1.4,1.4v7.8c0,0.8-0.6,1.4-1.4,1.4h-3.8
					c-0.8,0-1.4-0.6-1.4-1.4v-7.8c0-0.8-0.6-1.4-1.4-1.4h-7.8c-0.8,0-1.4-0.6-1.4-1.4v-3.8c0-0.8,0.6-1.4,1.4-1.4h7.8
					c0.8,0,1.4-0.6,1.4-1.4v-7.8c0-0.8,0.6-1.4,1.4-1.4h3.8c0.8,0,1.4,0.6,1.4,1.4v7.8c0,0.8,0.6,1.4,1.4,1.4h7.8
					C206.6,235.7,207.2,236.3,207.2,237.1z"/>
				<g>
					<path class="st3" d="M584,203.3H442.8c-3.9,0-7.1-3.2-7.1-7.1v-35.3c0-3.9,3.2-7.1,7.1-7.1H584c3.9,0,7.1,3.2,7.1,7.1v35.3
						C591,200.2,587.9,203.3,584,203.3z"/>
					<g>
						<path class="st7" d="M476.9,178.6c0,4.6-2.1,8.8-5.5,11.4c-2.5,2-5.7,3.3-9.2,3.3c-3.5,0-6.7-1.2-9.2-3.3
							c-3.3-2.7-5.5-6.8-5.5-11.4c0-8.1,6.6-14.7,14.7-14.7C470.3,163.9,476.9,170.5,476.9,178.6z"/>
						<path class="st3" d="M467.7,174.6c0,3-2.4,5.4-5.4,5.4c-3,0-5.4-2.4-5.4-5.4c0-3,2.4-5.4,5.4-5.4
							C465.2,169.1,467.7,171.6,467.7,174.6z"/>
						<path class="st3" d="M471.5,189.3c0,0.2,0,0.5,0,0.7c-2.5,2-5.7,3.3-9.2,3.3c-3.5,0-6.7-1.2-9.2-3.3c0-0.2,0-0.5,0-0.7
							c0-5.1,4.1-9.3,9.3-9.3C467.3,180,471.5,184.2,471.5,189.3z"/>
					</g>
					<g>
						<rect x="488" y="170" class="st12" width="89.8" height="1.3"/>
						<rect x="488" y="177.9" class="st10" width="89.8" height="1.3"/>
						<rect x="488" y="185.9" class="st10" width="51.6" height="1.3"/>
					</g>
				</g>
				<g>
					<path class="st3" d="M158.3,312.2H17.2c-3.9,0-7.1-3.2-7.1-7.1v-35.3c0-3.9,3.2-7.1,7.1-7.1h141.1c3.9,0,7.1,3.2,7.1,7.1v35.3
						C165.3,309,162.2,312.2,158.3,312.2z"/>
					<g>
						<path class="st7" d="M51.2,287.4c0,4.6-2.1,8.8-5.5,11.4c-2.5,2-5.7,3.3-9.2,3.3c-3.5,0-6.7-1.2-9.2-3.3
							c-3.3-2.7-5.5-6.8-5.5-11.4c0-8.1,6.6-14.7,14.7-14.7C44.7,272.7,51.2,279.3,51.2,287.4z"/>
						<circle class="st3" cx="36.5" cy="283.4" r="5.4"/>
						<path class="st3" d="M45.8,298.1c0,0.2,0,0.5,0,0.7c-2.5,2-5.7,3.3-9.2,3.3c-3.5,0-6.7-1.2-9.2-3.3c0-0.2,0-0.5,0-0.7
							c0-5.1,4.1-9.3,9.3-9.3C41.7,288.9,45.8,293,45.8,298.1z"/>
					</g>
					<g>
						<rect x="62.3" y="278.8" class="st12" width="89.8" height="1.3"/>
						<rect x="62.3" y="286.8" class="st10" width="89.8" height="1.3"/>
						<rect x="62.3" y="294.7" class="st10" width="51.6" height="1.3"/>
					</g>
				</g>
				<g>
					<rect x="480" y="258.1" class="st10" width="33.4" height="50.1"/>
					<rect x="476" y="240.7" class="st18" width="41.5" height="17.4"/>
					<rect x="485.6" y="272.5" class="st13" width="22.2" height="22.2"/>
					<polygon class="st3" points="480,258.1 480,262 498.8,269.1 498.8,308.2 507.8,308.2 507.8,258.1 					"/>
					<g>
						<path class="st10" d="M485.9,309.8L485.9,309.8c0,2.3-1.9,4.2-4.2,4.2h-8.3c-2.3,0-4.2-1.9-4.2-4.2v0c0-2.3,1.9-4.2,4.2-4.2
							h8.3C484,305.6,485.9,307.5,485.9,309.8z"/>
						<path class="st18" d="M485.9,309.8L485.9,309.8c0,2.3-1.9,4.2-4.2,4.2h-4.2v-8.4h4.2C484,305.6,485.9,307.5,485.9,309.8z"/>
					</g>
					<g>
						<path class="st10" d="M526.8,309.8L526.8,309.8c0,2.3-1.9,4.2-4.2,4.2h-8.3c-2.3,0-4.2-1.9-4.2-4.2v0c0-2.3,1.9-4.2,4.2-4.2
							h8.3C524.9,305.6,526.8,307.5,526.8,309.8z"/>
						<path class="st18" d="M526.8,309.8L526.8,309.8c0,2.3-1.9,4.2-4.2,4.2h-4.2v-8.4h4.2C524.9,305.6,526.8,307.5,526.8,309.8z"/>
					</g>
					<g>
						<path class="st10" d="M536.3,311.5L536.3,311.5c-1.6,1.6-4.3,1.6-6,0l-5.9-5.9c-1.6-1.6-1.6-4.3,0-5.9l0,0
							c1.6-1.6,4.3-1.6,6,0l5.9,5.9C537.9,307.2,537.9,309.9,536.3,311.5z"/>
						<path class="st18" d="M536.3,311.5L536.3,311.5c-1.6,1.6-4.3,1.6-6,0l-3-3l6-6l3,3C537.9,307.2,537.9,309.9,536.3,311.5z"/>
					</g>
					<g>
						<path class="st10" d="M498.2,318.2L498.2,318.2c0-2.3,1.9-4.2,4.2-4.2h8.3c2.3,0,4.2,1.9,4.2,4.2v0c0,2.3-1.9,4.2-4.2,4.2
							h-8.3C500,322.5,498.2,320.6,498.2,318.2z"/>
						<path class="st18" d="M498.2,318.2L498.2,318.2c0-2.3,1.9-4.2,4.2-4.2h4.2v8.4h-4.2C500,322.5,498.2,320.6,498.2,318.2z"/>
					</g>
				</g>
				<g>
					<g>
						<path class="st18" d="M433.6,52.4v13.6h-6.1v-7c0-1-0.8-1.7-1.7-1.7H408c-1,0-1.7,0.8-1.7,1.7v7h-6.1V52.4
							c0-1,0.8-1.7,1.7-1.7h30C432.8,50.6,433.6,51.4,433.6,52.4z"/>
						<g>
							
								<image style="overflow:visible;" width="440" height="365" xlink:href="8B750986.png"  transform="matrix(0.24 0 0 0.24 364.0984 14.487)">
							</image>
						</g>
					</g>
					<path class="st18" d="M457.2,69v43.9c0,3.5-2.9,6.4-6.4,6.4h-67.9c-3.5,0-6.4-2.9-6.4-6.4V69c0-3.5,2.9-6.4,6.4-6.4h67.9
						C454.4,62.6,457.2,65.4,457.2,69z"/>
					<g>
						
							<image style="overflow:visible;" width="470" height="537" xlink:href="8B750985.png"  transform="matrix(0.24 0 0 0.24 380.6584 26.487)">
						</image>
					</g>
					<path class="st10" d="M430.8,89.1v3.8c0,0.8-0.6,1.4-1.4,1.4h-7.8c-0.8,0-1.4,0.6-1.4,1.4v7.8c0,0.8-0.6,1.4-1.4,1.4H415
						c-0.8,0-1.4-0.6-1.4-1.4v-7.8c0-0.8-0.6-1.4-1.4-1.4h-7.8c-0.8,0-1.4-0.6-1.4-1.4v-3.8c0-0.8,0.6-1.4,1.4-1.4h7.8
						c0.8,0,1.4-0.6,1.4-1.4v-7.8c0-0.8,0.6-1.4,1.4-1.4h3.8c0.8,0,1.4,0.6,1.4,1.4v7.8c0,0.8,0.6,1.4,1.4,1.4h7.8
						C430.2,87.6,430.8,88.3,430.8,89.1z"/>
				</g>
				<g>
					<polyline class="st27" points="355.2,146.5 416.9,146.5 416.9,128 					"/>
					<circle class="st3" cx="416.9" cy="126.2" r="3.1"/>
				</g>
				<g>
					<polyline class="st27" points="426.6,242.6 426.6,274.2 472,274.2 					"/>
					<circle class="st3" cx="473.3" cy="274.2" r="3.1"/>
				</g>
				<g>
					<polyline class="st27" points="178.8,139.7 130.8,139.7 130.8,175 					"/>
					<circle class="st3" cx="130.8" cy="176.3" r="3.1"/>
				</g>
			</g>
		</g>
	</g>
</g>
</svg>
