<?xml version="1.0" encoding="utf-8"?>
<!-- Generator: Adobe Illustrator 24.1.0, SVG Export Plug-In . SVG Version: 6.00 Build 0)  -->
<svg version="1.1" id="Layer_1" xmlns="http://www.w3.org/2000/svg" xmlns:xlink="http://www.w3.org/1999/xlink" x="0px" y="0px"
	 viewBox="0 0 3981 2316.4" style="enable-background:new 0 0 3981 2316.4;" xml:space="preserve">
<g>
	<path d="M190.5,2064l3587.7,11.6c39.5,0.1,71.5,32.3,71.4,71.8c-0.1,39.5-32.3,71.5-71.8,71.3L190,2207.1
		c-39.5-0.1-71.5-32.3-71.3-71.8C118.8,2095.8,151,2063.8,190.5,2064z"/>
	<path d="M393.5,2097.6l2.6-671.3l6,6.1l-30.4-0.3c-3.3,0-5.9-2.6-6-5.9l-1.8-84.4c0-0.1,0-0.1,0-0.2l3.3-519.1l5.9,6.1l-53.1-1.1
		c-3.3-0.1-5.9-2.7-5.9-6l-0.6-196.2c0-1.6,0.6-3.2,1.8-4.3c1.1-1.1,2.7-1.8,4.3-1.8l1255.8,16.1h0l2100.6,38.9
		c3.2,0.1,5.8,2.6,5.9,5.8l8,188.7c0.1,1.6-0.5,3.2-1.6,4.4c-1.1,1.2-2.6,1.9-4.2,1.9l-50.4,1.5l5.8-6l-3.1,396.4v-0.1l0.2,243.1
		v0.1l-7.7,576.6c-0.1,3.3-2.7,5.9-6,5.9l-3223.4,11.1c-1.6,0-3.1-0.6-4.3-1.8C394.1,2100.7,393.5,2099.2,393.5,2097.6
		 M405.5,2097.6l-6-6l3223.4-11.1l-6,5.9l7.7-576.6v0.1l-0.2-243.1v-0.1l3.1-396.4c0-3.2,2.6-5.9,5.8-6l50.4-1.5l-5.8,6.3l-8-188.6
		l5.9,5.8l-2100.5-38.9h0L319.4,631.2l6.1-6l0.6,196.2l-5.9-6l53.1,1.1c3.3,0.1,5.9,2.8,5.9,6.1l-3.3,519.1v-0.2l1.8,84.4l-6-5.9
		l30.4,0.3c3.3,0,6,2.7,6,6.1L405.5,2097.6z"/>
	<path d="M314.1,820.3l0,1.1c0,3.3,2.6,5.9,5.9,6l47.1,1l0,4.6h0c3.9,0,7.9,0.1,12,0.1l0.1-10.6l-0.1,10.6l0,0
		c44.1,0.5,98.4,1.2,166.9,2l0-5.1l0,5.1h0h0h0c4,0.1,8,0.1,12,0.1h0h0h0c98.6,1.1,225.4,2.6,391,4.4l1,0l2677.6,28.7v0c0,0,0,0,0,0
		h0h0h0l62.1,0.7c0-0.2,0-0.3,0-0.5l-0.5-11.6l-12.1-0.1L950.2,827.7l-1,0c-290.5-3.2-461.6-5.2-570.2-6.5l0,0
		C354.4,820.8,332.9,820.6,314.1,820.3L314.1,820.3z M552,824.1C552,824.1,552,824.1,552,824.1C552,824.1,552,824.1,552,824.1z"/>
	<path d="M373.2,1282.3c28.8-0.3,57.5-0.6,129.9-0.6c25.9,0,57.1,0,96,0.1c147.9,0.3,404.6,1.3,661.4,2.4h0l930,1.9h0l659.2-2l-6,6
		l0.7-105.8c0-1.6,0.7-3.2,1.9-4.3c1.2-1.1,2.8-1.7,4.4-1.7l35.5,1.4l-6.2,5.7l4.3-73.6l6,6.4l-345.2,0.2h-0.1l-178.1-2.1
		l-518.9-6.2h0l-625.4-2.9l6.1-5.7l-4.7,82.4l-5.9-6.4l41.8,0.7h-0.1l1055.1,3.6h0l545-1.7c3.3,0,6,2.7,6.1,6c0,3.3-2.7,6-6,6
		l-545,1.7h0l-1055.1-3.6h-0.1l-41.8-0.7c-1.6,0-3.2-0.7-4.3-1.9c-1.1-1.2-1.7-2.8-1.6-4.5l4.7-82.4c0.2-3.2,2.8-5.7,6-5.7
		l625.4,2.9h0.1l518.9,6.2l178.1,2.1h-0.1l345.2-0.2c1.7,0,3.3,0.7,4.4,1.9c1.1,1.2,1.7,2.8,1.6,4.5l-4.3,73.6
		c-0.2,3.3-3,5.8-6.3,5.7l-35.5-1.4l6.3-6l-0.7,105.8c0,3.3-2.7,6-6,6l-659.2,2h0l-930-1.9h0c-256.8-1-513.5-2.1-661.4-2.4
		c-38.9-0.1-70.1-0.1-96-0.1c-72.4,0-101,0.3-129.7,0.6c-3.3,0-6.1-2.6-6.1-6C367.2,1285.1,369.8,1282.3,373.2,1282.3z"/>
	<path d="M1293.3,1324.3c-0.1,0-0.1,0-0.2,0h-0.1v0c-4,0.1-8.1,0.2-12.1,0.3h0c-111.3,2.8-223.7,5.5-372.1,7.3
		c-152.2,1.8-342.4,2.5-532.9,3.3c-2,0-3.9,0-5.9,0c-3.3,0-6,2.7-6,6.1c0,3.3,2.7,6,6,6c2,0,4,0,6,0h0l-0.1-5.6l0.1,5.6
		c190.5-0.7,380.6-1.5,532.9-3.3c152.3-1.8,266.8-4.6,380.9-7.5l57.9,101.5c0.6,1,1.4,1.8,2.3,2.3l16.8,9.2v0c0,0,0,0,0,0l11.9,6.6
		l14.4,8l12.8,7.1l1.7,0.9l-0.4,616l12.1,0l0.4-618.2v-1.4c0-2.2-1.2-4.2-3.1-5.3l-8.1-4.5h0l-51-28.2l-50.2-87.9l-7.4-12.9
		l-1.3-2.4c-0.5-0.9-1.2-1.6-2-2.1l2,2.7l-2-2.7C1295.6,1324.7,1294.4,1324.3,1293.3,1324.3z"/>
	<path d="M1419.3,2088.1l-12.1,0l0,12l12.1,0L1419.3,2088.1z"/>
	<path d="M1398.2,1460l-0.2,0L1398.2,1460z"/>
	<path d="M1372.9,1440.2c-3.3,0-5.9,2.6-6,5.9c0,1.2-0.1,2.3-0.1,3.5c-3.7,176.8-7.4,353.1-12,484.7c0,0.2,0,0.5,0,0.7
		c-0.1,4.1-0.3,8.1-0.4,12.1c-1.9,53.5-4,99.6-6.1,141.3c-0.2,4.1-0.4,8.1-0.6,12.1l12.1,0c0.2-4,0.4-8,0.6-12.1h0
		c2.2-42,4.2-88.4,6.2-142.4c0.1-3.1,0.2-6.3,0.3-9.5v0c0-0.6,0-1.1,0.1-1.7c4.5-130.1,8.2-303.9,11.8-478.5
		c0.1-3.3,0.1-6.5,0.2-9.8c0.1-3.3-2.6-6.1-5.9-6.1C1373,1440.2,1372.9,1440.2,1372.9,1440.2z M1364.6,1946.8
		c-0.5,0.1-1,0.2-1.6,0.2h0c-2.3,0-4.6,0-6.9,0v0c2.3,0,4.6,0,6.9,0C1363.5,1947,1364.1,1946.9,1364.6,1946.8z"/>
	<path d="M1265.3,1283.6l40.8,54.4c2,2.7,1.5,6.4-1.2,8.4c-2.7,2-6.4,1.5-8.4-1.2l-40.8-54.4c-2-2.7-1.5-6.4,1.2-8.4
		C1259.5,1280.4,1263.3,1281,1265.3,1283.6z"/>
	<path d="M396.5,1930L396.5,1930c64.2,1.7,128.4,3.5,289.4,4.3c112.1,0.6,271.1,0.7,444.4,0.7l232.6-0.1c3.3,0,6,2.7,6,6
		c0,3.3-2.7,6-6,6l-232.6,0.1c-173.3,0-332.4-0.1-444.5-0.7c-161.1-0.8-225.4-2.5-289.7-4.3h0c-3.3-0.1-5.9-2.9-5.9-6.2
		C390.4,1932.5,393.2,1929.9,396.5,1930z"/>
	<path d="M558.1,830.1l1.1,457.2c0,3.3-2.7,6-6,6c-3.3,0-6-2.7-6-6L546,830.1c0-3.3,2.7-6,6-6C555.3,824,558,826.7,558.1,830.1z"/>
	<path d="M2849.7,1283.4c-1.1,0-2.2,0.3-3.2,0.9l-18.8,11.9l-96.7,61.2c-1.7,1.1-2.7,2.9-2.8,4.9l-3.6,113.4
		c-43.8-0.8-87.5-1.7-131.1-2.5c-4-0.1-8-0.2-12-0.2h0l0,12.1h0c4,0.1,8,0.1,12,0.2c45.4,0.9,91.1,1.7,136.8,2.6c0,0,0.1,0,0.1,0
		c3.2,0,5.9-2.6,6-5.8l3.7-116.2l110.2-69.8h0l2.5-1.6c1.5-0.9,2.4-2.4,2.7-3.9h0c0,0,0-0.1,0-0.1c0.1-0.6,0.1-1.3,0-1.9
		c-0.1-0.8-0.4-1.6-0.9-2.4C2853.7,1284.4,2851.7,1283.4,2849.7,1283.4z M2855.7,1288.6L2855.7,1288.6L2855.7,1288.6z"/>
	<path d="M2503.6,1471.6l0,12.1c4,0.1,8,0.1,12,0.2l0.1-12.1c-0.5,0-1,0-1.5,0h0c0.5,0,1,0,1.5,0
		C2511.7,1471.7,2507.7,1471.6,2503.6,1471.6L2503.6,1471.6z"/>
	<path d="M1669.7,1469.2c0.4,0,0.7,0,1.1,0C1670.4,1469.3,1670.1,1469.3,1669.7,1469.2z"/>
	<path d="M1658.5,1457.1l0.2,12.1c0.9,0,1.9,0,2.8,0c2.5,0,5,0.1,7.5,0.1c0,0,0,0,0,0c-0.1,0-0.1,0-0.1,0c0,0,0,0,0,0
		c0,0,0.1,0,0.1,0c0.1,0,0.2,0,0.3,0c0.1,0,0.3,0,0.4,0c0.4,0,0.7,0,1.1,0c183.4,2.3,496.4,8,832.8,14.4l0-12.1
		c-336.9-6.4-650.3-12.1-833.6-14.4c-0.1,0-0.3,0-0.4,0h0c-0.1,0-0.2,0-0.3,0c0.1,0,0.1,0,0.2,0c-0.1,0-0.1,0-0.2,0s-0.1,0-0.2,0h0
		c0,0,0.1,0,0.1,0c0,0,0,0,0,0h0c-0.1,0-0.1,0-0.2,0c0,0,0.1,0,0.1,0v0c0,0-0.1,0-0.1,0c-0.1,0-0.1,0-0.2,0c-2.4,0-4.8-0.1-7.2-0.1
		C1660.6,1457.1,1659.6,1457.1,1658.5,1457.1z"/>
	<path d="M1503.9,1456c-45.1,0.1-68.7,0.8-83.4,1.7c-4.9,0.3-8.8,0.6-12.1,1c-3.9,0.4-7,0.8-10.1,1.2l-0.3,0
		c-2.3,0.3-4.2,1.9-4.9,4.1c-0.3,0.9-0.4,1.8-0.3,2.7c0.4,3,3,5.2,6,5.2c0.3,0,0.5,0,0.8-0.1l0.3,0c1.9-0.3,3.9-0.5,6-0.8l-0.2-0.1
		l0.2,0.1c3.7-0.4,8-0.9,13.7-1.3v-1.4v1.4c0.5,0,1.1-0.1,1.6-0.1c14.4-0.9,37.7-1.6,82.6-1.7c22.5-0.1,50.3,0.1,85.1,0.3
		c3.9,0,7.9,0.1,12.1,0.1l0.5-12.1c-4.1,0-8.1-0.1-12.1-0.1C1554.5,1456.1,1526.5,1456,1503.9,1456z"/>
	<path d="M1576.9,2099.6l-12.1,0L1576.9,2099.6z"/>
	<path d="M1595.5,1297l-6.1,159.4l-0.5,12.1l-23.7,619.1l-0.4,12.1l12.1,0l0.5-12.1v0v0l23.7-619l0.5-12.1l6.1-159.5L1595.5,1297z"
		/>
	<path d="M1596,1284.9l-0.5,12l12.1,0l0.5-12L1596,1284.9z"/>
	<path d="M1682.6,2087.1l-12.1,0l0.2,12l12.1,0L1682.6,2087.1z"/>
	<path d="M1655.2,1285l0.2,12.1l3,160l0.2,12.1l1,51.5l0.2,12.1l10.6,554.5l12.1,0l-10.5-553.9l-0.2-12.1c-1,0-1.9-0.1-2.9-0.1v0
		c1,0,1.9,0.1,2.9,0.1l-1-51.9c-1.5,0-3,0-4.5-0.1c1.5,0,3,0,4.5,0.1l-0.2-12.1c-1.5,0-2.9,0-4.3-0.1c1.4,0,2.9,0,4.3,0.1l-3-160.1
		l-0.2-12L1655.2,1285z"/>
	<path d="M2516.5,1285.1l-12,0l-0.1,12.1l-0.7,174.4l0,12.1l-0.3,63.8l-0.1,12.1l-2.2,524.9l-0.1,12l12.1,0l0.1-12.1l2.2-524.6
		l0-4.2l0-3.4l0-3.1l0-1.4l0.3-63.8c-1.1,0-2.2,0-3.3-0.1h0h0c-1.1,0-2.1,0-3.2-0.1h0c2.1,0,4.3,0.1,6.5,0.1l0.1-12.1
		c-0.8,0-1.7,0-2.5-0.1h0c0.8,0,1.6,0,2.5,0.1l0.7-174.6L2516.5,1285.1z"/>
	<path d="M2593.1,1296.9l-12.1,0l0.5,176.1l0,12.1l1.7,598.9l0,12.1l12.1,0l0-12.1l-1.7-598.7h0h0c-1.4,0-2.8,0-4.2-0.1h0
		c1.4,0,2.8,0.1,4.2,0.1l0-12c-1.4,0-2.8-0.1-4.2-0.1h0c1.4,0,2.8,0.1,4.2,0.1L2593.1,1296.9z"/>
	<path d="M2593.1,1284.9l-12.1,0l0,12.1l12.1,0L2593.1,1284.9z"/>
	<path d="M2515.4,1554.7v0.7l0,3.7L2515.4,1554.7z"/>
	<path d="M2515.4,1547.6l0,7.1l0-5.8L2515.4,1547.6z"/>
	<path d="M2503.3,1547.4l-0.1,12.1c4,0.1,8,0.1,12.1,0.2l0.1-12C2511.4,1547.5,2507.4,1547.4,2503.3,1547.4L2503.3,1547.4z"/>
	<path d="M1659.7,1520.6l0.2,12.1c4,0.2,8,0.4,12.1,0.5l-0.2-12.1l0.2,12.1c137.4,6.1,275.3,12.1,415.6,16.5
		c136.8,4.3,276.1,7.1,415.6,9.7l0.1-12.1c-139.5-2.6-278.6-5.4-415.3-9.7c-140.6-4.4-278.7-10.4-416.4-16.6c-0.3,0-0.6,0-0.9,0
		C1667,1520.9,1663.4,1520.8,1659.7,1520.6z"/>
	<path d="M404.9,1422.1c7.8-0.8,15.6-1.5,168.9-5.9c153.5-4.4,453.1-12.5,752.6-20.5c3.3-0.1,6.1,2.5,6.2,5.9
		c0.1,3.3-2.5,6.1-5.9,6.2c-299.6,8.1-599,16.1-752.6,20.5c-153.7,4.4-160.9,5.1-168.1,5.8c-3.3,0.3-6.3-2.1-6.6-5.4
		C399.2,1425.3,401.6,1422.4,404.9,1422.1z"/>
	<path d="M1266.3,1187.1l0,100.2c0,3.3-2.7,6-6,6c-3.3,0-6-2.7-6-6l0-100.2c0-3.3,2.7-6,6-6
		C1263.6,1181,1266.3,1183.7,1266.3,1187.1z"/>
	<path d="M2667.7,1474.7C2667.7,1474.7,2667.7,1474.7,2667.7,1474.7c0,4.1,0.1,8.1,0.1,12.1c1.2,118,2.7,235.9,5.8,352.9
		c2.1,81.7,5.1,163,8.3,244.1h0h0l0,0h0h0h0c0.2,4,0.3,8,0.5,12l12.1,0l0,0c-0.2-4-0.3-8-0.5-12.1c-3.3-81.2-6.2-162.5-8.3-244.3
		c-3.1-116.8-4.5-234.5-5.7-352.4h0c-0.8,0-1.6,0-2.4,0c-0.2,0-0.5,0-0.7,0h0c0.2,0,0.5,0,0.7,0h0c0.8,0,1.6,0,2.4,0
		c0-3.9-0.1-7.8-0.1-11.7h0l-5.9-0.3l5.9,0.3c0-0.1,0-0.2,0-0.3h0c-0.5,0-1,0-1.5,0h0c0.3,0,0.5,0,0.8,0
		C2675.3,1474.8,2671.5,1474.8,2667.7,1474.7L2667.7,1474.7z"/>
	<path d="M2581.5,1459l0,12.1l12.1,0.5l0-12.1L2581.5,1459z"/>
	<path d="M2673.7,1462.9l5.9,0.3L2673.7,1462.9z"/>
	<path d="M2673.7,1462.9l5.9,0.3L2673.7,1462.9z"/>
	<path d="M2673.7,1462.9l5.9,0.3L2673.7,1462.9z"/>
	<path d="M3630.9,1938.1l-12.1,0.2l-0.2,12.1l12.1-0.2L3630.9,1938.1z"/>
	<path d="M402.4,1931.2c-3.2,0-5.9,2.5-6,5.8c-0.1,3.3,2.5,6.1,5.8,6.3c1.3,0.1,2.7,0.1,4,0.2l0-1h0h0l0,1h0
		c68.3,2.7,138.5,5.3,301.6,6.5c156.8,1.1,399.1,0.8,646.5,0.4l0,0c4,0,8,0,12.1,0v0c11.2,0,22.4,0,33.6-0.1l0.3,0l7.1-0.4l12.1-0.6
		l151.6-7.9v0v0l0.8,0l11.2,0.1l84.8,1.1l12.1,0.2v0l-0.2-12.1l-12.1-0.2l-84.1-1.1l-11.7-0.2l-0.3,0h-0.1l-151.9,7.9v0l-12.1,0.6
		l-7.6,0.4c-10.5,0-21,0-31.4,0.1c-0.5,0-1,0-1.5,0c-4,0-8,0-12.1,0c0,0,0,0,0,0c0,0,0,0,0,0c-247.5,0.4-490.2,0.7-646.9-0.4
		c-166.2-1.2-235.7-3.9-305.2-6.6C402.5,1931.2,402.4,1931.2,402.4,1931.2z M1356.8,1947c0.1,0,0.2,0,0.3,0v0
		C1357,1947,1356.9,1947,1356.8,1947L1356.8,1947z M1359.5,1947c0.7,0,1.4,0,2,0c0.4,0,0.8,0,1.1,0
		C1361.6,1947,1360.6,1947,1359.5,1947z"/>
	<path d="M1679.6,1930.6l0.2,12.1l204.1,2.7l4.5,0.1l6.2,0.1l164,2.1l12,0.2l81.6,1.1l69.7,1.8l3.9,0.1l8.2,0.2l267.7,6.9l12.1,0.3
		l69.2,1.8l12,0.3l82.4,2.1l0,0l12,0.3v0h0l1.6,0l0.2,0l927.4-12.4l0.2-12.1l-927.6,12.4l-2.2-0.1v0l-12.1-0.3h0v0l-82-2.1
		l-12.1-0.3l-69.1-1.8l-12.1-0.3l-267.1-6.9l-12-0.3l-70-1.8h-0.1l-92.4-1.2l-1,0l-164.3-2.1l-12.1-0.2L1679.6,1930.6z"/>
	<path d="M1364.7,1946.8C1364.6,1946.8,1364.6,1946.8,1364.7,1946.8c-0.3,0.1-0.5,0.1-0.8,0.2v0
		C1364.1,1946.9,1364.4,1946.8,1364.7,1946.8C1364.6,1946.8,1364.6,1946.8,1364.7,1946.8z"/>
	<path d="M2245.4,1584.2l-353.9,0.9c-3.3,0-6,2.7-6,6l-2.8,342.2l-0.1,12.1l12.1,0.2l0.1-12l2.8-336.3l172.1-0.4l12.1,0l157.5-0.4
		l-16.6,342.3l-0.6,12l12.1,0.3l0.6-12l16.9-348.4c0.1-1.6-0.5-3.3-1.7-4.4C2248.6,1584.9,2247,1584.2,2245.4,1584.2z"/>
	<path d="M2082,1584.6l-12.1,0l-0.4,12.1l-10.6,338.9l12.1,0.2l10.6-339.1L2082,1584.6z"/>
	<path d="M2059,1935.6l-0.4,12l12,0.2l0.4-12l-8.7-0.1L2059,1935.6z"/>
	<path d="M684,1464.7l93.8-0.2c3.3,0,6,2.7,6,6l0.4,169.9c0,3.3-2.7,6-6,6l-93.8,0.2c-1.6,0-3.1-0.6-4.3-1.8
		c-1.1-1.1-1.8-2.6-1.8-4.3l-0.4-169.9c0-1.6,0.6-3.1,1.8-4.3C680.9,1465.4,682.4,1464.7,684,1464.7 M684,1476.8l6-6l0.4,169.9l-6-6
		l93.7-0.2l-6,6l-0.4-169.9l6,6L684,1476.8z"/>
	<path d="M466.7,1707.3l93.7-0.2c3.3,0,6,2.7,6,6l0.4,169.9c0,3.3-2.7,6-6,6l-93.7,0.2c-1.6,0-3.1-0.6-4.3-1.8
		c-1.1-1.1-1.8-2.7-1.8-4.3l-0.4-169.9c0-1.6,0.6-3.1,1.8-4.3C463.6,1707.9,465.1,1707.3,466.7,1707.3 M466.8,1719.3l6-6l0.4,169.9
		l-6-6l93.7-0.2l-6,6l-0.4-169.9l6,6L466.8,1719.3z"/>
	<path d="M839.7,1737.7l93.8-0.2c3.3,0,6,2.7,6,6l0.4,169.9c0,3.3-2.7,6-6,6l-93.8,0.2c-1.6,0-3.1-0.6-4.3-1.8
		c-1.1-1.1-1.8-2.7-1.8-4.3l-0.4-169.9c0-1.6,0.6-3.1,1.8-4.3C836.6,1738.3,838.1,1737.7,839.7,1737.7 M839.8,1749.7l6-6l0.4,169.9
		l-6-6l93.7-0.2l-6,6l-0.4-169.9l6,6L839.8,1749.7z"/>
	<path d="M1029.6,1498l93.8-0.2c3.3,0,6,2.7,6,6l0.4,169.9c0,3.3-2.7,6-6,6l-93.8,0.2c-1.6,0-3.1-0.6-4.3-1.8
		c-1.1-1.1-1.8-2.7-1.8-4.3l-0.4-169.9c0-1.6,0.6-3.1,1.8-4.3C1026.5,1498.6,1028,1498,1029.6,1498 M1029.7,1510l6-6l0.4,169.9l-6-6
		l93.8-0.2l-6,6l-0.4-169.9l6,6L1029.7,1510z"/>
	<path d="M1175,1727.3l93.7-0.2c3.3,0,6,2.7,6,6l0.4,169.9c0,3.3-2.7,6-6,6l-93.8,0.2c-1.6,0-3.1-0.6-4.3-1.8
		c-1.1-1.1-1.8-2.7-1.8-4.3l-0.4-169.9c0-1.6,0.6-3.1,1.8-4.3C1171.8,1728,1173.4,1727.3,1175,1727.3 M1175,1739.4l6-6l0.4,169.9
		l-6-6l93.8-0.2l-6,6l-0.4-169.9l6,6L1175,1739.4z"/>
	<path d="M2971.4,1431l93.8-0.2c3.3,0,6,2.7,6,6l0.4,169.9c0,3.3-2.7,6-6,6l-93.8,0.2c-1.6,0-3.1-0.6-4.3-1.8s-1.8-2.7-1.8-4.3
		l-0.4-169.9c0-1.6,0.6-3.1,1.8-4.3C2968.2,1431.7,2969.8,1431,2971.4,1431 M2971.4,1443.1l6-6l0.4,169.9l-6-6l93.8-0.2l-6,6
		l-0.4-169.9l6,6L2971.4,1443.1z"/>
	<path d="M2754.1,1673.6l93.8-0.2c3.3,0,6,2.7,6,6l0.4,169.9c0,3.3-2.7,6-6,6l-93.8,0.2c-1.6,0-3.1-0.6-4.3-1.8
		c-1.1-1.1-1.8-2.7-1.8-4.3l-0.4-169.9c0-1.6,0.6-3.1,1.8-4.3C2751,1674.2,2752.5,1673.6,2754.1,1673.6 M2754.2,1685.6l6-6
		l0.4,169.9l-6-6l93.8-0.2l-6,6l-0.4-169.9l6,6L2754.2,1685.6z"/>
	<path d="M3127.1,1704l93.7-0.2c3.3,0,6,2.7,6,6l0.4,169.9c0,3.3-2.7,6-6,6l-93.8,0.2c-1.6,0-3.1-0.6-4.3-1.8
		c-1.1-1.1-1.8-2.7-1.8-4.3l-0.4-169.9c0-1.6,0.6-3.1,1.8-4.3C3124,1704.6,3125.5,1704,3127.1,1704 M3127.1,1716l6-6l0.4,169.9l-6-6
		l93.8-0.2l-6,6l-0.4-169.9l6,6L3127.1,1716z"/>
	<path d="M3317,1464.3l93.8-0.2c3.3,0,6,2.7,6,6l0.4,169.9c0,3.3-2.7,6-6,6l-93.7,0.2c-1.6,0-3.1-0.6-4.3-1.8
		c-1.1-1.1-1.8-2.7-1.8-4.3l-0.4-169.9c0-1.6,0.6-3.1,1.8-4.3C3313.9,1464.9,3315.4,1464.3,3317,1464.3 M3317.1,1476.3l6-6
		l0.4,169.9l-6-6l93.8-0.2l-6,6l-0.4-169.9l6,6L3317.1,1476.3z"/>
	<path d="M3462.3,1693.6l93.8-0.2c3.3,0,6,2.7,6,6l0.4,169.9c0,3.3-2.7,6-6,6l-93.8,0.2c-1.6,0-3.1-0.6-4.3-1.8
		c-1.1-1.1-1.8-2.7-1.8-4.3l-0.4-169.9c0-1.6,0.6-3.1,1.8-4.3C3459.2,1694.3,3460.7,1693.6,3462.3,1693.6 M3462.4,1705.7l6-6
		l0.4,169.9l-6-6l93.7-0.2l-6,6l-0.4-169.9l6,6L3462.4,1705.7z"/>
	<path d="M675.3,859.9l100.2-0.2c3.3,0,6,2.7,6,6l0.4,164.5c0,3.3-2.7,6-6,6l-100.2,0.2c-1.6,0-3.1-0.6-4.3-1.8
		c-1.1-1.1-1.8-2.7-1.8-4.3L669.2,866c0-1.6,0.6-3.1,1.8-4.3C672.1,860.6,673.7,859.9,675.3,859.9 M675.3,872l6-6l0.4,164.5l-6-6
		l100.2-0.2l-6,6l-0.4-164.5l6,6L675.3,872z"/>
	<path d="M880,862.3l104.4-0.2c3.3,0,6,2.7,6,6l0.4,168.6c0,3.3-2.7,6-6,6l-104.4,0.2c-1.6,0-3.1-0.6-4.3-1.8
		c-1.1-1.1-1.8-2.6-1.8-4.3L874,868.4c0-1.6,0.6-3.1,1.8-4.3C876.9,863,878.4,862.3,880,862.3 M880.1,874.4l6-6l0.4,168.6l-6-6
		l104.4-0.2l-6,6l-0.4-168.6l6,6L880.1,874.4z"/>
	<path d="M1096,866.3l95.5,3.4c3.3,0.1,5.9,2.9,5.8,6.2l-6.2,174.2c-0.1,3.3-2.9,5.9-6.2,5.8l-95.5-3.4c-1.6-0.1-3.1-0.8-4.2-1.9
		c-1.1-1.2-1.7-2.7-1.6-4.3l6.2-174.2c0.1-1.6,0.8-3.1,1.9-4.2C1092.8,866.8,1094.4,866.3,1096,866.3 M1095.5,878.4l6.2-5.8
		l-6.2,174.2l-5.8-6.2l95.5,3.4l-6.2,5.8l6.2-174.2l5.8,6.2L1095.5,878.4z"/>
	<path d="M1310.8,870.9l86.4-0.2c3.3,0,6,2.7,6,6l0.4,172.9c0,3.3-2.7,6-6,6l-86.4,0.2c-1.6,0-3.1-0.6-4.3-1.8
		c-1.1-1.1-1.8-2.7-1.8-4.3l-0.4-172.9c0-1.6,0.6-3.1,1.8-4.3C1307.7,871.6,1309.2,870.9,1310.8,870.9 M1310.9,883l6-6l0.4,172.9
		l-6-6l86.4-0.2l-6,6l-0.4-172.9l6,6L1310.9,883z"/>
	<path d="M673.2,1079.8l100.2-0.2c3.3,0,6,2.7,6,6l0.4,164.5c0,3.3-2.7,6-6,6l-100.2,0.2c-1.6,0-3.1-0.6-4.3-1.8
		c-1.1-1.1-1.8-2.7-1.8-4.3l-0.4-164.5c0-1.6,0.6-3.1,1.8-4.3C670,1080.5,671.6,1079.8,673.2,1079.8 M673.2,1091.9l6-6l0.4,164.5
		l-6-6l100.2-0.2l-6,6l-0.4-164.5l6,6L673.2,1091.9z"/>
	<path d="M877.9,1082.2l104.4-0.2c3.3,0,6,2.7,6,6l0.4,168.6c0,3.3-2.7,6-6,6l-104.4,0.2c-1.6,0-3.1-0.6-4.3-1.8
		c-1.1-1.1-1.8-2.7-1.8-4.3l-0.4-168.6c0-1.6,0.6-3.1,1.8-4.3C874.8,1082.9,876.3,1082.2,877.9,1082.2 M878,1094.3l6-6l0.4,168.6
		l-6-6l104.4-0.2l-6,6l-0.4-168.6l6,6L878,1094.3z"/>
	<path d="M1093.9,1086.2l95.5,3.4c3.3,0.1,5.9,2.9,5.8,6.2L1189,1270c-0.1,3.3-2.9,5.9-6.2,5.8l-95.5-3.4c-1.6-0.1-3.1-0.7-4.2-1.9
		c-1.1-1.2-1.7-2.7-1.6-4.3l6.2-174.2c0.1-1.6,0.7-3.1,1.9-4.2C1090.7,1086.7,1092.3,1086.2,1093.9,1086.2 M1093.4,1098.3l6.2-5.8
		l-6.2,174.2l-5.8-6.2l95.5,3.4l-6.2,5.8l6.2-174.2l5.8,6.2L1093.4,1098.3z"/>
	<path d="M1776.2,869c-2.6,0-5,1.1-6.9,2.9c-1.9,1.8-2.9,4.4-2.9,7l-0.9,218.7l19.8,0.1l0.9-208.8l122.5,0.5l-0.9,209.3l-0.1,12
		l19.9,0.2l0.1-12.1l0.9-219.3c0-5.5-4.4-9.9-9.9-10l-142.3-0.6C1776.3,869,1776.2,869,1776.2,869z"/>
	<path d="M1765.4,1097.6l-0.1,12.1l19.8,0.1l0.1-12L1765.4,1097.6z"/>
	<path d="M2892.6,896l100.2-0.2c3.3,0,6,2.7,6,6l0.4,164.5c0,3.3-2.7,6-6,6l-100.2,0.2c-1.6,0-3.1-0.6-4.3-1.8
		c-1.1-1.1-1.8-2.7-1.8-4.3l-0.4-164.5c0-1.6,0.6-3.1,1.8-4.3C2889.4,896.7,2891,896,2892.6,896 M2892.6,908.1l6-6l0.4,164.5l-6-6
		l100.2-0.2l-6,6l-0.4-164.5l6,6L2892.6,908.1z"/>
	<path d="M3097.3,898.4l104.4-0.2c3.3,0,6,2.7,6,6l0.4,168.6c0,3.3-2.7,6-6,6l-104.4,0.2c-1.6,0-3.1-0.6-4.3-1.8
		c-1.1-1.1-1.8-2.7-1.8-4.3l-0.4-168.6c0-1.6,0.6-3.1,1.8-4.3C3094.2,899.1,3095.7,898.4,3097.3,898.4 M3097.4,910.5l6-6l0.4,168.6
		l-6-6l104.4-0.2l-6,6l-0.4-168.6l6,6L3097.4,910.5z"/>
	<path d="M3313.3,902.4l95.5,3.4c3.3,0.1,5.9,2.9,5.8,6.2l-6.2,174.2c-0.1,3.3-2.9,5.9-6.2,5.8l-95.5-3.4c-1.6-0.1-3.1-0.8-4.2-1.9
		c-1.1-1.2-1.7-2.7-1.6-4.3l6.2-174.2c0.1-1.6,0.7-3.1,1.9-4.2C3310.1,902.9,3311.7,902.4,3313.3,902.4 M3312.8,914.4l6.2-5.8
		l-6.2,174.2l-5.8-6.2l95.5,3.4l-6.2,5.8l6.2-174.2l5.8,6.2L3312.8,914.4z"/>
	<path d="M3528.1,907l86.4-0.2c3.3,0,6,2.7,6,6l0.4,172.9c0,3.3-2.7,6-6,6l-86.4,0.2c-1.6,0-3.1-0.6-4.3-1.8
		c-1.1-1.1-1.8-2.6-1.8-4.3l-0.4-172.9c0-1.6,0.6-3.1,1.8-4.3C3525,907.7,3526.5,907,3528.1,907 M3528.1,919.1l6-6l0.4,172.9l-6-6
		l86.4-0.2l-6,6l-0.4-172.9l6,6L3528.1,919.1z"/>
	<path d="M2890.5,1115.9l100.2-0.2c3.3,0,6,2.7,6,6l0.4,164.5c0,3.3-2.7,6-6,6l-100.2,0.2c-1.6,0-3.1-0.6-4.3-1.8
		c-1.1-1.1-1.8-2.7-1.8-4.3l-0.4-164.5c0-1.6,0.6-3.1,1.8-4.3C2887.3,1116.6,2888.9,1115.9,2890.5,1115.9 M2890.5,1128l6-6
		l0.4,164.5l-6-6l100.2-0.2l-6,6l-0.4-164.5l6,6L2890.5,1128z"/>
	<path d="M3095.2,1118.3l104.4-0.2c3.3,0,6,2.7,6,6l0.4,168.6c0,3.3-2.7,6-6,6l-104.4,0.2c-1.6,0-3.1-0.6-4.3-1.8
		c-1.1-1.1-1.8-2.7-1.8-4.3l-0.4-168.6c0-1.6,0.6-3.1,1.8-4.3S3093.6,1118.3,3095.2,1118.3 M3095.3,1130.4l6-6l0.4,168.6l-6-6
		l104.4-0.2l-6,6l-0.4-168.6l6,6L3095.3,1130.4z"/>
	<path d="M3311.2,1122.3l95.5,3.4c3.3,0.1,5.9,2.9,5.8,6.2l-6.2,174.2c-0.1,3.3-2.9,5.9-6.2,5.8l-95.5-3.4c-1.6-0.1-3.1-0.8-4.2-1.9
		c-1.1-1.2-1.7-2.7-1.6-4.3l6.2-174.2c0.1-1.6,0.8-3.1,1.9-4.2C3308,1122.8,3309.6,1122.2,3311.2,1122.3 M3310.7,1134.3l6.2-5.8
		l-6.2,174.2l-5.8-6.2l95.5,3.4l-6.2,5.8l6.2-174.2l5.8,6.2L3310.7,1134.3z"/>
	<path d="M3526,1126.9l86.4-0.2c3.3,0,6,2.7,6,6l0.4,172.9c0,3.3-2.7,6-6,6l-86.4,0.2c-1.6,0-3.1-0.6-4.3-1.8
		c-1.1-1.1-1.8-2.7-1.8-4.3L3520,1133c0-1.6,0.6-3.1,1.8-4.3C3522.9,1127.6,3524.4,1126.9,3526,1126.9 M3526.1,1139l6-6l0.4,172.9
		l-6-6l86.4-0.2l-6,6l-0.4-172.9l6,6L3526.1,1139z"/>
	<path d="M2076.9,865.2c-2.6,0-5,1.1-6.9,2.9c-1.9,1.9-2.9,4.4-2.9,7l-1,225.5l-0.1,12.1l19.8,0.2l0.1-16.3l0.9-211.5l122.5,0.5
		l-0.9,216.6l-0.1,12.1l19.8,0.2l0.1-12.1l1-226.7c0-5.5-4.4-9.9-9.9-10l-142.4-0.6C2077,865.2,2077,865.2,2076.9,865.2z"/>
	<path d="M2546.5,1106.3l-0.1,12l19.8,0l0.1-12L2546.5,1106.3z"/>
	<path d="M2414.9,860.9c-2.6,0-5,1.1-6.9,2.9c-1.9,1.8-2.9,4.4-2.9,7l-1,233.8l-0.1,12.1l19.8,0.2l0.1-12.1l1-224l122.5,0.5
		l-1,224.9l19.8,0l1-234.7c0-5.5-4.4-9.9-9.9-10l-142.3-0.6C2415,860.9,2415,860.9,2414.9,860.9z"/>
	<path d="M1519.7,51.4c-1.4,0-2.7,0.5-3.7,1.5c-1,1-1.5,2.3-1.5,3.7v589.9l10.4,0.1V61.8h901v601.2l10.4,0.2V56.6
		c0-2.9-2.3-5.2-5.2-5.2H1519.7z"/>
	<path d="M2024.1,388.6l-10.4,0v153.9h-82V388.7l-10.4,0v159c0,1.4,0.6,2.7,1.5,3.7c1,1,2.3,1.5,3.7,1.5h92.4c2.9,0,5.2-2.3,5.2-5.2
		V388.6z"/>
	<path d="M1926.5,164.6c-1.4,0-2.7,0.6-3.7,1.5c-1,1-1.5,2.3-1.5,3.7V311l10.4,0V175l82,0v136l10.4,0V169.8c0-2.9-2.3-5.2-5.2-5.2
		H1926.5z"/>
	<path d="M1931.7,301.2l-10.4,0l-130,0.1c-1.3,0-2.6,0.5-3.5,1.4c-0.9,0.9-1.4,2.2-1.4,3.5l0.1,87.5c0,2.7,2.2,4.9,4.9,4.9l130-0.1
		l10.4,0v-9.8l-10.4,0l-125,0.1l-0.1-77.7l125.1-0.1l10.4,0V301.2z"/>
	<path d="M2149.3,301l-125.1,0.1l-10.4,0v9.9l10.4,0l120.2-0.1l0.1,77.7l-120.3,0.1l-10.4,0v9.8h10.4l125.2-0.1
		c2.7,0,4.9-2.2,4.9-4.9l-0.1-87.5c0-1.3-0.5-2.6-1.4-3.5C2151.8,301.5,2150.6,301,2149.3,301z"/>
</g>
</svg>
