<?xml version="1.0" encoding="utf-8"?>
<!-- Generator: Adobe Illustrator 24.1.0, SVG Export Plug-In . SVG Version: 6.00 Build 0)  -->
<svg version="1.1" id="Layer_1" xmlns="http://www.w3.org/2000/svg" xmlns:xlink="http://www.w3.org/1999/xlink" x="0px" y="0px"
	 viewBox="0 0 500 500" style="enable-background:new 0 0 500 500;" xml:space="preserve">
<style type="text/css">
	.st0{fill:#FFFFFF;}
	.st1{fill:#EBF7FF;}
	.st2{fill:#F2FCFF;}
	.st3{fill:none;stroke:#213D8C;stroke-width:1.5;stroke-linecap:round;stroke-linejoin:round;}
	.st4{fill:#D6EAFF;}
	.st5{fill:#BADBF7;}
	.st6{fill:#FF879F;stroke:#213D8C;stroke-width:1.5;stroke-linecap:round;stroke-linejoin:round;}
	.st7{fill:#FFFFFF;stroke:#2647A3;stroke-width:1.5;stroke-linecap:round;stroke-linejoin:round;}
	.st8{fill:#BADBF7;stroke:#2647A3;stroke-width:1.5;stroke-linecap:round;stroke-linejoin:round;}
	.st9{fill:#FFFFFF;stroke:#213D8C;stroke-width:1.5;stroke-linecap:round;stroke-linejoin:round;}
	.st10{fill:#A7D678;}
	.st11{fill:#64B05B;}
	.st12{fill:none;stroke:#2647A3;stroke-width:1.5;stroke-linecap:round;stroke-linejoin:round;}
	.st13{fill:#A7D678;stroke:#2647A3;stroke-width:1.5;stroke-linecap:round;stroke-linejoin:round;}
	.st14{fill:#FFD373;stroke:#2647A3;stroke-width:1.5;stroke-linecap:round;stroke-linejoin:round;}
	.st15{fill:#2862CD;stroke:#2647A3;stroke-width:1.5;stroke-linecap:round;stroke-linejoin:round;}
	.st16{fill:#2E7EFB;stroke:#2647A3;stroke-width:1.5;stroke-linecap:round;stroke-linejoin:round;}
	.st17{fill:#F2FCFF;stroke:#2647A3;stroke-width:1.5;stroke-linecap:round;stroke-linejoin:round;}
	.st18{fill:none;stroke:#2647A3;stroke-width:0.75;stroke-linecap:round;stroke-linejoin:round;}
	.st19{fill:#2647A3;}
	.st20{font-family:'ArialMT';}
	.st21{font-size:6.9275px;}
	.st22{fill:#FF879F;stroke:#2647A3;stroke-width:1.5;stroke-linecap:round;stroke-linejoin:round;}
	.st23{fill:#213D8C;}
	.st24{font-size:19.6125px;}
</style>
<g id="BACKGROUND">
	<rect x="0" y="0" class="st0" width="500" height="500"/>
</g>
<g id="OBJECTS">
	<g>
		<path class="st1" d="M109.5,181.2c-1.7,0-3.3,0.2-4.9,0.5C98.9,170,86.9,161.8,73,161.8c-18.4,0-33.6,14.2-35.1,32.3
			c-1.1-0.2-2.2-0.3-3.3-0.3c-10.6,0-19.2,8.6-19.2,19.2c0,10.6,8.6,19.2,19.2,19.2c6.5,0,68.5,0,74.9,0c14.1,0,25.5-11.4,25.5-25.5
			C135.1,192.7,123.6,181.2,109.5,181.2z"/>
		<path class="st1" d="M457.4,212.1c-1.7,0-3.3,0.2-4.9,0.5c-5.7-11.8-17.7-19.9-31.7-19.9c-18.4,0-33.6,14.2-35.1,32.3
			c-1.1-0.2-2.2-0.3-3.3-0.3c-10.6,0-19.2,8.6-19.2,19.2c0,10.6,8.6,19.2,19.2,19.2c6.5,0,68.5,0,74.9,0c14.1,0,25.5-11.4,25.5-25.5
			C482.9,223.6,471.5,212.1,457.4,212.1z"/>
		<path class="st1" d="M173.3,337.2c-1.7,0-3.3,0.2-4.9,0.5c-5.7-11.8-17.7-19.9-31.7-19.9c-18.4,0-33.6,14.2-35.1,32.3
			c-1.1-0.2-2.2-0.3-3.3-0.3c-10.6,0-19.2,8.6-19.2,19.2c0,10.6,8.6,19.2,19.2,19.2c6.5,0,68.5,0,74.9,0c14.1,0,25.5-11.4,25.5-25.5
			C198.8,348.7,187.4,337.2,173.3,337.2z"/>
		<g>
			<g>
				<path class="st2" d="M310,409.6l0-3.9c0-7-25-13.8-25-32.9c0-9,0-25.1,0-25.1H215c0,0,0,16,0,25.1c0,19.1-25,25.9-25,32.9l0,3.9
					L310,409.6z"/>
				<line class="st3" x1="190" y1="405.8" x2="310" y2="405.8"/>
				<path class="st4" d="M285,373.4c0-0.2,0-0.4,0-0.6c0-9,0-25.1,0-25.1H215c0,0,0,16,0,25.1c0,5.2-1.9,9.5-4.6,13.1L285,373.4z"/>
				<path class="st3" d="M310,409.6l0-3.9c0-7-25-13.8-25-32.9c0-9,0-25.1,0-25.1H215c0,0,0,16,0,25.1c0,19.1-25,25.9-25,32.9l0,3.9
					L310,409.6z"/>
			</g>
			<g id="XMLID_426_">
				<g>
					<path class="st5" d="M425.9,331.1l0,23.5c0,5.5-4.4,9.9-9.9,9.9l-332.1,0c-5.4,0-9.9-4.4-9.9-9.9l0-23.5L425.9,331.1z"/>
					<path class="st0" d="M425.9,151.5l0,179.6l-351.9,0l0-179.6c0-5.4,4.4-9.9,9.9-9.9l332.1,0
						C421.5,141.6,425.9,146.1,425.9,151.5z"/>
				</g>
				<g>
					<path class="st3" d="M425.9,331.1l0,23.5c0,5.5-4.4,9.9-9.9,9.9l-332.1,0c-5.4,0-9.9-4.4-9.9-9.9l0-23.5l0-179.6
						c0-5.4,4.4-9.9,9.9-9.9l332.1,0c5.5,0,9.9,4.4,9.9,9.9L425.9,331.1z"/>
					<line class="st3" x1="74.1" y1="331.1" x2="425.9" y2="331.1"/>
				</g>
			</g>
			<line class="st3" x1="74.1" y1="159" x2="425.9" y2="159"/>
			<g>
				<path class="st6" d="M93.6,150.3c0,1.4-1.1,2.5-2.5,2.5c-1.4,0-2.5-1.1-2.5-2.5c0-1.4,1.1-2.5,2.5-2.5
					C92.5,147.8,93.6,148.9,93.6,150.3z"/>
				<path class="st6" d="M109.2,150.3c0,1.4-1.1,2.5-2.5,2.5c-1.4,0-2.5-1.1-2.5-2.5c0-1.4,1.1-2.5,2.5-2.5
					C108.1,147.8,109.2,148.9,109.2,150.3z"/>
				<path class="st6" d="M124.8,150.3c0,1.4-1.1,2.5-2.5,2.5c-1.4,0-2.5-1.1-2.5-2.5c0-1.4,1.1-2.5,2.5-2.5
					C123.7,147.8,124.8,148.9,124.8,150.3z"/>
				<g>
					<line class="st3" x1="411.3" y1="148.3" x2="407.3" y2="152.3"/>
					<line class="st3" x1="411.3" y1="152.3" x2="407.3" y2="148.3"/>
				</g>
			</g>
		</g>
		<line class="st3" x1="46.1" y1="409.6" x2="454.1" y2="409.6"/>
		<g>
			<rect x="197.5" y="315.4" class="st7" width="104.9" height="5.3"/>
			<polygon class="st8" points="258.6,320.7 197.5,320.7 197.5,315.4 261.3,315.4 			"/>
		</g>
		<g>
			<circle class="st9" cx="416.3" cy="273.1" r="39.3"/>
			<g>
				<path class="st10" d="M416.3,303.2c13.8-3.3,23.5-11.5,23.5-22.3c0-5.1,0-18.4,0-24.5c-2.9,0-5.3-2.4-5.3-5.3c0-0.3,0-0.7,0.1-1
					c-11.5-2.6-18.3-4.8-18.3-4.8s-6.8,2.1-18.3,4.8c0.1,0.3,0.1,0.6,0.1,1c0,2.9-2.4,5.3-5.3,5.3c0,6.1,0,19.4,0,24.5
					C392.8,291.7,402.5,299.9,416.3,303.2z"/>
				<path class="st11" d="M398,250.1c0.1,0.3,0.1,0.6,0.1,1c0,2.9-2.4,5.3-5.3,5.3c0,6.1,0,19.4,0,24.5c0,10.8,9.7,19.1,23.5,22.3
					v-57.9C416.3,245.3,409.5,247.5,398,250.1z"/>
				<path class="st3" d="M416.3,303.2c13.8-3.3,23.5-11.5,23.5-22.3c0-5.1,0-18.4,0-24.5c-2.9,0-5.3-2.4-5.3-5.3c0-0.3,0-0.7,0.1-1
					c-11.5-2.6-18.3-4.8-18.3-4.8s-6.8,2.1-18.3,4.8c0.1,0.3,0.1,0.6,0.1,1c0,2.9-2.4,5.3-5.3,5.3c0,6.1,0,19.4,0,24.5
					C392.8,291.7,402.5,299.9,416.3,303.2z"/>
			</g>
			<g>
				<g>
					<g>
						<g>
							<path class="st9" d="M422.4,273.7c-1.3,0-2.3-1-2.3-2.3v-3.7c0-1.6-1.3-2.8-2.8-2.8h-1.9c-1.6,0-2.8,1.3-2.8,2.8v3.7
								c0,1.3-1,2.3-2.3,2.3c-1.3,0-2.3-1-2.3-2.3v-3.7c0-4.1,3.4-7.5,7.5-7.5h1.9c4.1,0,7.5,3.4,7.5,7.5v3.7
								C424.8,272.7,423.7,273.7,422.4,273.7z"/>
						</g>
					</g>
				</g>
				<path class="st9" d="M423.8,269.2h-15c-1.9,0-3.5,1.6-3.5,3.5v12.1c0,1.9,1.6,3.5,3.5,3.5h15c1.9,0,3.5-1.6,3.5-3.5v-12.1
					C427.3,270.8,425.8,269.2,423.8,269.2z M417.9,280.6l0.7,3.5h-4.5l0.7-3.5c-1.1-0.6-1.8-1.7-1.8-3c0-1.9,1.5-3.4,3.4-3.4
					c1.9,0,3.4,1.5,3.4,3.4C419.7,278.9,418.9,280,417.9,280.6z"/>
			</g>
		</g>
		<g>
			<path class="st7" d="M141.3,263.3h-52c-0.9,0-1.7-0.8-1.7-1.7V259c0-1.7-1.3-3-3-3H46.3c-1.7,0-3,1.3-3,3v2.5
				c0,0.9-0.8,1.7-1.7,1.7H41c-1.7,0-3,1.3-3,3v43.3c0,1.7,1.3,3,3,3h100.3c1.7,0,3-1.3,3-3v-43.3
				C144.3,264.6,142.9,263.3,141.3,263.3z"/>
			<g>
				<line class="st12" x1="84" y1="259" x2="80.8" y2="262.2"/>
				<line class="st12" x1="84" y1="262.2" x2="80.8" y2="259"/>
			</g>
			<g>
				<line class="st12" x1="44" y1="272" x2="139" y2="272"/>
				<circle class="st13" cx="57.2" cy="272" r="1.9"/>
			</g>
			<g>
				<line class="st12" x1="44" y1="282.6" x2="139" y2="282.6"/>
				<path class="st13" d="M93.1,282.6c0,1.1-0.9,1.9-1.9,1.9s-1.9-0.9-1.9-1.9c0-1.1,0.9-1.9,1.9-1.9
					C92.2,280.6,93.1,281.5,93.1,282.6z"/>
			</g>
			<g>
				<line class="st12" x1="44" y1="293.1" x2="139" y2="293.1"/>
				<circle class="st13" cx="125" cy="293.1" r="1.9"/>
			</g>
			<g>
				<line class="st12" x1="44" y1="303.7" x2="139" y2="303.7"/>
				<circle class="st13" cx="73.5" cy="303.7" r="1.9"/>
			</g>
		</g>
		<g>
			<path class="st7" d="M361.9,291.5c0,1.7-1.3,3-3,3H288c-1.7,0-3-1.3-3-3v-70.9c0-1.7,1.3-3,3-3h70.9c1.7,0,3,1.3,3,3L361.9,291.5
				L361.9,291.5z"/>
			<rect x="292" y="224.6" class="st8" width="62.9" height="52.2"/>
			<circle class="st14" cx="335.5" cy="246.2" r="13"/>
			<polygon class="st15" points="324,276.7 354.9,276.7 354.9,266.7 342.6,246.9 			"/>
			<polygon class="st16" points="311.6,238.4 292,269.7 292,276.7 335.5,276.7 			"/>
		</g>
		<g>
			<path class="st17" d="M266.9,303.6c0,1.7-1.3,3-3,3h-95.5c-1.7,0-3-1.3-3-3v-70.9c0-1.7,1.3-3,3-3h80l18.5,18.6V303.6z"/>
			<g>
				<line class="st12" x1="176.5" y1="252.2" x2="216.5" y2="252.2"/>
				<line class="st12" x1="176.5" y1="259.2" x2="255.8" y2="259.2"/>
				<line class="st12" x1="176.5" y1="266.2" x2="255.8" y2="266.2"/>
				<line class="st12" x1="176.5" y1="273.2" x2="255.8" y2="273.2"/>
				<line class="st12" x1="176.5" y1="280.2" x2="255.8" y2="280.2"/>
				<line class="st12" x1="176.5" y1="287.2" x2="255.8" y2="287.2"/>
				<line class="st12" x1="176.5" y1="294.2" x2="255.8" y2="294.2"/>
			</g>
			<path class="st8" d="M248.4,229.7L248.4,229.7l0,14.5c0,2.2,1.8,4,4,4h14.5L248.4,229.7z"/>
		</g>
		<g>
			<path class="st7" d="M259.5,291.5c0,1.7-1.3,3-3,3H161c-1.7,0-3-1.3-3-3v-70.9c0-1.7,1.3-3,3-3h80l18.5,18.6V291.5z"/>
			<g>
				<line class="st12" x1="169.1" y1="240.1" x2="209.1" y2="240.1"/>
				<line class="st12" x1="169.1" y1="247.1" x2="248.4" y2="247.1"/>
				<line class="st12" x1="169.1" y1="254.1" x2="248.4" y2="254.1"/>
				<line class="st12" x1="169.1" y1="261.1" x2="248.4" y2="261.1"/>
				<line class="st12" x1="169.1" y1="268.1" x2="248.4" y2="268.1"/>
				<line class="st12" x1="169.1" y1="275.1" x2="248.4" y2="275.1"/>
				<line class="st12" x1="169.1" y1="282.1" x2="248.4" y2="282.1"/>
			</g>
			<path class="st8" d="M241,217.6L241,217.6l0,14.5c0,2.2,1.8,4,4,4h14.5L241,217.6z"/>
		</g>
		<g>
			<path class="st7" d="M388.3,104.3H182.7c-0.9,0-1.7-0.8-1.7-1.7v-2.5c0-1.7-1.3-3-3-3h-61c-1.7,0-3,1.3-3,3v2.5
				c0,0.9-0.8,1.7-1.7,1.7h-0.6c-1.7,0-3,1.3-3,3v16.5c0,1.7,1.3,3,3,3h276.6c1.7,0,3-1.3,3-3v-16.5
				C391.3,105.7,390,104.3,388.3,104.3z"/>
			<g>
				<line class="st12" x1="377.8" y1="112.8" x2="385.9" y2="112.8"/>
				<line class="st12" x1="377.8" y1="115.8" x2="385.9" y2="115.8"/>
				<line class="st12" x1="377.8" y1="118.8" x2="385.9" y2="118.8"/>
			</g>
			<path class="st8" d="M371.5,118.8c0,1.7-1.3,3-3,3H117.8c-1.7,0-3-1.3-3-3v-6c0-1.7,1.3-3,3-3h250.7c1.7,0,3,1.3,3,3L371.5,118.8
				L371.5,118.8z"/>
			<g>
				<path class="st18" d="M123.8,118.3c0,0.4-0.3,0.7-0.7,0.7h-2.9c-0.4,0-0.7-0.3-0.7-0.7v-2.9c0-0.4,0.3-0.7,0.7-0.7h2.9
					c0.4,0,0.7,0.3,0.7,0.7V118.3z"/>
				<path class="st18" d="M120.3,114.7v-0.9c0-0.7,0.6-1.4,1.4-1.4l0,0c0.7,0,1.4,0.6,1.4,1.4v0.9"/>
				<path class="st18" d="M122.3,116.4c0,0.3-0.3,0.6-0.6,0.6s-0.6-0.3-0.6-0.6s0.3-0.6,0.6-0.6S122.3,116.1,122.3,116.4z"/>
				<line class="st18" x1="121.7" y1="117.9" x2="121.7" y2="117"/>
			</g>
			<text transform="matrix(1 0 0 1 129.7559 117.949)" class="st19 st20 st21">https://www._____.com</text>
		</g>
		<g>
			<path class="st16" d="M92.1,241l2.4-4.1l-4.3-3.5c0.2-0.8,0.3-1.6,0.3-2.4c0-0.8-0.1-1.6-0.3-2.4l4.3-3.5l-2.4-4.1l-5.2,2
				c-1.2-1.1-2.6-1.9-4.1-2.4l-0.9-5.5h-4.8l-0.9,5.5c-1.5,0.5-2.9,1.3-4.1,2.4l-5.2-2l-2.4,4.1l4.3,3.5c-0.2,0.8-0.3,1.6-0.3,2.4
				c0,0.8,0.1,1.6,0.3,2.4l-4.3,3.5L67,241l5.2-2c1.2,1.1,2.5,1.9,4.1,2.4l0.9,5.5h4.8l0.9-5.5c1.5-0.5,2.9-1.3,4.1-2.4L92.1,241z
				 M84,231c0,2.5-2,4.5-4.5,4.5s-4.5-2-4.5-4.5c0-2.5,2-4.5,4.5-4.5S84,228.5,84,231z"/>
			<path class="st13" d="M111.9,220.2l2.4-4.1l-4.3-3.5c0.2-0.8,0.3-1.6,0.3-2.4c0-0.8-0.1-1.6-0.3-2.4l4.3-3.5l-2.4-4.1l-5.2,2
				c-1.2-1.1-2.6-1.9-4.1-2.4l-0.9-5.5H97l-0.9,5.5c-1.5,0.5-2.9,1.3-4.1,2.4l-5.2-2l-2.4,4.1l4.3,3.5c-0.2,0.8-0.3,1.6-0.3,2.4
				s0.1,1.6,0.3,2.4l-4.3,3.5l2.4,4.1l5.2-2c1.2,1.1,2.6,1.9,4.1,2.4l0.9,5.5h4.8l0.9-5.5c1.5-0.5,2.9-1.3,4.1-2.4L111.9,220.2z
				 M103.8,210.2c0,2.5-2,4.5-4.5,4.5c-2.5,0-4.5-2-4.5-4.5c0-2.5,2-4.5,4.5-4.5C101.8,205.7,103.8,207.7,103.8,210.2z"/>
			<path class="st22" d="M120.6,248.4l2.4-4.1l-4.3-3.5c0.2-0.8,0.3-1.6,0.3-2.4c0-0.8-0.1-1.6-0.3-2.4l4.3-3.5l-2.4-4.1l-5.2,2
				c-1.2-1.1-2.6-1.9-4.1-2.4l-0.9-5.5h-4.8l-0.9,5.5c-1.5,0.5-2.9,1.3-4.1,2.4l-5.2-2l-2.4,4.1l4.3,3.5c-0.2,0.8-0.3,1.6-0.3,2.4
				c0,0.8,0.1,1.6,0.3,2.4l-4.3,3.5l2.4,4.1l5.2-2c1.2,1.1,2.5,1.9,4.1,2.4l0.9,5.5h4.8l0.9-5.5c1.5-0.5,2.9-1.3,4.1-2.4
				L120.6,248.4z M112.5,238.4c0,2.5-2,4.5-4.5,4.5c-2.5,0-4.5-2-4.5-4.5c0-2.5,2-4.5,4.5-4.5C110.5,233.9,112.5,235.9,112.5,238.4z
				"/>
		</g>
		<g>
			<path class="st3" d="M361.7,199.5c4.1,0,7.3,0,8.1,0c5.5,0,9.9-4.4,9.9-9.9c0-5.5-4.4-9.9-9.9-9.9c-0.7,0-1.3,0.1-1.9,0.2
				c-2.2-4.6-6.9-7.7-12.3-7.7c-7.2,0-13.1,5.5-13.6,12.6c-0.4-0.1-0.8-0.1-1.3-0.1c-4.1,0-7.5,3.4-7.5,7.5c0,4.1,3.4,7.5,7.5,7.5
				c1,0,5.5,0,10.6,0"/>
			<line class="st3" x1="356.5" y1="202.8" x2="356.5" y2="190.1"/>
			<polyline class="st3" points="361.9,190.8 356.5,185.4 351.1,190.8 			"/>
		</g>
		<g>
			<path class="st14" d="M313.8,199.6c0,1.7-1.3,3-3,3H161c-1.7,0-3-1.3-3-3v-19.9c0-1.7,1.3-3,3-3h149.8c1.7,0,3,1.3,3,3
				L313.8,199.6L313.8,199.6z"/>
			<g>
				<line class="st12" x1="176.5" y1="183" x2="222.6" y2="183"/>
				<line class="st12" x1="176.5" y1="187.4" x2="286.5" y2="187.4"/>
				<line class="st12" x1="176.5" y1="191.9" x2="286.5" y2="191.9"/>
				<line class="st12" x1="176.5" y1="196.3" x2="286.5" y2="196.3"/>
			</g>
			<g>
				<polyline class="st12" points="166.4,193 163,189.6 166.4,186.3 				"/>
				<polyline class="st12" points="305.4,186.3 308.8,189.6 305.4,193 				"/>
			</g>
		</g>
		<g>
			<path class="st6" d="M433.9,201.3c0,1.7-1.3,3-3,3h-33.5c-1.7,0-3-1.3-3-3v-27.2c0-1.7,1.3-3,3-3h33.5c1.7,0,3,1.3,3,3V201.3z"/>
			<text transform="matrix(1 0 0 1 401.1006 193.0039)" class="st23 st20 st24">&lt;/&gt;</text>
		</g>
	</g>
</g>
</svg>
