<?xml version="1.0" encoding="utf-8"?>
<!-- Generator: Adobe Illustrator 24.1.0, SVG Export Plug-In . SVG Version: 6.00 Build 0)  -->
<svg version="1.1" id="Layer_1" xmlns="http://www.w3.org/2000/svg" xmlns:xlink="http://www.w3.org/1999/xlink" x="0px" y="0px"
	 viewBox="0 0 4658.1 2653.5" style="enable-background:new 0 0 4658.1 2653.5;" xml:space="preserve">
<style type="text/css">
	.st0{fill:none;stroke:#111111;stroke-width:12;stroke-miterlimit:10;}
</style>
<path class="st0" d="M-256.2,2584.3c0,0,739,15.7,753.7,8.3c14.6-7.3-12.5-208.7,0-210.3c12.5-1.6,391.3,8.9,411.1-2.6
	c19.8-11.5,18.8-136.7,35.5-130.4c16.7,6.3,5.2,127.3,33.4,139.8c28.2,12.5,211.8,0,228.5-12.5c16.7-12.5,53.7-401.2,20.9-401.2
	c-32.9,0-28.2,570.5-32.3,584.9c-4.2,14.4-168,14.6-184.7,5.2c-16.7-9.4-68.9-195.1-75.1-181.6c-6.3,13.6-35.5,156.5-55.3,176.3
	c-19.8,19.8-350.6,43.1-350.6,14.4c0-28.7,127.6-31.1,76.7-63.2c-50.9-32.1-99.4-57.1-79-68.1c20.3-11,68.9,1.6,37.6-21.1
	c-31.3-22.7-85.3-25-89.2-43.8c-3.9-18.8-2.3-193.8,6-204.3c8.3-10.4,227.5,11.5,241,2.1c13.6-9.4,14.6-274.4,7.3-308.9
	c-7.3-34.4-229.6-29.2-252.5-6.3c-23,23-8.3,288,3.1,267.1c11.5-20.9,0.4-349,12.2-353.7c11.8-4.7,55.6,27.7,247.6-1
	c192-28.7,264-76.2,242.6-72c-21.4,4.2-68.9,9.4-105.4-34.4c-36.5-43.8-49.8-104.5-40-92c9.8,12.5,151.4,68.9,143.6,72
	c-7.8,3.1-54.3,29.3-72.3,26.7c-18-2.6-70.2-99.3-100.7-100.4c-30.5-1.1-191.7-48-259-62.1c-67.3-14.1-142.4,83-140.9,165.9
	c1.6,83,161.2,89.2,132.3,73.6c-29-15.7-124.4-29-155-147.9c-30.5-119,0-574.4,54.8-619.8s80.9,27.7,56.9,17.2
	c-24-10.4-23-39.7,32.3-75.1c55.3-35.5,158.1-81.4,158.9-65.7c0.8,15.7-54,45.4-54,63.4s87.7,46.2,81.4,66.5
	c-6.3,20.3-42.3,15.7-32.9,32.9c9.4,17.2,223.8,231.7,222.3,203.5c-1.6-28.2-149.7-393.4-163.3-390.3c-13.6,3.1-29.2,10.4-22.4,15.7
	S844.4,971.6,852.7,969c8.3-2.6,27.7-44.3,51.7-46.4c24-2.1,33.4,39.1,53.2,38.1c19.8-1,104.3-138.3,104.9-143.5
	s-9.9-56.3-20.3-51.7c-10.4,4.7-132,132.5-145.6,133.6c-13.6,1-132.5-122.1-143-118.4c-10.4,3.7-3.7,49,4.2,40.7
	c7.8-8.3,18.7-101.2,9.3-128.6s-27.4-68.9-20.7-69.7c6.7-0.8-6.7,29.3-25.4,12.1c-18.8-17.2-40.3-115-12.5-120.1
	c27.8-5.1,33.3,43,38,31.3c4.7-11.7-6.3-60.3,16-84.5c22.3-24.3-15.3-95.1,81.8-104.9c97-9.8,150.3,30.1,161.2,61.8
	c11,31.7,21.5,120.9,26.2,113.1c4.7-7.8,34-79.4,26.2-105.3c-7.8-25.8-29.7-29.7-16-32.9c13.7-3.1,19.6,12.9,20,0
	c0.4-12.9-32.5-73.6-56.3-82.2c-23.9-8.6-31.3,11.7-23.5,6.3c7.8-5.5-63.4-67.3-150.7-48.5s-97.4,95.5-90,88.8
	c7.4-6.7-5.5-19.2-16,3.5c-10.6,22.7-11.3,138.5-8.6,138.5c2.7,0,0,5.9,2.7,0c2.7-5.9,10.2-160,99.8-178s174.1,26.6,191.7,71.2
	s20.7,114.7,24.7,107.6s41.5-4.7,40.7,40.7s-21.9,89.2-34.4,86.1c-12.5-3.1-13.7-16.4-9.8-16.4s-6.5,135.9-121.3,146.9
	c-114.8,11-134.6-67.3-125.2-68.3c9.4-1,54.4,81.5,116.2,87c61.8,5.5,109.6-58.3,115-54.8c5.5,3.5,18,73.2,30.1,101
	c12.1,27.8-134.6,398-122.1,394c12.5-3.9,207.4-278.6,201.9-291.9c-5.5-13.3-36-29-24.3-35.2c11.7-6.3,31.3,11,38.3-13.3
	c7-24.3-66.5-50.1-45.4-53.2c21.1-3.1,214.4,90,222.3,143.2c7.8,53.2-90,190.2-63.4,187.8c26.6-2.3,112.4-132.3,114.5-353.5
	c2.1-221.2,162.8-303.7,215-299.5c52.2,4.2,56.3,39.7,55.3,19.8c-1-19.8,41.7-37.6,144,62.6c102.3,100.2,154.4,326.6,123.1,444.5
	c-31.3,117.9,19,127.3-1.3,105.4c-20.3-21.9-54.5,16.2-105.6-40.7s-57.4-116.9-44.9-135.1c12.5-18.3,54.3-77.2,54.8-148.7
	c0.5-71.5-64.2-184.7-120.5-212.3c-56.3-27.7-39.7-50.6-35-38.1c4.7,12.5-86.6,67.8-131.5,116.9c-44.9,49-45.4,118.4-42.3,108.5
	c3.1-9.9-24-36.5-30.8-11c-6.8,25.6,19.3,107,35,101.2c15.7-5.7,27.1-27.1,15.7-18.3c-11.5,8.9,34.4,157.6,169.6,152.9
	c135.1-4.7,175.3-160.2,162.3-253c-13-92.9-106.4-224.3-194.1-215.5c-87.7,8.9-145,152.3-171.7,177.4c-26.6,25-80.3,48.5-66.3,77.7
	c14.1,29.2,39.7,2.1,37,71c-2.6,68.9-47.5,147.1-25.6,121c21.9-26.1,44.9-93.4,45.9-67.8c1,25.6-9.9,58.4,5.7,52.7
	c15.7-5.7,41.2-71,41.7-43.8c0.5,27.1-5.2,61.6,3.1,106.4c8.3,44.9,126.3,217.6,146.6,217.6c20.3,0,96-185.2,108.5-175.3
	c12.5,9.9,103.8,100.2,93.4,107s-40.7-22.4-61.6-13c-20.9,9.4-130.4,139.3-148.2,132c-17.7-7.3-99.1-133.6-134.6-152.9
	c-35.5-19.3-72,28.2-72.5,0c-0.5-28.2,39.1-115.8,45.4-103.3c6.3,12.5-32.3,67.3-99.7,82.2c-67.3,14.9,42.3,36.8,19.6,54
	c-22.7,17.2-27.4,4.7-14.9,24.3c12.5,19.6,157.3,249.7,170.6,235.6c13.3-14.1,50.1-66.5,44.6-86.1c-5.5-19.6-98.6-194.5-108.8-190.6
	c-10.2,3.9,84.1,171.8,78.7,199.2c-5.5,27.4-30.1,95.1-58.3,86.5c-28.2-8.6-195.3-291.9-189.8-308.7c5.5-16.8,19.2-28.2,17.2-16.4
	c-2,11.7-143.1,35-178.6,206.1c-35.5,171.1-72.1,471,68.3,564.7c140.4,93.7,261.5-76.4,266.2-66.5s-39.1,56.9-86.1-54.8
	c-47-111.7-3.1-143.6-2.9-153.4c0.3-9.8-32.9-252-72-325.6c-39.1-73.6-137.7-43-122.9-32.1c14.9,11,133.8,22.7,108,133
	c-25.8,110.3-147.1,181.6-119.7,196.4c27.4,14.9,178.4-29,154.2-7c-24.3,21.9-138.8,95.7-121.6,94.7c17.2-1,185.7-39.1,242.1-89.7
	c56.3-50.6,65.7-113.2,107-141.9c41.2-28.7,38.1-91.3,47-113.7c8.9-22.4,37-8.9,30.3,56.9s-33.9,80.9-27.7,81.9
	c6.3,1,103.3,24,109.6,50.1s-19.3,35.5-32.3,40.2c-13,4.7-50.6-11.5-43.3-12c7.3-0.5,75.8,4.1,71,39.1c-4.8,35.1-65.7,15.1-57.9,13
	c7.8-2.1,67.8,18.3,57.9,39.1c-9.9,20.9-73.6,22.4-63.7,16.2c9.9-6.3,40.7,6.8,35,31.3c-5.7,24.5-56.9,4.2-92.3,27.7
	c-35.5,23.5-73-11.5-92-8.9c-19.1,2.6-68.1,78.3-79.1,74.1c-11-4.2-45.1-115.8-31-112.7c14.1,3.1,42,123.1,67,133.6
	c25,10.4,124.2-30.8,99.7-45.4c-24.5-14.6,37.6,785.2,28.2,797.7c-9.4,12.5-361.6,12.5-372.5-14.1c-11-26.6,15.7-303.7,29.7-311.5
	c14.1-7.8,197.2-8.6,212.1,12.5c14.9,21.1-2.3,286.4-23.5,295.8c-21.1,9.4-150.3,2.3-130.7-19.6s412.4,29,450,3.1
	c37.6-25.8,1.8-282.5,26.9-304.4c25-21.9,220.2-57.4,217-26.1c-3.1,31.3-66.8,318.3-71,339.1c-4.2,20.9-97,24-109.6,2.1
	s-10.4-297.4,15.7-312c26.1-14.6,183.7,6.3,183.7-57.4c0-63.7-66.5-333.2-95-331.8c-21.9,1,135.7,23,157-15.7
	c21.4-38.6-87.7-35.7-75.1-27.1c12.5,8.6,88.5,12.5,77.9-28.2c-10.6-40.7-96.7-41.5-89.7-32.1c7,9.4,101.7,23.5,104.1-28.2
	c2.3-51.7-111.9-67.3-101.7-54c10.2,13.3,119,32.1,111.1-22.7c-7.8-54.8-96.3-87.7-84.5-66.5c11.7,21.1,50.1,22.7,54-41.5
	c3.9-64.2,4.7-171.4-24.3-217.6s-56.3-30.5-54,36c2.3,66.5,29,98.6-14.1,156.5c-43,57.9-110.3,109.6-112.7,191
	c-2.3,81.4,115.8,157.3,64.2,122.9c-51.7-34.4-173.7-39.1-170.6-97.8s183.9-224.6,170.6-198.8c-13.3,25.8-141.7,62.6-158.1,96.3
	c-16.4,33.7,1.6,37.6,3.9,21.9c2.3-15.7-14.5-140.9,57.9-336.5c63.1-170.6,70.4-125.7,86.1-265.6
	c15.7-139.8,103.3-181.3,127.6-176.6c24.3,4.7,23.5,31.3,14.1,25.8c-9.4-5.5,37.6-56.3,96.3-90.8c58.7-34.4,73.6-37,69.4-29.7
	c-4.2,7.3-74.6,40.2-83,98.6c-8.3,58.4,29.2,353,43.3,367.8c14.1,14.9,36.4,3.9,34.8,30.5c-1.6,26.6-31.4,25-34.8-8.6
	c-3.4-33.7,39.9-45.9,54.3-14.1s-2.6,80.3-55.8,63.1c-53.2-17.2-19-86.6,4.4-95.7c23.5-9.1-42.4-304.3-20.1-357.1
	c22.3-52.8,74-78.7,73.6-72.4c-0.4,6.3-25,138.9-17.2,142c7.8,3.1,108-22.7,105.7-9.4c-2.3,13.3-63.4,44.6-53.2,72
	c10.2,27.4,64.2,22.7,114.3,137c50.1,114.3,39.1,213.7,53.2,175.3c14.1-38.3,41.5-135.4-17.2-294.3
	C2397.6,832,2353.4,692.7,2340.5,688c-12.9-4.7-65.3,79-41.5,73.2c23.9-5.9,81.4-106.4,75.5-125.6c-5.9-19.2-34.4-43.8-46.2-99.4
	c-11.7-55.6-7.8-96.3-30.5-95.1c-22.7,1.2,10.6,88,16,75.9c5.5-12.1,0.4-248.5,55.4-306.4c55-57.9,85.5-8.6,114.4-18
	c29-9.4,87.7-22.7,132.3,36.8c44.6,59.5,65.7,211.3,70.4,189.4c4.7-21.9,47-137,13.3-227.7c-33.7-90.8-113.5-115-96.3-115
	c17.2,0,36.8,19.6,36.8,6.3c0-13.3-165.9-43-204.3-25c-38.3,18-12.5,43-12.5,30.5c0-12.5-164.3,7.8-167.5,110.3
	c-3.1,102.5,44.6,241.8,44.6,206.6s-31.3-263,111.9-272.3c143.2-9.4,234.8,36.8,253.6,100.2c18.8,63.4,13.3,170.2,22.7,156.5
	c9.4-13.7,39.1-43.8,41.5,14.1c2.3,57.9-19.6,97-44.6,100.2s-19.6-30.5-13.3-19.6c6.3,11,15.7,185.5-142.4,198
	c-158.1,12.5-150-70.2-142.7-58.2s-14.1,71,6.3,114.3c20.3,43.3,74.6,33.9,72.5,80.3c-2.1,46.4-21.9,77.2-25.6,55.8
	c-3.7-21.4,11.5-78.8,79.8-67.8c68.3,11,96,90.3,76.7,81.9c-19.3-8.3-55.3-69.9-29.7-92.3s103.3-113.7,98.1-139.3
	c-5.2-25.6-23.5-24.5-20.9-13c2.6,11.5,36,43.3,16.2,123.7c-19.8,80.3-165.9,481.3-155,479c11-2.3,213.9-266.1,212.9-285.9
	c-1-19.8-50.6-41.2-42.8-63.1c7.8-21.9,66.3-108,68.3-134.1c2.1-26.1-52.7-138.8-56.3-108.5c-3.7,30.3,100.2,92.3,91.3,113.7
	c-8.9,21.4-53.7,56.9-48,112.2c5.7,55.3,37,212.3,100.7,242.6c63.7,30.3,65.7-45.9,80.9-44.9c15.1,1-8.3,56.3-66.3,32.9
	s-101.2-214.4-86.6-248.3c14.6-33.9,71.5-45.4,98.1,1s17.7,179.5,9.4,204c-8.3,24.5-41.2-4.2-32.9-10.4c8.3-6.3,48,35,59-42.3
	s-10.4-176.3-28.2-199.3c-17.7-23-63.1-13.6-67.3-29.7c-4.2-16.2,153.1-21.1,225.1,66.5s90,324.8,108.8,522
	c18.8,197.2-19.6,342.8-71.2,405.4c-51.7,62.6-108.8-16.4-96.3,4.7c12.5,21.1,88.4,104.1,98.6-65c10.2-169-112.7-245-143.2-244.2
	s-37.8,31.6-31.6,27.4c6.3-4.2,94.4-8.9,102.8,83c8.3,91.8-43.3,227-79.8,245.2c-36.5,18.3-122.1,5.2-138.3-18.3
	c-16.2-23.5,55.3-36.5,58.4-21.4c3.1,15.1-80.9-9.4-75.1-30.8c5.7-21.4,126.8-26.6,100.2-23.5s-121.6,5.2-108-35
	c13.6-40.2,135.1-47,125.7-40.2s-135.1,5.2-131.5-40.2c3.7-45.4,129.9-73,117.4-60.5c-12.5,12.5-88.7,22.4-87.7-26.6
	c1-49,54.8-92.9,42.3-159.1s52.7-121.6,65.2-93.9s-13,53.7-4.2,107c8.9,53.2,17.2,87.7,7.3,76.2c-9.9-11.5,24-137.7,120-147.1
	c96-9.4,125.2,8.3,93.9-20.9c-31.3-29.2-211.8-45.9-183.7-64.7s110.6-24,71-34.4c-39.7-10.4-153.4,68.9-171.1,28.2
	c-17.7-40.7,13.6-98.1,18.8-65.7c5.2,32.3-116.3,372.5-216.5,366.3c-100.2-6.3-78.3-222.3-104.9-180
	c-26.6,42.3-1.6,1203.7-25,1202.1s-15.7-1200.5-47-1156.7c-31.3,43.8,12.5,641.7-20.3,665.2c-32.9,23.5-272.3-15.7-331.8-57.9
	c-59.5-42.3-14.1-134.6-12.5-122.1c1.6,12.5-24.5,195.1-18.3,228.5c6.3,33.4,232.7,56.3,243.1,44.9c10.4-11.5,32.3-83.5,8.3-58.4
	s-18.8,434.1-40.7,436.2s-232.7-41.7-251.5-95c-18.8-53.2,14.6-130.4,14.6-108.5s-23,282.8,2.1,298.4c25,15.7,415.3,27.1,434.1,13.6
	c18.8-13.6,24-66.8,35.5-45.9c11.5,20.9,7.3,55.3,21.9,56.3s481,8.3,506.1-15.7c25-24-21.9-259.8-21.9-259.8l-13.6-24
	c0,0-235.8,65.7-279.7,39.7c-43.8-26.1-56.3-299.5-40.7-327.7c15.7-28.2,277-76.2,297.4-59c20.3,17.2,51.7,297.4,28.2,291.1
	c-23.5-6.3-51.7-504-39.1-480.5c12.5,23.5,32.1,145.6,56.3,161.2c24.3,15.7,66.5,29.7,79.8,5.5c13.3-24.3-2.3-50.1-3.9-24.3
	c-1.6,25.8,10.2,424.2-2.3,433.6c-12.5,9.4-81.4-18.8-65.7-43.8c15.7-25,31.3-29.7,31.3,65.7s14.1,175.3,28.2,203.5
	s222.3,48.5,234.8,15.7c12.5-32.9-42.3-752.9-1.6-699.7c40.7,53.2,64.2,695,59.5,707.5c-4.7,12.5-40.7-7.8-21.9-12.5
	c18.8-4.7,355.4-35.8,363.9-42.3c8.6-6.5-66.6-361.6-80.6-364.7c-14.1-3.1-98.6,50.1-115.8,11c-17.2-39.1-64.2-233.2-40.7-255.1
	c23.5-21.9,90.8-56.3,119-23.5c28.2,32.9,53.2,220.7,31.3,212.9c-21.9-7.8-51.7-503-58.4-486.8c-6.8,16.2-88.7,7.8-135.7-19.8
	c-47-27.7-60-77.7-59-59.5c1,18.3,44.3,62.1,78.8,0c34.4-62.1,28.7-153.9,23.5-163.8c-5.2-9.9-65.7-27.7-103.3-75.7
	s-34.4-64.7-64.7-101.7c-30.3-37-17.7-78.1-30.8-84.5c-13.1-6.5-28.7,1-27.1,53.7c1.6,52.7,27.1,73.6,25,69.9
	c-2.1-3.7-82.7,24.4-95.3,39.9c-12.7,15.4-15.3,31.6,12.4,39.4c27.7,7.8,46.4-13,39.7-8.3c-6.8,4.7-54.8,19.3-48.5,39.7
	c6.3,20.3,61,24,47.5,17.2c-13.6-6.8-48,12.7-37.3,29.6c10.7,16.9,48.8,12.2,43.6,8c-5.2-4.2-44.9,29.7-19.8,45.4
	c25,15.7,24-9.9,65.7,7.3s42.8-21.9,69.9-11c27.1,11,86.6,74.6,92.3,70.4c5.7-4.2,4.7-163.3,19.3-168c14.6-4.7,124.2,25,102.8,28.2
	c-21.4,3.1-103.3-20.9-67.8-171.1s119-216,151.3-151.3c32.3,64.7,33.4,458.1,14.6,499.8c-18.8,41.7-161.7,38.6-146.1,44.9
	c15.7,6.3,112.7-9.4,125.2-167s-111.7-235.8-89.7-240c21.9-4.2,83.5-25,48-41.7c-35.5-16.7-68.3-42.8-39.1-57.4
	c29.2-14.6,44.9-14.6,50.6-41.2c5.7-26.6-139.8-80.3-139.8-63.1s-23.5,287.5-32.3,302.1c-8.9,14.6-56.3-24.5-45.4-6.8
	c11,17.7,25,8.9,31.8-37.6c6.8-46.4,16.7-224.3,6.3-269.7c-10.4-45.4-45.9-79.3-38.1-60c7.8,19.3,29.2,73.6,28.7,108
	s-36.5,28.7-37,34.4c-0.5,5.7,28.7,3.1,21.4,20.3c-7.3,17.2-66.3,159.1-73.6,136.7c-7.3-22.4,39.7-295.3,42.8-276
	c3.1,19.3-51.7,140.3-62.1,136.2c-10.4-4.2-37-60-58.4-63.1c-21.4-3.1-32.3,42.8-64.7,31.3c-32.3-11.5-47-95-37.6-83.5
	c9.4,11.5,77.2,176.3,78.3,210.3c1,33.9,2.1,79.8-9.4,69.9c-11.5-9.9-86.1-130.4-83-146.1s27.1-37,19.8-35
	c-7.3,2.1-42.3,9.4-46.4,0.5c-4.2-8.9-16.2-92.9-12.5-109.6c3.7-16.7,27.7-74.6,37-69.9c9.4,4.7,42.3,65.2,17.2,54.8
	c-25-10.4,9.4-64.7,9.9-106.4c0.5-41.7-24-103.8-17.7-103.3c6.3,0.5-0.5,27.7-20.3,12.5c-19.8-15.1-22.7-81.3-9.8-84
	c12.9-2.7,27.8,27,23.9,23.9c-3.9-3.1-19.6-123.3,62.6-170.2c82.2-47,169-10.2,195.7,72.8c26.6,83,6.3,106,4.7,87.7
	s19.2-34.4,21.1-7.8c2,26.6,1.2,70.4-11.7,73.6c-12.9,3.1-17.2-11.3-13.3-10.2c3.9,1.2-15.7,161.2-113.5,155.7
	c-97.8-5.5-139.8-112.7-140.9-93.4c-1,19.3,16.2,47.5-2.3,69.7c-18.5,22.2-52.7,21.9-54.8,39.9c-2.1,18-3.1,30.8,1.8,17.5
	c5-13.3-32.3-90-18.3-152.1c14.1-62.1,28.7-46.4,24-39.1c-4.7,7.3-63.1-163.8,44.3-254.6c107.5-90.8,260.9-33.4,303.1,78.3
	c42.3,111.7-18.3,148.2-1,229c17.2,80.9,109.6,218.6,69.4,183.1c-40.2-35.5-151.8-57.4-147.7-89.2s117.4,93.4,175.8,114.8
	c58.4,21.4,160.2,34.4,113.7,28.7c-46.4-5.7-54.8-32.9-42.3-44.3c12.5-11.5,106.2-50.6,114.8-41.2c8.6,9.4-33.7,31.3-32.1,48.5
	c1.6,17.2,54.8,22.7,48.5,43.8c-6.3,21.1-26.6,25-21.9,33.7c4.7,8.6,151.8,258.3,155,223c3.1-35.2-84.8-357.4-104.6-361
	c-19.8-3.7-13.6,172.2,114.3,164.9c127.8-7.3,150.8-177.9,132-169c-18.8,8.9-128.9,372.5-108.5,354.3
	c20.3-18.3,166.4-244.7,165.4-257.7c-1-13-38.1-25-22.4-29.7c15.7-4.7,52.7-10.4,51.1-26.1c-1.6-15.7-92.3-64.2-107-105.9
	c-14.6-41.7,15.1-130.4,13-143c-2.1-12.5-20.3,2.6-12.5,13.6c7.8,11,49-6.3,53.2-49.6c4.2-43.3-25-68.9-34.4-50.6
	c-9.4,18.3-0.3,32.1,1.3,25.6c1.6-6.5-10.6-135.3-113.1-139.6c-102.5-4.3-137.7,53.6-140.5,97.4c-2.7,43.8-2.7,61-13.7,50.5
	c-11-10.6-48.5-99-4.7-169c43.8-70,122.5-72.8,113.5-67.3s-68.9-0.4-61-13.3c7.8-12.9,60.3-43.8,100.2-29.7
	c39.9,14.1,30.5,45.8,15.7,48.1c-14.9,2.3-29-3.1-20-5.9s113,0.3,138.5,65c25.6,64.7,17.7,137.7,9.9,117.9
	c-7.8-19.8-46.4-135.1-150.3-129.9c-103.8,5.2-139.8,59-139.8,118.4c0,59.5-7.3,54.3-25.6,62.1c-18.3,7.8,32.3,89.7,38.6,73
	c6.3-16.7,8.9-35.5,4.2-23c-4.7,12.5-1.6,116.3,85,124.7c86.6,8.3,136.2-41.7,120.5-41.7s-80.1,57.7-120.8,61.6
	c-40.7,3.9-41-24.8-46.4-15.4c-5.5,9.4,5.5,51.4-16,63.5c-21.5,12.1-121.3,50.5-123.7,77.9s32.9,40.7,34,86.9
	c3.7,152.9,21.9,354.1,20.7,371c-1.2,16.8,40.7-14.1,58.7,5.9c18,20,1.6,90.4-9.4,107.6s-112.7-5.9-87.3-9.8s482.1,117.8,557.2,79.4
	s101-432,76.7-515.7c-24.3-83.7-205.4-164-200.7-151.4c4.7,12.5,87.3,54.4,85.7,88.8c-1.6,34.4-59.5-5.5-69.7,108.8
	c-10.2,114.3-11,245-28.2,277.8c-17.2,32.9-14.1-81.1,48.5-97.3c62.6-16.2,68.9,7.8,60.5,12c-8.3,4.2-60,6.3-71,20.9
	c-11,14.6-12,52.2-12.5,41.2c-0.5-11,31.3-45.4,77.7-44.3c46.4,1,49,25.6,41.2,26.1c-7.8,0.5-36-11.5-61.6,2.1
	c-25.6,13.6-63.7,40.7-52.7,30.3s66.8-24,100.2-20.3c33.4,3.7,30.3,30.3,7.8,25s-96.8,24.4-103.8,14.6s108.4,0.8,85.3,7.8
	c-23.1,7-112.4,9.4-200.1,6.8c-87.7-2.6-248.3-19.8-232.7-28.7c15.7-8.9,27,109.2,40.3,123.3c13.3,14.1,281.3,44.2,271.2,59.9
	c-10.2,15.7-414.8,85.4-473.5,70.4c-58.7-15-18-50.9-9.4-40.7s-20.3,126-3.9,134.6c16.4,8.6,116.6-9.4,115.8,6.3
	c-0.8,15.7,21.9,376.4,14.1,395.2c-7.8,18.8-103.3,21.1-101.7-8.6c1.6-29.7,14.9-62.6,22.7-35.2c7.8,27.4,21.1,115,35.2,130.7
	c14.1,15.7,119,31.3,150.3,4.7c31.3-26.6-1.6-552.5,18.8-549.4c20.3,3.1,23.5,508.7,40.7,538.4c17.2,29.7,311.5,37.6,328.7,14.1
	s6.3-615.1-4.2-616.2c-10.4-1-18.8,81.4-29.2,98.1c-10.4,16.7-177.4-1-182.6,24c-5.2,25-18.8,328.7-6.3,351.7
	c12.5,23,186.8,21.9,199.3-3.1s11.5-360-15.7-341.2s4.2,722.7-11.5,751.1c-15.7,28.4-244.2,0.2-258.3-28
	c-14.1-28.2-20.3-233.2-32.9-200.3c-12.5,32.9,3.1,158.1-23.5,219.1c-26.6,61-145.6,32.9-117.4,28.2c28.2-4.7,365.2,24,507.1,15.7
	c141.9-8.3,810-20.3,810-20.3"/>
</svg>
