<?xml version="1.0" encoding="utf-8"?>
<!-- Generator: Adobe Illustrator 24.1.0, SVG Export Plug-In . SVG Version: 6.00 Build 0)  -->
<svg version="1.1" xmlns="http://www.w3.org/2000/svg" xmlns:xlink="http://www.w3.org/1999/xlink" x="0px" y="0px"
	 viewBox="0 0 1867 1898.7" style="enable-background:new 0 0 1867 1898.7;" xml:space="preserve">
<style type="text/css">
	.st0{fill:#FFFFFF;}
</style>
<g id="Background">
</g>
<g id="Illustration">
	<g id="Workplace_culture_1_">
		<g>
			<g>
				<g>
					<path class="st0" d="M651.6,329l5.7,20.1l22.8-1.2c2.2,4.4,4.6,8.6,7.4,12.5l-11.9,19.4l15,14.6l19.1-12.5
						c4,2.7,8.3,5.1,12.7,7.1l-0.6,22.8l20.3,5.1l10.3-20.3c4.8,0.3,9.7,0.3,14.6-0.2l10.9,20.1l20.1-5.7l-1.2-22.8
						c4.4-2.2,8.6-4.6,12.5-7.4l19.4,11.9l14.6-15l-12.5-19.1c2.7-4,5.1-8.3,7.1-12.7l22.8,0.6l5.1-20.3l-20.3-10.3
						c0.3-4.8,0.3-9.7-0.2-14.6l20.1-10.9l-5.7-20.1l-22.8,1.2c-2.2-4.4-4.6-8.6-7.4-12.5l11.9-19.4l-15-14.6l-19.1,12.5
						c-4-2.7-8.3-5.1-12.7-7.1l0.6-22.8l-20.3-5.1l-10.3,20.3c-4.8-0.3-9.7-0.3-14.6,0.2l-10.9-20.1l-20.1,5.7l1.2,22.8
						c-4.4,2.2-8.6,4.6-12.5,7.4l-19.4-11.9l-14.6,15l12.5,19.1c-2.7,4-5.1,8.3-7.1,12.7l-22.8-0.6l-5.1,20.3l20.3,10.3
						c-0.3,4.8-0.3,9.7,0.2,14.6L651.6,329z M743.8,257.9c28.6-8.1,58.3,8.5,66.4,37.1c8.1,28.6-8.5,58.3-37.1,66.4
						c-28.6,8.1-58.3-8.5-66.4-37.1C698.6,295.7,715.2,266,743.8,257.9z"/>
					<path d="M742,419c-0.2,0-0.3,0-0.5-0.1l-20.3-5.1c-0.9-0.2-1.5-1-1.5-1.9l0.6-21.6c-3.7-1.7-7.3-3.8-10.7-6l-18.1,11.8
						c-0.8,0.5-1.8,0.4-2.4-0.2l-15-14.6c-0.7-0.6-0.8-1.6-0.3-2.4l11.2-18.4c-2.3-3.3-4.4-6.9-6.3-10.6l-21.5,1.2
						c-0.9,0-1.7-0.5-2-1.4l-5.7-20.1c-0.2-0.9,0.1-1.8,0.9-2.2l18.9-10.3c-0.3-4.1-0.4-8.3-0.2-12.3l-19.2-9.7
						c-0.8-0.4-1.2-1.3-1-2.2l5.1-20.3c0.2-0.9,1.1-1.5,1.9-1.5l21.6,0.6c1.7-3.7,3.8-7.3,6-10.7L672,242.8
						c-0.5-0.8-0.4-1.8,0.2-2.4l14.6-15c0.6-0.7,1.6-0.8,2.4-0.3l18.4,11.2c3.3-2.3,6.9-4.4,10.6-6.3l-1.2-21.5c0-0.9,0.5-1.7,1.4-2
						l20.1-5.7c0.9-0.2,1.8,0.1,2.2,0.9l10.3,18.9c4.1-0.3,8.3-0.4,12.3-0.2l9.7-19.2c0.4-0.8,1.3-1.2,2.2-1l20.3,5.1
						c0.9,0.2,1.5,1,1.5,1.9l-0.6,21.6c3.7,1.7,7.3,3.8,10.7,6l18.1-11.8c0.8-0.5,1.8-0.4,2.4,0.2l15,14.6c0.7,0.6,0.8,1.6,0.3,2.4
						l-11.2,18.4c2.3,3.3,4.4,6.9,6.3,10.6l21.5-1.2c0.9,0,1.7,0.5,2,1.4l5.7,20.1c0.2,0.9-0.1,1.8-0.9,2.2l-18.9,10.3
						c0.3,4.1,0.4,8.3,0.2,12.3l19.2,9.7c0.8,0.4,1.2,1.3,1,2.2l-5.1,20.3c-0.2,0.9-1.1,1.5-1.9,1.5l-21.6-0.6
						c-1.7,3.7-3.8,7.3-6,10.7l11.8,18.1c0.5,0.8,0.4,1.8-0.2,2.4l-14.6,15c-0.6,0.7-1.6,0.8-2.4,0.3L809.3,383
						c-3.3,2.3-6.9,4.4-10.6,6.3l1.2,21.5c0,0.9-0.5,1.7-1.4,2l-20.1,5.7c-0.9,0.2-1.8-0.1-2.2-0.9l-10.3-18.9
						c-4.1,0.3-8.3,0.4-12.3,0.2l-9.7,19.2C743.4,418.6,742.8,419,742,419z M723.8,410.4l17.3,4.4l9.6-18.9c0.4-0.7,1.1-1.1,1.9-1.1
						c4.7,0.3,9.5,0.3,14.2-0.2c0.8-0.1,1.5,0.3,1.9,1l10.2,18.7l17.1-4.8l-1.1-21.2c0-0.8,0.4-1.5,1.1-1.9
						c4.3-2.1,8.4-4.5,12.2-7.3c0.6-0.5,1.5-0.5,2.1-0.1l18.1,11.1l12.4-12.8l-11.6-17.8c-0.4-0.7-0.4-1.5,0-2.1
						c2.6-3.9,5-8.1,6.9-12.4c0.3-0.7,1.1-1.2,1.8-1.1l21.3,0.6l4.4-17.2l-18.9-9.6c-0.7-0.4-1.1-1.1-1.1-1.9
						c0.3-4.7,0.3-9.4-0.2-14.2c-0.1-0.8,0.3-1.5,1-1.9l18.7-10.2l-4.8-17.1l-21.2,1.1c-0.8,0-1.5-0.4-1.9-1.1
						c-2.1-4.3-4.5-8.4-7.3-12.2c-0.5-0.6-0.5-1.5-0.1-2.1l11.1-18.1l-12.8-12.4L808.3,239c-0.7,0.4-1.5,0.4-2.1,0
						c-3.9-2.6-8.1-5-12.4-6.9c-0.7-0.3-1.2-1-1.1-1.8l0.6-21.3l-17.2-4.4l-9.6,18.9c-0.4,0.7-1.1,1.1-1.9,1.1
						c-4.7-0.3-9.4-0.3-14.2,0.2c-0.8,0.1-1.5-0.3-1.9-1l-10.2-18.7l-17.1,4.8l1.1,21.2c0,0.8-0.4,1.5-1.1,1.9
						c-4.3,2.1-8.4,4.5-12.2,7.3c-0.6,0.5-1.5,0.5-2.1,0.1l-18.1-11.1L676.1,242l11.6,17.8c0.4,0.7,0.4,1.5,0,2.1
						c-2.6,3.9-5,8.1-6.9,12.4c-0.3,0.7-1,1.2-1.8,1.1l-21.3-0.6l-4.4,17.2l18.9,9.6c0.7,0.4,1.1,1.1,1.1,1.9
						c-0.3,4.7-0.3,9.5,0.2,14.2c0.1,0.8-0.3,1.5-1,1.9L653.9,330l4.8,17.1l21.2-1.1c0.8,0,1.5,0.4,1.9,1.1
						c2.1,4.3,4.5,8.4,7.3,12.2c0.5,0.6,0.5,1.5,0.1,2.1L678,379.6l12.8,12.4l17.8-11.6c0.7-0.4,1.5-0.4,2.1,0
						c3.9,2.6,8.1,5,12.4,6.9c0.7,0.3,1.2,1,1.1,1.8L723.8,410.4z M758.4,365.5c-9.4,0-18.7-2.4-27.1-7.1
						c-13-7.3-22.4-19.2-26.4-33.5c-4.1-14.3-2.3-29.4,5-42.4c7.3-13,19.2-22.4,33.5-26.4c14.3-4.1,29.4-2.3,42.4,5
						c13,7.3,22.4,19.2,26.4,33.5c4.1,14.3,2.3,29.4-5,42.4c-7.3,13-19.2,22.4-33.5,26.4C768.6,364.8,763.5,365.5,758.4,365.5z
						 M744.4,259.8c-13.3,3.8-24.4,12.5-31.2,24.6c-6.8,12.1-8.4,26.1-4.6,39.4c3.8,13.3,12.5,24.4,24.6,31.2
						c12.1,6.8,26.1,8.4,39.4,4.6c13.3-3.8,24.4-12.5,31.2-24.6c6.8-12.1,8.4-26.1,4.6-39.4c-3.8-13.3-12.5-24.4-24.6-31.2
						C771.7,257.6,757.7,256,744.4,259.8z M743.8,257.9L743.8,257.9L743.8,257.9z"/>
				</g>
			</g>
			<g>
				<g>
					<path class="st0" d="M319,540.6l9.7,34.4l39-2.1c3.7,7.6,7.9,14.7,12.7,21.4l-20.4,33.3l25.6,24.9l32.7-21.3
						c6.9,4.6,14.2,8.7,21.7,12.1l-1,39.1l34.7,8.8l17.7-34.8c8.2,0.6,16.5,0.4,24.9-0.4l18.6,34.3l34.4-9.7l-2.1-39
						c7.6-3.7,14.7-7.9,21.4-12.7l33.3,20.4l24.9-25.6L625.7,591c4.6-6.9,8.7-14.2,12.1-21.7l39.1,1l8.8-34.7l-34.8-17.7
						c0.6-8.2,0.4-16.5-0.4-24.9l34.3-18.6l-9.7-34.4l-39,2.1c-3.7-7.6-7.9-14.7-12.7-21.4l20.4-33.3l-25.6-24.9l-32.7,21.3
						c-6.9-4.6-14.2-8.7-21.7-12.1l1-39.1l-34.7-8.8l-17.7,34.8c-8.2-0.6-16.5-0.4-24.9,0.4l-18.6-34.3l-34.4,9.7l2.1,39
						c-7.6,3.7-14.7,7.9-21.4,12.7l-33.3-20.4l-24.9,25.6l21.3,32.7c-4.6,6.9-8.7,14.2-12.1,21.7l-39.1-1l-8.8,34.7l34.8,17.7
						c-0.6,8.2-0.4,16.5,0.4,24.9L319,540.6z M476.9,418.9c48.9-13.8,99.8,14.6,113.7,63.6c13.8,48.9-14.6,99.8-63.6,113.7
						c-48.9,13.8-99.8-14.6-113.7-63.6C399.5,483.6,428,432.7,476.9,418.9z"/>
					<path d="M473.9,693.2c-0.2,0-0.3,0-0.5-0.1l-34.7-8.8c-0.9-0.2-1.5-1-1.5-1.9l1-37.8c-6.8-3.2-13.5-6.9-19.8-11l-31.7,20.6
						c-0.8,0.5-1.8,0.4-2.4-0.2l-25.6-24.9c-0.7-0.6-0.8-1.6-0.3-2.4l19.7-32.2c-4.3-6.1-8.2-12.7-11.6-19.5l-37.7,2
						c-0.9,0.1-1.7-0.5-2-1.4l-9.7-34.4c-0.2-0.9,0.1-1.8,0.9-2.2l33.2-18c-0.7-7.6-0.8-15.2-0.4-22.7l-33.6-17.1
						c-0.8-0.4-1.2-1.3-1-2.2l8.8-34.7c0.2-0.9,1-1.5,1.9-1.5l37.8,1c3.2-6.8,6.9-13.5,11.1-19.8l-20.6-31.7
						c-0.5-0.8-0.4-1.8,0.2-2.4l24.9-25.6c0.6-0.7,1.6-0.8,2.4-0.3l32.2,19.7c6.1-4.3,12.6-8.2,19.5-11.6l-2-37.7
						c0-0.9,0.5-1.7,1.4-2l34.4-9.7c0.9-0.2,1.8,0.1,2.2,0.9l18,33.2c7.6-0.7,15.2-0.8,22.7-0.4l17.1-33.6c0.4-0.8,1.3-1.2,2.2-1
						l34.7,8.8c0.9,0.2,1.5,1,1.5,1.9l-1,37.8c6.8,3.2,13.5,6.9,19.8,11.1l31.7-20.6c0.8-0.5,1.8-0.4,2.4,0.2l25.6,24.9
						c0.7,0.6,0.8,1.6,0.3,2.4l-19.7,32.2c4.3,6.1,8.2,12.6,11.6,19.5l37.7-2c0.9,0,1.7,0.5,2,1.4l9.7,34.4c0.2,0.9-0.1,1.8-0.9,2.2
						l-33.2,18c0.7,7.6,0.8,15.2,0.4,22.7l33.6,17.1c0.8,0.4,1.2,1.3,1,2.2l-8.8,34.7c-0.2,0.9-1,1.5-1.9,1.5l-37.8-1
						c-3.2,6.8-6.9,13.5-11.1,19.8l20.6,31.7c0.5,0.8,0.4,1.8-0.2,2.4l-24.9,25.6c-0.6,0.7-1.6,0.8-2.4,0.3l-32.2-19.7
						c-6.1,4.3-12.7,8.2-19.5,11.6l2,37.7c0,0.9-0.5,1.7-1.4,2l-34.4,9.7c-0.9,0.2-1.8-0.1-2.2-0.9l-18-33.2
						c-7.6,0.7-15.2,0.8-22.7,0.4l-17.1,33.6C475.3,692.8,474.6,693.2,473.9,693.2z M441.2,681l31.7,8l17-33.4
						c0.4-0.7,1.1-1.1,1.9-1.1c8.1,0.6,16.3,0.4,24.6-0.4c0.8-0.1,1.5,0.3,1.9,1l17.9,33l31.4-8.9l-2-37.5c0-0.8,0.4-1.5,1.1-1.9
						c7.5-3.6,14.6-7.9,21.2-12.6c0.6-0.5,1.5-0.5,2.1-0.1l31.9,19.6l22.8-23.4L624.1,592c-0.4-0.7-0.4-1.5,0-2.1
						c4.6-6.8,8.6-14,12-21.4c0.3-0.7,1-1.2,1.8-1.1l37.5,1l8-31.7l-33.4-17c-0.7-0.4-1.1-1.1-1.1-1.9c0.6-8,0.4-16.3-0.4-24.6
						c-0.1-0.8,0.3-1.5,1-1.9l33-17.9l-8.9-31.4l-37.5,2c-0.8,0-1.5-0.4-1.9-1.1c-3.6-7.5-7.9-14.6-12.6-21.2
						c-0.5-0.6-0.5-1.5-0.1-2.1l19.6-31.9l-23.4-22.8l-31.4,20.5c-0.7,0.4-1.5,0.4-2.1,0c-6.8-4.6-14-8.6-21.4-12
						c-0.7-0.3-1.2-1-1.1-1.8l1-37.5l-31.7-8l-17,33.4c-0.4,0.7-1.1,1.1-1.9,1.1c-8-0.6-16.3-0.4-24.6,0.4c-0.8,0.1-1.5-0.3-1.9-1
						l-17.9-33l-31.4,8.9l2,37.5c0,0.8-0.4,1.5-1.1,1.9c-7.5,3.6-14.6,7.9-21.2,12.6c-0.6,0.5-1.5,0.5-2.1,0.1l-31.9-19.6
						l-22.8,23.4l20.5,31.4c0.4,0.7,0.4,1.5,0,2.1c-4.6,6.8-8.6,14-12,21.4c-0.3,0.7-1,1.2-1.8,1.1l-37.5-1l-8,31.7l33.4,17
						c0.7,0.4,1.1,1.1,1.1,1.9c-0.6,8-0.4,16.3,0.4,24.6c0.1,0.8-0.3,1.5-1,1.9l-33,17.9l8.9,31.4l37.5-2c0.8,0,1.5,0.4,1.9,1.1
						c3.6,7.5,7.9,14.6,12.6,21.2c0.5,0.6,0.5,1.5,0.1,2.1l-19.6,31.9l23.4,22.8l31.4-20.5c0.7-0.4,1.5-0.4,2.1,0
						c6.8,4.6,14,8.6,21.4,12c0.7,0.3,1.2,1,1.1,1.8L441.2,681z M502,601.5c-41,0-78.8-27.1-90.5-68.5c-14.1-49.9,15-102,64.9-116.1
						l0.5,1.9l-0.5-1.9c24.2-6.8,49.6-3.8,71.5,8.4c21.9,12.3,37.8,32.3,44.6,56.5c6.8,24.2,3.8,49.6-8.4,71.5
						c-12.3,21.9-32.3,37.8-56.5,44.6C519,600.4,510.4,601.5,502,601.5z M502.1,417.3c-8.2,0-16.5,1.1-24.7,3.4
						c-47.8,13.5-75.7,63.4-62.2,111.3c13.5,47.8,63.4,75.7,111.3,62.2c23.2-6.5,42.4-21.7,54.2-42.7c11.8-21,14.6-45.3,8.1-68.5
						c-6.5-23.2-21.7-42.4-42.7-54.2C532.3,421.2,517.3,417.3,502.1,417.3z"/>
				</g>
			</g>
		</g>
		<g>
			<g>
				<g>
					<g>
						<path class="st0" d="M1622.9,162.8h-402.4c-15.7,0-28.4,12.7-28.4,28.4v444c0,15.7,12.7,28.4,28.4,28.4h402.4
							c15.7,0,28.4-12.7,28.4-28.4v-444C1651.4,175.6,1638.6,162.8,1622.9,162.8z"/>
						<path d="M1622.9,665.6h-402.4c-16.7,0-30.4-13.6-30.4-30.4v-444c0-16.7,13.6-30.4,30.4-30.4h402.4c16.7,0,30.4,13.6,30.4,30.4
							v444C1653.3,652,1639.7,665.6,1622.9,665.6z M1220.6,164.8c-14.6,0-26.5,11.9-26.5,26.5v444c0,14.6,11.9,26.5,26.5,26.5h402.4
							c14.6,0,26.5-11.9,26.5-26.5v-444c0-14.6-11.9-26.5-26.5-26.5H1220.6z"/>
					</g>
					<g>
						<path d="M1629.1,211.4h-414.4c-1.1,0-1.9-0.9-1.9-1.9s0.9-1.9,1.9-1.9h414.4c1.1,0,1.9,0.9,1.9,1.9S1630.2,211.4,1629.1,211.4
							z"/>
						<g>
							<circle cx="1222" cy="184.7" r="7.3"/>
							<circle cx="1251.2" cy="184.7" r="7.3"/>
							<circle cx="1280.3" cy="184.7" r="7.3"/>
						</g>
						<path d="M1629.1,186.6h-41.1c-1.1,0-1.9-0.9-1.9-1.9s0.9-1.9,1.9-1.9h41.1c1.1,0,1.9,0.9,1.9,1.9S1630.2,186.6,1629.1,186.6z"
							/>
						<path d="M1569.6,186.6h-170.1c-1.1,0-1.9-0.9-1.9-1.9s0.9-1.9,1.9-1.9h170.1c1.1,0,1.9,0.9,1.9,1.9S1570.7,186.6,1569.6,186.6
							z"/>
						<path d="M1354.8,186.6h-36.2c-1.1,0-1.9-0.9-1.9-1.9s0.9-1.9,1.9-1.9h36.2c1.1,0,1.9,0.9,1.9,1.9S1355.9,186.6,1354.8,186.6z"
							/>
					</g>
				</g>
				<g>
					<g>
						<g>
							<path class="st0" d="M1352.1,400.4c13.3-23.2,37.9-39.6,66.6-42.5l2-113.3c-82.3,0.3-154.9,46.6-188,115.2L1352.1,400.4z"/>
							<path d="M1352.1,402.3c-0.2,0-0.4,0-0.6-0.1L1232,361.5c-0.5-0.2-1-0.6-1.2-1.1c-0.2-0.5-0.2-1.1,0-1.6
								c34-70.4,108.4-116,189.7-116.3c0.6,0,1,0.2,1.4,0.6c0.4,0.4,0.6,0.9,0.6,1.4l-2,113.3c0,1-0.8,1.8-1.7,1.9
								c-27.5,2.8-51.8,18.4-65.1,41.5C1353.4,402,1352.8,402.3,1352.1,402.3z M1235.3,358.6l115.8,39.5c13.7-23,38-38.5,65.5-41.9
								l1.9-109.6C1340.4,247.5,1268.8,291.2,1235.3,358.6z"/>
						</g>
						<path d="M1346.4,277.3c-0.8,0-1.5-0.5-1.8-1.2c-0.4-1,0.1-2.1,1.1-2.5c18.6-7.5,38.2-12.2,58.2-13.9c1.1-0.1,2,0.7,2.1,1.8
							c0.1,1.1-0.7,2-1.8,2.1c-19.6,1.7-38.8,6.3-57.1,13.7C1346.9,277.2,1346.7,277.3,1346.4,277.3z"/>
						<path d="M1280.9,321c-0.5,0-1-0.2-1.4-0.6c-0.8-0.8-0.8-2,0-2.8c14-14.3,30.3-26.4,48.4-35.9c1-0.5,2.1-0.1,2.6,0.8
							c0.5,1,0.1,2.1-0.8,2.6c-17.7,9.3-33.6,21.1-47.4,35.1C1281.9,320.8,1281.4,321,1280.9,321z"/>
						<g>
							<path class="st0" d="M1510.8,450.6c-6.7,37.2-40.7,66.5-82.2,67.8c-12.4,0.4-24.2-1.8-35-5.9l-64.9,100.4
								c30.1,13.6,64.2,20.3,99.8,18.2c103.6-6,185.1-83.9,194.1-177.8L1510.8,450.6z"/>
							<path d="M1416.2,633.4c-30.6,0-60.8-6.4-88.2-18.8c-0.5-0.2-0.9-0.7-1.1-1.2c-0.2-0.5-0.1-1.1,0.2-1.6l64.9-100.4
								c0.5-0.8,1.5-1.1,2.3-0.8c10.8,4.2,22.3,6.2,34.2,5.8c39.8-1.2,73.6-29.1,80.4-66.2c0.2-0.9,1-1.6,2-1.6l111.9,2.7
								c0.5,0,1.1,0.3,1.4,0.7c0.4,0.4,0.5,0.9,0.5,1.5c-9.3,96.5-93.5,173.7-195.9,179.6C1424.5,633.3,1420.3,633.4,1416.2,633.4z
								 M1331.6,612c30,13.1,63.4,19.1,96.9,17.1c99.8-5.7,182-80.4,192.1-174l-108.1-2.6c-7.7,38.1-42.7,66.5-83.8,67.8
								c-11.9,0.4-23.4-1.5-34.3-5.5L1331.6,612z"/>
						</g>
						<path d="M1416,617.2c-21.9,0-43.2-3.5-63.4-10.3c-1-0.3-1.6-1.4-1.2-2.5c0.3-1,1.4-1.6,2.5-1.2c19.8,6.7,40.7,10.1,62.2,10.1
							c3.9,0,7.8-0.1,11.6-0.3c1.1-0.1,2,0.8,2.1,1.8c0.1,1.1-0.8,2-1.8,2.1C1423.9,617.1,1419.9,617.2,1416,617.2z"/>
						<path d="M1468.6,610.2c-0.9,0-1.6-0.6-1.9-1.4c-0.3-1,0.3-2.1,1.4-2.4c68.1-18.6,120.6-72.6,133.9-137.6
							c0.2-1.1,1.2-1.7,2.3-1.5c1.1,0.2,1.7,1.2,1.5,2.3c-13.6,66.5-67.2,121.7-136.7,140.6C1469,610.1,1468.8,610.2,1468.6,610.2z"
							/>
						<g>
							<path class="st0" d="M1308.5,602.3l65.5-100.7c-19.6-14.5-32.2-37.1-32.2-62.6c0-6.2,0.7-12.2,2.1-18L1224,380.7
								c-6.4,18.9-9.9,39-9.9,59.8C1214.1,509.4,1251.9,568.7,1308.5,602.3z"/>
							<path d="M1308.5,604.3c-0.3,0-0.7-0.1-1-0.3c-59.7-35.4-95.3-96.5-95.3-163.5c0-20.6,3.4-40.9,10-60.4c0.3-1,1.4-1.6,2.5-1.2
								l119.9,40.2c1,0.3,1.5,1.3,1.3,2.3c-1.4,5.7-2.1,11.7-2.1,17.6c0,24.1,11.4,46.3,31.4,61.1c0.8,0.6,1,1.8,0.5,2.6
								l-65.5,100.7C1309.7,604,1309.1,604.3,1308.5,604.3z M1225.2,383.2c-6.1,18.5-9.2,37.8-9.2,57.3
								c0,64.9,34.3,124.3,91.8,159.2l63.4-97.6c-20-15.5-31.5-38.4-31.5-63.1c0-5.6,0.6-11.2,1.8-16.7L1225.2,383.2z"/>
						</g>
					</g>
					<g>
						<g>
							<path class="st0" d="M1455.8,353.6c37.8,5.6,66.9,35,70.4,71.2l183,5.3c0-0.1,0-0.2,0-0.2c0-134.2-106.9-249.1-250.1-263.9
								L1455.8,353.6z"/>
							<path d="M1709.1,432C1709.1,432,1709.1,432,1709.1,432l-183-5.3c-1,0-1.8-0.8-1.9-1.8c-3.4-35.4-31.6-63.9-68.7-69.5
								c-1-0.1-1.7-1-1.7-2l3.3-187.6c0-0.5,0.2-1.1,0.7-1.4c0.4-0.4,0.9-0.5,1.5-0.5c69.5,7.2,133.4,38.3,179.9,87.8
								c46.4,49.2,71.9,112.4,71.9,178.1c0,0.5-0.2,1.1-0.6,1.5C1710.1,431.7,1709.6,432,1709.1,432z M1527.9,422.9l179.3,5.2
								c-0.9-133.3-106.3-244.5-246.2-259.9l-3.2,183.8C1495.2,358.2,1523.7,387,1527.9,422.9z"/>
						</g>
					</g>
				</g>
			</g>
			<g>
				<g>
					<path class="st0" d="M1250.7,381.5h-239.5c-11.8,0-21.4,9.6-21.4,21.4v318.2c0,11.8,9.6,21.4,21.4,21.4h239.5
						c11.8,0,21.4-9.6,21.4-21.4V402.9C1272,391.1,1262.5,381.5,1250.7,381.5z"/>
					<path d="M1250.7,744.4h-239.5c-12.9,0-23.3-10.5-23.3-23.3V402.9c0-12.9,10.5-23.3,23.3-23.3h239.5c12.9,0,23.3,10.5,23.3,23.3
						v318.2C1274,733.9,1263.5,744.4,1250.7,744.4z M1011.2,383.5c-10.7,0-19.4,8.7-19.4,19.4v318.2c0,10.7,8.7,19.4,19.4,19.4
						h239.5c10.7,0,19.4-8.7,19.4-19.4V402.9c0-10.7-8.7-19.4-19.4-19.4H1011.2z"/>
				</g>
				<g>
					<g>
						<rect x="1023.4" y="484.7" class="st0" width="61.5" height="202"/>
						<path d="M1084.8,688.6h-61.5c-1.1,0-1.9-0.9-1.9-1.9v-202c0-1.1,0.9-1.9,1.9-1.9h61.5c1.1,0,1.9,0.9,1.9,1.9v202
							C1086.8,687.7,1085.9,688.6,1084.8,688.6z M1025.3,684.7h57.6V486.6h-57.6V684.7z"/>
					</g>
					<g>
						<rect x="1100.2" y="428.9" class="st0" width="61.5" height="257.8"/>
						<path d="M1161.7,688.6h-61.5c-1.1,0-1.9-0.9-1.9-1.9V428.9c0-1.1,0.9-1.9,1.9-1.9h61.5c1.1,0,1.9,0.9,1.9,1.9v257.8
							C1163.6,687.7,1162.7,688.6,1161.7,688.6z M1102.1,684.7h57.6V430.9h-57.6V684.7z"/>
					</g>
					<g>
						<rect x="1177" y="566.2" class="st0" width="61.5" height="120.4"/>
						<path d="M1238.5,688.6H1177c-1.1,0-1.9-0.9-1.9-1.9V566.2c0-1.1,0.9-1.9,1.9-1.9h61.5c1.1,0,1.9,0.9,1.9,1.9v120.4
							C1240.4,687.7,1239.6,688.6,1238.5,688.6z M1179,684.7h57.6V568.2H1179V684.7z"/>
					</g>
				</g>
			</g>
		</g>
		<g>
			<g>
				<g>
					<polygon class="st0" points="772.9,1467.9 778.3,1519.1 812.9,1523.2 812.9,1462.5 					"/>
					<path d="M812.9,1525.1c-0.1,0-0.2,0-0.2,0l-34.6-4.1c-0.9-0.1-1.6-0.8-1.7-1.7l-5.4-51.2c-0.1-1,0.6-2,1.7-2.1l40-5.4
						c0.6-0.1,1.1,0.1,1.5,0.5c0.4,0.4,0.7,0.9,0.7,1.5v60.7c0,0.6-0.2,1.1-0.7,1.5C813.9,1524.9,813.4,1525.1,812.9,1525.1z
						 M780.1,1517.3l30.9,3.6v-56.3l-35.9,4.9L780.1,1517.3z"/>
				</g>
				<g>
					<path class="st0" d="M818.4,1612.2c-14.4,2-38.1,3.8-65.8,0c-9.1-1.3-15.1-10.1-12.9-19c6.1-24.8,16.6-72,34.7-93.8l4.5,11.8
						l6.2-11.2c0.8-1.5,2.4-2.6,4.1-2.8l13.6-1.7c2.8-0.4,5.5,1.5,6.1,4.3l2.2,10.3l4.7-13.5l15.8,98.2
						C832.6,1603.3,826.8,1611.1,818.4,1612.2z"/>
					<path d="M785.7,1616.4c-10.1,0-21.4-0.6-33.4-2.3c-4.9-0.7-9.3-3.4-12.1-7.5c-2.8-4.1-3.7-9.1-2.5-13.9l1.3-5.4
						c6.2-25.6,16.7-68.5,33.8-89.2c0.4-0.5,1.1-0.8,1.8-0.7c0.7,0.1,1.3,0.6,1.5,1.2l3,7.9l4.2-7.5c1.1-2.1,3.2-3.5,5.6-3.8
						l13.6-1.7c3.8-0.5,7.4,2.1,8.2,5.8l0.7,3.5l2.4-6.9c0.3-0.8,1.1-1.4,2-1.3c0.9,0.1,1.6,0.7,1.7,1.6l15.8,98.2
						c1.3,9.5-5.4,18.2-14.8,19.6l-0.3-1.9l0.3,1.9C810.2,1615.4,798.9,1616.4,785.7,1616.4z M773.7,1503.3
						c-15.3,20.9-25,60.8-30.9,85l-1.3,5.4c-0.9,3.8-0.2,7.6,1.9,10.8c2.2,3.2,5.6,5.3,9.4,5.8c27.3,3.8,50.6,2.1,65.3,0
						c7.3-1,12.4-7.8,11.5-15.1l-14.6-90.6l-2.2,6.3c-0.3,0.8-1.1,1.4-2,1.3c-0.9-0.1-1.6-0.7-1.8-1.5l-2.2-10.3
						c-0.4-1.8-2.1-3-3.9-2.8l-13.6,1.7c-1.1,0.1-2.1,0.8-2.7,1.8l-6.2,11.2c-0.4,0.7-1.1,1-1.8,1c-0.8-0.1-1.4-0.5-1.7-1.3
						L773.7,1503.3z"/>
				</g>
				<path d="M778.3,1600c-9.2,0-19.2-0.8-29.2-3.1c-1-0.2-1.7-1.3-1.5-2.3c0.2-1,1.3-1.7,2.3-1.5c33.9,7.7,69.4-2.2,69.8-2.3
					c1-0.3,2.1,0.3,2.4,1.3c0.3,1-0.3,2.1-1.3,2.4C819.8,1594.8,801.4,1600,778.3,1600z"/>
				<path d="M770,1561.9c-1,0-1.9-0.8-1.9-1.9c0-1.1,0.8-2,1.9-2l32.4-1.1c1.1,0,2,0.8,2,1.9c0,1.1-0.8,2-1.9,2L770,1561.9
					C770.1,1561.9,770,1561.9,770,1561.9z"/>
				<g>
					<polygon class="st0" points="935,1440.7 940.2,1515.4 981.8,1515.4 983.8,1440.7 					"/>
					<path d="M981.8,1517.3h-41.6c-1,0-1.9-0.8-1.9-1.8l-5.2-74.7c0-0.5,0.2-1.1,0.5-1.5c0.4-0.4,0.9-0.6,1.4-0.6h48.8
						c0.5,0,1,0.2,1.4,0.6c0.4,0.4,0.6,0.9,0.6,1.4l-1.9,74.7C983.8,1516.5,982.9,1517.3,981.8,1517.3z M942,1513.4h37.9l1.8-70.8
						h-44.7L942,1513.4z"/>
				</g>
				<g>
					<path class="st0" d="M929.3,1557.5c-0.1,7.1,4.7,13.3,11.6,14.9c23.9,5.6,77.9,18,93.2,20.3c20,3,44.5-3.1,55-14.8
						c10.5-11.7-23.6-39.6-39.8-49.7c-24.1-15.1-47.2-44.9-56.9-46.2c-9.7-1.3-27.8,26.8-27.8,26.8l-29.6-12.4
						C935,1496.3,929.9,1521.7,929.3,1557.5z"/>
					<path d="M1044.6,1595.3c-3.6,0-7.2-0.2-10.7-0.8c-15.5-2.3-70.5-15-93.4-20.3c-7.7-1.8-13.2-8.9-13.1-16.8
						c0.5-35.6,5.7-61.3,5.7-61.6c0.1-0.6,0.5-1.1,1-1.3c0.5-0.3,1.1-0.3,1.7-0.1l28.1,11.8c4.6-6.9,19.2-27.6,28.8-26.3
						c5.5,0.8,13.3,8.2,24.2,18.5c10.1,9.6,21.6,20.5,33.5,27.9c13,8.1,40.6,29.7,42.6,44.3c0.5,3.3-0.3,6.1-2.4,8.3
						C1081.8,1589,1062.9,1595.3,1044.6,1595.3z M936.5,1499c-1.2,7.1-4.8,29.4-5.2,58.5c-0.1,6.1,4.2,11.6,10.1,12.9
						c22.9,5.3,77.7,17.9,93.1,20.2c20,3,43.4-3.3,53.3-14.2c1.2-1.4,1.7-3.1,1.4-5.2c-1.7-12.4-27.4-33.2-40.8-41.6
						c-12.2-7.6-23.8-18.7-34.1-28.4c-9.2-8.7-17.8-16.9-22.1-17.5c-6.2-0.9-19.2,15.5-25.9,25.9c-0.5,0.8-1.5,1.1-2.4,0.7
						L936.5,1499z M929.3,1557.5L929.3,1557.5L929.3,1557.5z"/>
				</g>
				<path d="M1044.2,1581.7c-43.3,0-101.4-23.5-104.7-24.8c-1-0.4-1.5-1.5-1.1-2.5c0.4-1,1.5-1.5,2.5-1.1c1.1,0.4,106.5,43,137.6,15
					c0.8-0.7,2-0.7,2.7,0.1c0.7,0.8,0.7,2-0.1,2.7C1072.6,1578.8,1059.3,1581.7,1044.2,1581.7z"/>
				<path d="M998.1,1536.4c-0.5,0-1.1-0.2-1.4-0.6c-0.7-0.8-0.7-2,0.1-2.7l21.2-19.1c0.8-0.7,2-0.7,2.7,0.1c0.7,0.8,0.7,2-0.1,2.7
					l-21.2,19.1C999,1536.2,998.5,1536.4,998.1,1536.4z"/>
				<path d="M761.1,953.8c0,0-12.9,233.5-19.7,314.1c-6.8,80.6,15.8,210.1,15.8,210.1l64.3-3.4c0,0,4.4-157.5,9.2-201.3
					c0,0,27.1-59.3,35.2-112.2c8-52.9,35.5-136.4,35.5-136.4s22.3,416.9,24.4,449.7c0,0,50.4,2.2,68.5-9.1c0,0,32-152,27.4-234.7
					c-4.6-82.7,0.5-288.2,0.5-288.2L761.1,953.8z"/>
				<path class="st0" d="M818.9,1275.3h-19.6c-1.1,0-1.9-0.9-1.9-1.9c0-1.1,0.9-1.9,1.9-1.9h19.6c1.1,0,1.9,0.9,1.9,1.9
					C820.8,1274.4,820,1275.3,818.9,1275.3z"/>
				<path class="st0" d="M958.8,1396.6C958.8,1396.6,958.8,1396.6,958.8,1396.6c-1.1,0-2-0.9-1.9-2c0.7-38.5,43-107.6,44.8-110.5
					c0.6-0.9,1.8-1.2,2.7-0.6c0.9,0.6,1.2,1.8,0.6,2.7c-0.4,0.7-43.5,71.1-44.2,108.6C960.8,1395.7,959.9,1396.6,958.8,1396.6z"/>
			</g>
			<g>
				<g>
					<path class="st0" d="M1042.5,580.4c4.7-0.4,27.6,46.7,99.5,44.7c71.9-2,129.5-82.4,129.5-82.4s24.8-41.9,43.7-57
						c18.8-15.1,21.8-17.1,21.8-17.1s5.9,7.9,0,17.1c-5.9,9.3-22.2,26.6-22.2,26.6s18,9.9,9.9,30.4c-9.3,23.6-35.6,21.7-35.6,21.7
						s-53.3,235.9-273.5,123.8L1042.5,580.4z"/>
					<path d="M1124.7,720.4c-33.4,0-70.3-10.2-110.1-30.4c-0.8-0.4-1.2-1.3-1-2.2l26.9-107.8c0.2-0.8,0.9-1.4,1.7-1.5
						c1.9-0.2,3.4,1.5,7.1,5.6c10.9,12.1,36.4,40.6,92.5,39c70.1-1.9,127.4-80.8,128-81.6c0.9-1.6,25.1-42.2,44-57.4
						c18.7-15,21.8-17.1,21.9-17.2c0.9-0.6,2-0.4,2.6,0.4c0.3,0.4,6.6,9.1,0.1,19.3c-4.9,7.7-16.6,20.6-20.9,25.2
						c4.7,3.5,15.6,14,8.7,31.5c-8.3,21.1-29.7,22.9-35.9,23c-3.4,13.1-29.4,105.7-103.7,140.5C1167.7,716,1147,720.4,1124.7,720.4z
						 M1017.8,687.2c64.6,32.6,120.9,38,167.4,16.2c77.9-36.5,101.7-138.4,101.9-139.4c0.2-0.9,1.1-1.6,2-1.5
						c1,0.1,25,1.5,33.6-20.5c7.4-18.6-8.3-27.6-9-28c-0.5-0.3-0.9-0.8-1-1.4c-0.1-0.6,0.1-1.2,0.5-1.6c0.2-0.2,16.2-17.3,22-26.3
						c3.6-5.6,2.2-10.7,1-13.2c-2.4,1.8-7.9,6.1-20,15.8c-18.3,14.7-43,56-43.2,56.5c-0.7,1-59.1,81.4-131.1,83.3
						c-1.5,0-3,0.1-4.5,0.1c-54.8,0-80.1-28.2-91-40.4c-1-1.1-2-2.3-2.9-3.1L1017.8,687.2z"/>
				</g>
				<g>
					<path class="st0" d="M686.3,688.3c0,0,21.6-139.2,97.8-173.5c76.2-34.2,179.3-29.5,207.7-12.4c28.4,17.1,102.5,94.4,102.5,94.4
						l-65.5,91.4c0,0,15,246,3.1,311c0,0-72.8,8.5-103.7-3.7c-30.9-12.2-132.5-29.2-181-6.9l8.8-311.5L686.3,688.3z"/>
					<path d="M980.5,1004.1c-19.3,0-39.8-1.5-53-6.7c-30.4-12-131-29.2-179.5-6.9c-0.6,0.3-1.3,0.2-1.9-0.1c-0.6-0.4-0.9-1-0.9-1.7
						l8.8-309.2l-67.4,10.7c-0.6,0.1-1.2-0.1-1.7-0.5c-0.4-0.4-0.6-1.1-0.5-1.7c0.9-5.7,22.6-140.6,98.9-174.9
						c75.1-33.8,178.9-30.7,209.5-12.3c28.3,17,99.9,91.6,102.9,94.8c0.6,0.7,0.7,1.7,0.2,2.5l-65.1,90.8
						c0.9,14.5,14.5,248,3.1,310.8c-0.2,0.8-0.8,1.5-1.7,1.6C1030.4,1001.4,1006.5,1004.1,980.5,1004.1z M813.2,975.9
						c46.1,0,95.8,10.1,115.7,17.9c27.7,10.9,91,4.8,101.3,3.7c11.2-66.1-3.3-306.7-3.4-309.1c0-0.4,0.1-0.9,0.4-1.3l64.5-90.1
						c-9.4-9.7-75-77.3-101-93C964,488,861.1,482.3,784.8,516.6c-68.6,30.8-92.7,150-96.2,169.3l67.1-10.7c0.6-0.1,1.2,0.1,1.6,0.5
						c0.4,0.4,0.7,0.9,0.7,1.5l-8.7,308.4C766.4,978.6,789.3,975.9,813.2,975.9z"/>
				</g>
				<path d="M814.1,926.4c-0.9,0-1.7-0.7-1.9-1.6c-0.2-1.1,0.5-2.1,1.6-2.3c115.8-20.5,149.6-100.7,149.9-101.5
					c0.4-1,1.5-1.5,2.5-1.1c1,0.4,1.5,1.5,1.1,2.5c-0.3,0.8-34.8,83-152.9,103.8C814.3,926.4,814.2,926.4,814.1,926.4z"/>
				<polygon points="1023.3,785.6 875,785.6 921.4,620 1069.7,620 				"/>
				<g>
					<path class="st0" d="M699.3,688.8l75-33.5c0,0-10.6,127.1,141.3,68.4c0,0-5.6-16.3-4.8-35.4c0.8-19.1,12.2-0.6,13.8,14.9
						c1.6,15.5,37.2,9.2,58.7,3.1c21.4-6.1,49.5-2.1,0,25.2c-49.5,27.3-60.4,15.1-60.4,15.1s-63.3,88.5-142,69.7
						C684.1,793.2,699.3,688.8,699.3,688.8z"/>
					<path d="M802.9,820.9c-7.3,0-14.8-0.8-22.4-2.6c-50.9-12.2-70.8-46.8-78.5-73.8c-8.3-29.1-4.7-54.8-4.5-55.9
						c0.1-0.7,0.5-1.2,1.1-1.5l75-33.5c0.6-0.3,1.4-0.2,1.9,0.2c0.6,0.4,0.9,1.1,0.8,1.7c0,0.5-3.5,46.6,26.8,69.2
						c23.4,17.5,60.4,16.8,110.1-2.1c-1.4-4.8-5-18.6-4.3-34.3c0.1-2.4,0.4-9.9,4.9-10c0,0,0.1,0,0.1,0c5.9,0,11.6,14.7,12.7,24.8
						c0.2,2.1,1.2,3.7,3.1,5c8.9,6,34.2,1.8,53.1-3.6c9.9-2.8,26.8-4.7,29.7,2.3c2.5,6-6.7,14.7-28.2,26.5
						c-40.6,22.4-56,18.9-60.9,16.1C915.2,760,865.7,820.9,802.9,820.9z M701.1,690.1c-0.6,5.1-2.6,28.3,4.6,53.4
						c10.8,37.7,36.3,61.5,75.6,71c7.3,1.7,14.5,2.5,21.6,2.5c66.4,0,117.8-70.7,118.4-71.5c0.3-0.5,0.9-0.8,1.5-0.8
						c0.6,0,1.2,0.2,1.6,0.6c0.1,0.1,11.2,10.3,58-15.5c28-15.5,26.7-21,26.5-21.6c-1.2-2.9-12.6-3.6-25,0c-10,2.9-43.8,11.6-56.4,3
						c-2.8-1.9-4.4-4.5-4.8-7.8c-1.2-11.3-6.9-20.9-8.8-21.3c0,0.1-0.9,1.1-1.1,6.3c-0.8,18.5,4.6,34.6,4.7,34.7
						c0.3,1-0.2,2.1-1.1,2.4c-51.9,20.1-90.8,20.8-115.6,2.3c-27.5-20.6-28.8-58.2-28.5-69.4L701.1,690.1z"/>
				</g>
			</g>
			<g>
				<path d="M899.6,451.4c-6.5,5.9-19.2,13.2-29.1,8.2c-7.4-3.7-11.5-13.4-11.3-24.4c-3.4,0.3-7.9,0-11.1-2.8
					c-4.9-4.4-4-12.4-3.8-17.6c0.9-24.3-13.2-28-9.8-44.5c2.7-13,12.9-20.7,14.8-22.1c9.6-7.3,16.1-4.9,32.3-9.2
					c27.2-7.1,28-18.8,46-18.9c1,0,25.4,0.3,33.7,17.1c6.7,13.7-1.1,30.3-9.3,39.1c-10.5,11.3-18.1,5.7-28.6,15.2
					C904.9,408.2,918.9,433.8,899.6,451.4z"/>
				<g>
					<path class="st0" d="M953.9,408l-1.1-0.9c-5.4-4.6-11-10-12.4-17c-6.1-29.6-33.2-40.3-34.4-13.2c-0.3,6.9-25.3,6.5-22.4,13.7
						c7.7,18.7,7.9,13.7-3,20.6c-1.2,0.1-2.5,0.3-3.6,0.9c-5.6,2.6-7.6,10.2-4.4,17c1.9,4.1,5.3,6.9,8.9,8v29.6
						c0,11.1-6.7,21.1-17,25.3l-10,4.1c0,0,46.6,30.4,94-3l-6.3-2.8c-11.1-5-18.4-15.9-18.8-28.1l-0.1-5.8c3.2,0.3,6.3,0.1,9.1-0.8
						c13.2-3.9,17.6-19.1,15.4-38.1l5.4-2.9C955.7,413.4,956,409.9,953.9,408z"/>
					<path d="M900.6,510.7c-26.9,0-46.9-12.7-47.2-12.9c-0.6-0.4-0.9-1.1-0.9-1.8c0.1-0.7,0.5-1.3,1.2-1.6l10-4.1
						c9.6-3.9,15.8-13.1,15.8-23.5v-28.2c-3.7-1.5-6.8-4.5-8.7-8.5c-3.6-7.7-1.2-16.5,5.4-19.6c1.2-0.6,2.5-0.9,3.8-1
						c1.8-1.1,3.3-1.9,4.5-2.6c1.4-0.7,2.7-1.4,2.7-1.8c0.1-0.9-1-3.4-2.5-6.8c-0.8-1.8-1.8-4.1-2.9-6.8c-0.5-1.3-0.5-2.6,0.1-3.8
						c1.5-3.1,6.3-4.4,11.9-6c4-1.1,10.1-2.8,10.2-4.7c0.7-15,8.5-17.2,11.8-17.4c9.6-0.7,22.4,10.6,26.4,30.3
						c1.3,6.4,6.8,11.6,11.8,15.9l1.1,0.9c1.5,1.3,2.3,3.2,2.1,5.2c-0.2,2-1.4,3.7-3.1,4.6l-4.2,2.3c2.2,21-4,35.1-16.9,38.8
						c-2.4,0.7-5,1-7.7,0.9l0,3.7c0.4,11.3,7.3,21.7,17.7,26.3l6.3,2.8c0.6,0.3,1.1,0.9,1.1,1.6c0.1,0.7-0.2,1.4-0.8,1.8
						C932.5,506.8,915.5,510.7,900.6,510.7z M858.9,496.4c11.1,5.8,48,21.5,85.6-2.9l-3.1-1.4c-11.7-5.3-19.6-17-20-29.8l-0.1-5.8
						c0-0.5,0.2-1.1,0.6-1.4c0.4-0.4,0.9-0.6,1.5-0.5c3.1,0.3,5.9,0,8.4-0.7c11.2-3.3,16.3-16.4,14-36c-0.1-0.8,0.3-1.6,1-1.9
						l5.4-2.9c0.6-0.3,1-0.9,1.1-1.6c0.1-0.7-0.2-1.4-0.7-1.8c0,0,0,0,0,0l-1.1-0.9c-5.5-4.7-11.5-10.4-13-18.1
						c-3.5-17-14.4-27.8-22.3-27.2c-4.9,0.4-7.9,5.4-8.3,13.7c-0.2,4.7-6.5,6.4-13.1,8.3c-3.7,1-8.7,2.5-9.5,4c0,0.1-0.1,0.2,0,0.6
						c1.1,2.7,2.1,4.9,2.9,6.7c3.7,8.4,4.4,10.2-2,13.6c-1.2,0.7-2.8,1.5-4.7,2.7c-0.3,0.2-0.6,0.3-1,0.3c-1,0-2,0.3-2.9,0.7
						c-4.6,2.2-6.2,8.6-3.5,14.4c1.6,3.4,4.5,6,7.7,6.9c0.8,0.2,1.4,1,1.4,1.9v29.6c0,11.9-7.1,22.6-18.2,27.1L858.9,496.4z"/>
				</g>
				<path d="M923.2,458.4c-0.1,0-0.2,0-0.3,0c-19.1-2.9-27.7-17.5-28-18.1c-0.5-0.9-0.2-2.1,0.7-2.7c0.9-0.5,2.1-0.2,2.7,0.7
					c0.1,0.1,8.1,13.6,25.2,16.2c1.1,0.2,1.8,1.2,1.6,2.2C925,457.7,924.2,458.4,923.2,458.4z"/>
			</g>
		</g>
		<g>
			<path d="M290.9,714.8c-2.4,0-4.9-0.5-7.2-1.5c-4.5-1.9-8-5.5-9.9-10.1c-3.8-9.4,0.8-20.2,10.2-24c9.4-3.8,20.2,0.8,24,10.2
				c3.8,9.4-0.8,20.2-10.2,24C295.6,714.3,293.2,714.8,290.9,714.8z M290.9,681.8c-1.8,0-3.6,0.3-5.4,1.1c-7.4,3-11,11.5-8,18.9
				c1.5,3.6,4.2,6.4,7.8,7.9c3.6,1.5,7.5,1.6,11.1,0.1c7.4-3,11-11.5,8-18.9C302.1,685.2,296.6,681.8,290.9,681.8z"/>
			<g>
				<path d="M1650.1,755.7c-0.5,0-1-0.2-1.3-0.5c-0.8-0.7-0.8-2-0.1-2.8l9.1-9.5c0.7-0.8,2-0.8,2.8-0.1c0.8,0.7,0.8,2,0.1,2.8
					l-9.1,9.5C1651.2,755.5,1650.7,755.7,1650.1,755.7z"/>
				<path d="M1618.2,789c-0.5,0-1-0.2-1.3-0.5c-0.8-0.7-0.8-2-0.1-2.8l9.1-9.5c0.7-0.8,2-0.8,2.8-0.1c0.8,0.7,0.8,2,0.1,2.8
					l-9.1,9.5C1619.3,788.8,1618.8,789,1618.2,789z"/>
				<path d="M1627.2,756.2c-0.5,0-1-0.2-1.4-0.6l-9.3-9.1c-0.8-0.8-0.8-2,0-2.8c0.8-0.8,2-0.8,2.8,0l9.3,9.1c0.8,0.8,0.8,2,0,2.8
					C1628.2,756,1627.7,756.2,1627.2,756.2z"/>
				<path d="M1659.6,788.1c-0.5,0-1-0.2-1.4-0.6l-9.3-9.1c-0.8-0.8-0.8-2,0-2.8c0.8-0.8,2-0.8,2.8,0l9.3,9.1c0.8,0.8,0.8,2,0,2.8
					C1660.6,787.9,1660.1,788.1,1659.6,788.1z"/>
			</g>
			<g>
				<path d="M989.7,199.5c-0.5,0-1-0.2-1.3-0.5c-0.8-0.7-0.8-2-0.1-2.7l9.1-9.5c0.7-0.8,2-0.8,2.8-0.1c0.8,0.7,0.8,2,0.1,2.7
					l-9.1,9.5C990.7,199.3,990.2,199.5,989.7,199.5z"/>
				<path d="M957.8,232.8c-0.5,0-1-0.2-1.3-0.5c-0.8-0.7-0.8-2-0.1-2.7l9.1-9.5c0.7-0.8,2-0.8,2.8-0.1c0.8,0.7,0.8,2,0.1,2.7
					l-9.1,9.5C958.8,232.6,958.3,232.8,957.8,232.8z"/>
				<path d="M966.7,200c-0.5,0-1-0.2-1.4-0.6l-9.3-9.1c-0.8-0.8-0.8-2,0-2.8c0.8-0.8,2-0.8,2.8,0l9.3,9.1c0.8,0.8,0.8,2,0,2.8
					C967.7,199.8,967.2,200,966.7,200z"/>
				<path d="M999.1,231.9c-0.5,0-1-0.2-1.4-0.6l-9.3-9.1c-0.8-0.8-0.8-2,0-2.8c0.8-0.8,2-0.8,2.8,0l9.3,9.1c0.8,0.8,0.8,2,0,2.8
					C1000.1,231.7,999.6,231.9,999.1,231.9z"/>
			</g>
		</g>
		<g>
			<g>
				<g>
					<g>
						<polygon class="st0" points="709.2,1421.6 679.7,1724 658.6,1723.1 669.1,1405.2 						"/>
						<path d="M679.7,1726C679.7,1726,679.6,1726,679.7,1726l-21.2-0.9c-1.1,0-1.9-0.9-1.9-2l10.5-318c0-0.6,0.4-1.2,0.9-1.6
							c0.5-0.3,1.2-0.4,1.8-0.2l40.1,16.4c0.8,0.3,1.3,1.1,1.2,2l-29.5,302.4C681.5,1725.2,680.7,1726,679.7,1726z M660.6,1721.3
							l17.3,0.7l29.2-299.2l-36.2-14.8L660.6,1721.3z"/>
					</g>
					<g>
						<polygon class="st0" points="313,1410.7 341.9,1724.8 363.6,1723.1 353.2,1393.7 						"/>
						<path d="M341.9,1726.7c-1,0-1.8-0.8-1.9-1.8l-28.8-314.1c-0.1-0.8,0.4-1.6,1.2-2l40.1-17c0.6-0.3,1.3-0.2,1.8,0.2
							c0.5,0.3,0.9,0.9,0.9,1.6l10.5,329.4c0,1-0.8,1.9-1.8,2l-21.8,1.6C342,1726.7,341.9,1726.7,341.9,1726.7z M315.1,1411.9
							l28.5,310.8l18-1.4l-10.3-324.7L315.1,1411.9z"/>
					</g>
					<g>
						<polygon class="st0" points="212.7,1336.8 221.2,1666.6 238.2,1662.9 253.8,1321.1 						"/>
						<path d="M221.2,1668.5c-0.4,0-0.9-0.1-1.2-0.4c-0.5-0.4-0.7-0.9-0.7-1.5l-8.5-329.8c0-0.8,0.5-1.6,1.3-1.9l41.1-15.7
							c0.6-0.2,1.3-0.1,1.8,0.2c0.5,0.4,0.8,1,0.8,1.7L240.1,1663c0,0.9-0.7,1.6-1.5,1.8l-17,3.7
							C221.5,1668.5,221.3,1668.5,221.2,1668.5z M214.7,1338.1l8.4,326.1l13.3-2.9l15.4-337.3L214.7,1338.1z"/>
					</g>
					<polygon class="st0" points="545.2,1329.4 553.7,1659.2 571.3,1659.3 586.3,1313.7 					"/>
					<g>
						<path class="st0" d="M459.8,1071.8v76.7c0,75.1,59.2,135.9,132.2,135.9c73,0,132.2,60.8,132.2,135.9c0,6.7-5.4,12.1-12.1,12.1
							h-350c-109.5,0-198.2-91.2-198.2-203.7V1065c0-44.7,35.3-81,78.8-81h131.5C421.5,984,459.8,1023.3,459.8,1071.8z"/>
						<path d="M712.1,1434.4h-350c-110.4,0-200.1-92.3-200.1-205.7V1065c0-45.8,36.2-83,80.8-83h131.5c48.2,0,87.4,40.3,87.4,89.8
							v76.7c0,73.9,58.4,133.9,130.3,133.9c74,0,134.2,61.8,134.2,137.8C726.1,1428.1,719.8,1434.4,712.1,1434.4z M242.8,985.9
							c-42.4,0-76.9,35.5-76.9,79.1v163.7c0,111.3,88,201.8,196.3,201.8h350c5.6,0,10.1-4.6,10.1-10.2
							c0-73.9-58.4-133.9-130.3-133.9c-74,0-134.2-61.8-134.2-137.8v-76.7c0-47.4-37.5-85.9-83.5-85.9H242.8z"/>
					</g>
				</g>
				<g>
					<g>
						<path d="M130,928.6c-5.4-2.2-10.1-6.1-13.1-11.4c-4.4-7.8-6.8-20.4,3.1-38.4c22.3-40.6,59.6-21.4,73.9-26.1
							c32-10.5,24.4-27.8,37.4-44.6c9.7-12.6,43.3-36.3,94.3,7.9c0,0,22.9,31.2,48.8,19.4c31.9-14.6,95.9,18.4,75.7,67.6
							c-5.8,14.2-16.4,25.1-29.2,31c-2.3,1.1-4.9,2.1-7.6,3.1c-8,2.8-14.2,9.9-16.2,19.1c-6.5,29.9-31.2,87.7-122.7,29.6
							c-6.9-4.4-15.1-4.9-22.2-1.6c-8.8,4.1-18.3,19.9-60.6,13.2c-27.2-4.3-35.8-35.9-43-50.3C142.9,935.4,134.7,930.6,130,928.6z"
							/>
					</g>
					<g>
						<g>
							<path class="st0" d="M600.8,1149.5c-36,11.3-105-20-116.8-72.4c-9.3-41.6-23.9-62.6-29.5-69.6c-2.7-4.6-6.2-8.9-10.9-13
								c-33.5-29.5-91.6-19.9-116.8-15.8c-28.5,4.7-52.1,8.6-68.2,26.7c-4.3,4.8-7.3,9.8-9.4,15.2l0,0c-30.7,57.8-5.8,117.5,9.5,145
								c2.5,110.5-34,93.2-24.1,142.2c13.9,69.1,125.3,43.3,165.8,34.5c14.2-3.1,88.6,19,106.8-38.4c10.6-33.5-9.6-49-27.4-105.9
								c91.2,56.7,159-40,159-40l7-33.9C645.9,1123.9,627.5,1141.1,600.8,1149.5z"/>
							<path d="M313.6,1356.3c-21.6,0-42.4-3.4-57.8-13.4c-12.3-8-20-19.7-23.1-34.7c-4.4-22,0.2-31.1,6.6-43.6
								c8-15.6,18.9-36.9,17.5-98.5c-16.7-30.2-39.8-89-9.3-146.4c2.2-5.7,5.4-10.8,9.7-15.6c16.5-18.6,41-22.6,69.3-27.3
								c25.2-4.1,84.1-13.8,118.4,16.3c4.7,4.1,8.4,8.5,11.2,13.4c5.9,7.4,20.5,28.7,29.8,70.3c5.1,22.6,22.1,43.7,46.8,57.9
								c23.3,13.5,49.8,18.6,67.5,13c25.9-8.1,44.1-24.9,44.3-25.1c0.6-0.6,1.5-0.7,2.3-0.3c0.7,0.4,1.1,1.3,1,2.1l-7,33.9
								c-0.1,0.3-0.2,0.5-0.3,0.7c-0.2,0.2-17.5,24.7-45.9,41.8c-25.5,15.4-65.2,27.7-111.3,1.4c5.7,17.3,11.5,30.7,16.4,41.7
								c10,22.9,16.6,38,9.4,60.5c-14.8,46.7-65.5,42.5-92.7,40.2c-6.9-0.6-12.8-1.1-15.5-0.5l-2.5,0.6
								C378.2,1349,345.1,1356.3,313.6,1356.3z M250.9,1021.6c-29.6,56.1-6.7,113.6,9.6,143c0.2,0.3,0.2,0.6,0.2,0.9
								c1.4,62.9-9.8,84.8-17.9,100.8c-6.3,12.3-10.4,20.4-6.2,41c2.8,14,10,24.8,21.4,32.2c36.5,23.8,106.1,8.6,139.5,1.3l2.5-0.6
								c3.3-0.7,8.9-0.3,16.7,0.4c28,2.3,74.8,6.2,88.7-37.5c6.7-21.2,0.7-35-9.3-57.8c-5.3-12.1-11.9-27.1-18.1-47
								c-0.2-0.8,0-1.6,0.7-2.1c0.6-0.5,1.5-0.5,2.2-0.1c37.1,23.1,74.7,23.5,111.6,1.3c26-15.6,42.5-37.6,44.6-40.5l5.8-28
								c-7,5.6-22,16.2-41.4,22.2c-18.7,5.8-46.4,0.6-70.6-13.4c-25.6-14.8-43.3-36.8-48.6-60.4c-9.2-41-23.5-61.8-29.2-68.8
								c-0.1-0.1-0.1-0.2-0.2-0.2c-2.7-4.6-6.1-8.7-10.5-12.6c-32.8-28.9-90.5-19.4-115.2-15.3c-28.8,4.7-51.5,8.5-67.1,26
								c-4,4.5-6.9,9.3-9,14.6C251,1021.3,251,1021.5,250.9,1021.6z M600.8,1149.5L600.8,1149.5L600.8,1149.5z"/>
						</g>
						<g>
							<path class="st0" d="M441.7,1140.4c0,0,65.7-23.9,86.2-67.7l42.3-39.4c0,0-0.6,19-13.2,27c0,0,10.8,21.7-5.1,36.7
								c0,0-11.9,9.5-19,9.7c0,0-20.8,68.4-77,88.8C455.8,1195.4,440,1171.4,441.7,1140.4z"/>
							<path d="M455.8,1197.3c-0.6,0-1.3-0.3-1.6-0.9c-0.7-1-16.1-24.9-14.4-56.1c0-0.8,0.5-1.5,1.3-1.7
								c0.6-0.2,65.2-24.2,85.1-66.7c0.1-0.2,0.3-0.4,0.4-0.6l42.3-39.4c0.6-0.5,1.4-0.7,2.1-0.3c0.7,0.3,1.2,1,1.1,1.8
								c0,0.8-0.7,18.8-12.7,27.6c2.2,5.5,8,24-6.2,37.4c-0.6,0.5-11.3,8.9-18.9,10.1c-3.2,9.5-25.6,69.8-77.8,88.8
								C456.2,1197.3,456,1197.3,455.8,1197.3z M443.6,1141.8c-1,25.3,10,45.9,13.1,51.2c53.6-20.5,74.1-86.3,74.4-86.9
								c0.2-0.8,1-1.4,1.8-1.4c5.3-0.1,14.7-6.7,17.9-9.2c14.5-13.7,5-33.5,4.6-34.3c-0.4-0.9-0.1-2,0.7-2.5
								c7.7-4.9,10.6-14.4,11.6-20.3l-38.1,35.5C510,1114.9,452.9,1138.2,443.6,1141.8z"/>
						</g>
						<path d="M382.5,1217.1c-54.7,0-86.1-27.1-86.6-27.5c-0.8-0.7-0.9-1.9-0.2-2.7c0.7-0.8,1.9-0.9,2.7-0.2
							c0.6,0.5,56.5,48.6,149.5,14c1-0.4,2.1,0.1,2.5,1.1c0.4,1-0.1,2.1-1.1,2.5C424.3,1213.7,401.9,1217.1,382.5,1217.1z"/>
						<path d="M416.1,1143.1c-47.7,0-75.4-27.2-90.7-51.1c-17.9-28.2-22.6-58.1-22.7-58.4c-0.2-1.1,0.6-2.1,1.6-2.2
							c1.1-0.2,2.1,0.6,2.2,1.6c0,0.3,4.7,29.5,22.2,57c23.3,36.6,57.1,52.9,100.5,48.5c1.1-0.1,2,0.7,2.1,1.7
							c0.1,1.1-0.7,2-1.7,2.1C424.9,1142.8,420.4,1143.1,416.1,1143.1z"/>
						<path d="M453,1108.6c-0.1,0-0.2,0-0.3,0c-1.1-0.2-1.8-1.1-1.6-2.2c8.6-58.6-18.3-91.8-18.5-92.1c-0.7-0.8-0.6-2.1,0.3-2.7
							c0.8-0.7,2.1-0.6,2.7,0.3c1.2,1.4,28.2,34.7,19.4,95.2C454.8,1107.9,454,1108.6,453,1108.6z"/>
					</g>
					<g>
						<g>
							<path class="st0" d="M440.9,943.8c-1.8-12.2,1.1-44.6,0.6-43.8c-5.2,7.7-22.5-1.4-38-2c-15.5-0.6-10.3,22.7-10.3,22.7
								s-4.5-15.8-14.2-5.9c-5.6,5.7,0.6,13.2,6.3,18c-1.6,1.8-29.5,31.9-46.6,49.8l38,28.8l19-17.7l-3.9-6.2
								c-2.8-4.4-3-9.9-0.7-14.6l9.3-15.7c2.1,2.6,4.8,5.5,7.3,7.3c4.9,3.5,11.1,2.9,15.5-1.2c6-5.7,10.2-12.1,12.1-18.4
								L440.9,943.8z"/>
							<path d="M376.7,1013.3c-0.4,0-0.8-0.1-1.2-0.4l-38-28.8c-0.4-0.3-0.7-0.8-0.8-1.4c0-0.6,0.2-1.1,0.5-1.5
								c15.6-16.4,39.3-41.9,45.3-48.3c-3.7-3.4-7.5-7.9-7.7-12.6c-0.1-2.6,0.8-4.9,2.8-6.9c3.1-3.2,6.2-4.4,9.1-3.6
								c1.4,0.4,2.7,1.2,3.7,2.1c0.1-4.1,0.9-8.8,3.5-12c2.3-2.7,5.5-4,9.6-3.9c5.9,0.2,12,1.6,17.4,2.9c8.7,2,16.3,3.7,18.9,0
								c0.5-0.7,1.4-1,2.3-0.8c1.5,0.5,1.5,0.5,1.1,9.1c-0.5,9.8-1.6,28.1-0.3,36.3c0.2,1-0.6,2-1.6,2.2l-4.5,0.8
								c-2.2,6.2-6.4,12.5-12.2,18.1c-5,4.8-12.3,5.4-17.9,1.4c-1.7-1.2-3.7-3.1-5.9-5.5l-7.9,13.4c-2,3.9-1.8,8.7,0.6,12.5l3.9,6.2
								c0.5,0.8,0.4,1.8-0.3,2.5l-19,17.7C377.6,1013.1,377.2,1013.3,376.7,1013.3z M341.6,982.3l34.9,26.5l16.6-15.5l-3-4.8
								c-3.1-5-3.4-11.3-0.7-16.5l9.3-15.9c0.3-0.5,0.9-0.9,1.5-1c0.6-0.1,1.2,0.2,1.7,0.7c2.7,3.3,5,5.6,6.9,6.9
								c4.2,2.9,9.3,2.5,13-1.1c5.7-5.5,9.7-11.5,11.6-17.5c0.2-0.7,0.8-1.2,1.5-1.4l3.8-0.6c-0.9-9.2,0-26,0.5-35.2
								c0.1-1,0.1-2,0.2-2.9c-4.7,2-11.6,0.4-19.3-1.4c-5.5-1.3-11.2-2.6-16.7-2.8c-2.9-0.1-5,0.7-6.5,2.5
								c-3.8,4.5-2.6,14.4-1.8,17.8c0.2,1-0.4,2-1.4,2.3c-1,0.3-2.1-0.3-2.4-1.3c-0.5-1.8-2.6-6.9-5.6-7.7c-1.5-0.4-3.3,0.5-5.4,2.6
								c-1.2,1.2-1.7,2.5-1.6,4c0.2,3.1,2.9,7,7.9,11.2c0.4,0.3,0.6,0.8,0.7,1.3c0,0.5-0.1,1-0.5,1.4
								C385.4,935.7,359.2,963.9,341.6,982.3z"/>
						</g>
						<g>
							<path class="st0" d="M397.5,953l3,4.1L397.5,953z"/>
							<path d="M400.4,959.1c-0.6,0-1.2-0.3-1.6-0.8l-3-4.1c-0.6-0.9-0.4-2.1,0.4-2.7c0.9-0.6,2.1-0.4,2.7,0.4l3,4.1
								c0.6,0.9,0.4,2.1-0.4,2.7C401.2,958.9,400.8,959.1,400.4,959.1z"/>
						</g>
					</g>
					<g>
						<g>
							<path class="st0" d="M727.4,1568.3c-0.4,1.5,17.8,84.7,17.8,84.7l-41.8-7l-12.6-70.3L727.4,1568.3z"/>
							<path d="M745.2,1654.9c-0.1,0-0.2,0-0.3,0l-41.8-7c-0.8-0.1-1.4-0.8-1.6-1.6L689,1576c-0.2-1,0.5-2,1.5-2.2l36.6-7.4
								c0.7-0.1,1.3,0.1,1.8,0.6c0.4,0.4,0.6,0.9,0.5,1.4c0.3,3.5,10.8,52.1,17.8,84.2c0.1,0.6,0,1.3-0.5,1.8
								C746.3,1654.7,745.8,1654.9,745.2,1654.9z M705.1,1644.3l37.6,6.3c-12.4-56.9-15.9-74.4-16.9-80l-32.7,6.6L705.1,1644.3z"/>
						</g>
						<g>
							<g>
								<path class="st0" d="M723.1,1625.7c2.6-2.1,6.2-4.2,10.9-4.4c7-0.3,13.4,4.1,16.3,10.5c7.2,16.1,26.4,61,31.8,97.6
									c1.9,13-7.9,23.5-23.1,15c-25-13.9-59.6-45.9-77.7-93c-2.1-5.4-1.3-11.5,2.1-16.2c2.8-3.8,6.6-8.4,11-12.4
									c4.2-3.8,10.5-3.8,14.9-0.2l3.9,3.2C715.9,1628.2,720.1,1628.2,723.1,1625.7z"/>
								<path d="M769.1,1749.4c-3.1,0-6.8-0.8-11.2-3.3c-26.1-14.6-60.5-46.9-78.6-94c-2.3-6.1-1.5-12.9,2.3-18.1
									c3.7-5,7.5-9.3,11.2-12.7c4.9-4.4,12.2-4.5,17.4-0.3l3.9,3.2c2.2,1.8,5.4,1.8,7.6-0.1c3.6-3,7.8-4.7,12-4.9
									c7.5-0.3,14.9,4.4,18.1,11.7c7.8,17.3,26.5,61.6,31.9,98.1c1.1,7.5-1.4,14.3-6.5,17.8C775.7,1748.1,773,1749.4,769.1,1749.4
									z M701.7,1621.8c-2.2,0-4.5,0.8-6.2,2.4c-3.6,3.2-7.2,7.3-10.7,12.1c-3,4.1-3.7,9.5-1.8,14.4c17.7,46.2,51.3,77.8,76.9,92
									c6,3.4,11.5,3.7,15.4,1c3.9-2.7,5.7-8.1,4.8-14.1c-5.3-36.1-23.9-79.9-31.6-97.1c-2.6-5.9-8.4-9.6-14.4-9.4
									c-3.5,0.1-6.7,1.5-9.7,4c-3.6,3.1-8.9,3.1-12.6,0.1l-3.9-3.2C706,1622.6,703.8,1621.8,701.7,1621.8z"/>
							</g>
							<path d="M772.4,1734.8c-3.3,0-38.5-2.1-81.2-86.5c-0.5-1-0.1-2.1,0.9-2.6c1-0.5,2.1-0.1,2.6,0.9
								c42.8,84.6,77.5,84.4,77.8,84.4c1.1,0,2,0.8,2,1.9c0,1.1-0.8,2-1.9,2C772.6,1734.8,772.5,1734.8,772.4,1734.8z"/>
							<path d="M745.7,1688.3c-0.8,0-1.5-0.5-1.8-1.2c-0.4-1,0.1-2.1,1.1-2.5l19.8-7.8c1-0.4,2.1,0.1,2.5,1.1c0.4,1-0.1,2.1-1.1,2.5
								l-19.8,7.8C746.2,1688.3,745.9,1688.3,745.7,1688.3z"/>
							<path d="M738.8,1673.2c-0.8,0-1.5-0.5-1.8-1.2c-0.4-1,0.1-2.1,1.1-2.5l23.2-9c1-0.4,2.1,0.1,2.5,1.1c0.4,1-0.1,2.1-1.1,2.5
								l-23.2,9C739.2,1673.1,739,1673.2,738.8,1673.2z"/>
						</g>
						<g>
							<path class="st0" d="M547.6,1575.8c-1,1.2-19.5,84.4-19.5,84.4l-35-23.9l18.1-69.1L547.6,1575.8z"/>
							<path d="M528.2,1662.1c-0.4,0-0.8-0.1-1.1-0.3l-35-23.9c-0.7-0.5-1-1.3-0.8-2.1l18.1-69.1c0.3-1,1.3-1.6,2.3-1.4l36.3,8.6
								c0.6,0.2,1.2,0.6,1.4,1.3c0.2,0.5,0.1,1.1-0.1,1.5c-1.2,3.3-12.2,51.8-19.3,83.9c-0.1,0.6-0.6,1.2-1.2,1.4
								C528.7,1662.1,528.4,1662.1,528.2,1662.1z M495.4,1635.4l31.5,21.5c12.6-56.8,16.8-74.2,18.3-79.7l-32.5-7.7L495.4,1635.4z"
								/>
						</g>
						<g>
							<g>
								<path class="st0" d="M519.5,1626.1c3.2-0.9,7.4-1.2,11.7,0.5c6.5,2.7,10.4,9.3,10.4,16.4c-0.2,17.7-1.7,66.4-12.2,101.9
									c-3.7,12.6-17,18-27.3,3.9c-16.8-23.1-34.8-66.7-31.4-117.1c0.4-5.8,3.6-11,8.7-13.8c4.1-2.3,9.5-4.9,15.2-6.6
									c5.4-1.7,11.2,1,13.6,6l2.2,4.6C512,1625.4,515.8,1627.1,519.5,1626.1z"/>
								<path d="M515.5,1759.2c-3.9,0-9.6-1.6-15-9.1c-17.6-24.2-35.2-68-31.8-118.4c0.4-6.5,4.1-12.3,9.7-15.4
									c5.4-3,10.7-5.3,15.5-6.8c6.3-1.9,13,1,15.9,7.1l2.2,4.6c1.2,2.6,4.1,3.9,6.9,3.1c4.5-1.2,9-1,13,0.6
									c7,2.9,11.6,10.2,11.6,18.2c-0.2,19-1.8,67-12.3,102.5c-2.1,7.2-7.3,12.4-13.4,13.4C517.2,1759.1,516.4,1759.2,515.5,1759.2
									z M497.8,1612.7c-0.9,0-1.8,0.1-2.8,0.4c-4.6,1.4-9.6,3.6-14.8,6.5c-4.5,2.5-7.4,7.1-7.7,12.3
									c-3.3,49.3,13.9,92.2,31.1,115.8c4.1,5.6,8.9,8.2,13.5,7.4c4.6-0.8,8.6-4.9,10.3-10.7c10.3-35,11.9-82.6,12.1-101.4
									c0.1-6.4-3.6-12.3-9.2-14.6c-3.2-1.3-6.7-1.5-10.5-0.5c-4.6,1.2-9.4-0.9-11.4-5.2l-2.2-4.6
									C504.7,1614.8,501.4,1612.7,497.8,1612.7z"/>
							</g>
							<path d="M519.4,1746.1c-0.3,0-0.5,0-0.8-0.2c-1.4-0.6-34.2-15.5-37.5-112.7c0-1.1,0.8-2,1.9-2c1.1,0,2,0.8,2,1.9
								c3.3,94.8,34.9,109.1,35.2,109.3c1,0.4,1.5,1.6,1,2.5C520.9,1745.7,520.2,1746.1,519.4,1746.1z"/>
							<path d="M535.8,1693.9c0,0-0.1,0-0.1,0l-21.3-1.2c-1.1-0.1-1.9-1-1.8-2.1c0.1-1.1,1-1.9,2.1-1.8l21.3,1.2
								c1.1,0.1,1.9,1,1.8,2.1C537.7,1693.1,536.8,1693.9,535.8,1693.9z"/>
							<path d="M539.5,1677.5c0,0-0.1,0-0.1,0l-24.9-1.6c-1.1-0.1-1.9-1-1.8-2.1c0.1-1.1,1-1.9,2.1-1.8l24.9,1.6
								c1.1,0.1,1.9,1,1.8,2.1C541.4,1676.7,540.5,1677.5,539.5,1677.5z"/>
						</g>
						<path d="M352.2,1248.2c0,0,254.4-11,282.3,14.8c37.7,35,102.6,326.7,102.6,326.7l-62.6,17.5c0,0-94.3-239.4-117.7-239.4
							s-243.7-7.9-243.7-7.9L352.2,1248.2z"/>
						<path d="M335.4,1241.8c-20.1-1-38.1,12.4-42.8,32c-7.3,30.3-13.7,71.8,2.7,82.8c26.7,18,219.2,16.4,212.5,14.2
							c-6.7-2.2-17.2,161.3-17.2,224.2l60.6,2.3c0,0,96.6-252.9,86.2-281.2c-18.6-50.5-162-62.1-207.9-68.9
							C423.3,1246.4,371,1243.6,335.4,1241.8z"/>
						<path class="st0" d="M605.4,1455.3c-0.2,0-0.4,0-0.6-0.1c-1-0.3-1.6-1.4-1.3-2.4c2.2-6.8,4.3-13.5,6.5-20
							c17-52.4,31.6-97.7,25.5-116c-12.9-38.9-109.2-53.8-140.8-58.6c-1.1-0.2-1.8-1.2-1.6-2.2c0.2-1.1,1.2-1.8,2.2-1.6
							c55.9,8.7,131.7,24.4,143.9,61.3c6.5,19.5-7.7,63.1-25.5,118.4c-2.1,6.5-4.3,13.2-6.5,20
							C606.9,1454.8,606.2,1455.3,605.4,1455.3z"/>
					</g>
				</g>
			</g>
			<g>
				<g>
					<g>
						<polygon class="st0" points="1162.7,1376.7 1192.2,1679.1 1213.3,1678.2 1202.9,1360.3 						"/>
						<path d="M1192.2,1681.1c-1,0-1.8-0.8-1.9-1.8l-29.5-302.4c-0.1-0.9,0.4-1.7,1.2-2l40.1-16.4c0.6-0.2,1.3-0.2,1.8,0.2
							c0.5,0.3,0.9,0.9,0.9,1.6l10.5,318c0,1.1-0.8,2-1.9,2L1192.2,1681.1C1192.3,1681.1,1192.3,1681.1,1192.2,1681.1z
							 M1164.8,1377.9l29.2,299.2l17.3-0.7l-10.3-313.2L1164.8,1377.9z"/>
					</g>
					<g>
						<polygon class="st0" points="1558.9,1365.8 1530.1,1679.9 1508.3,1678.2 1518.8,1348.8 						"/>
						<path d="M1530.1,1681.8c0,0-0.1,0-0.1,0l-21.8-1.6c-1-0.1-1.8-1-1.8-2l10.5-329.4c0-0.6,0.4-1.2,0.9-1.6
							c0.5-0.3,1.2-0.4,1.8-0.2l40.1,17c0.8,0.3,1.3,1.1,1.2,2l-28.8,314.1C1531.9,1681.1,1531.1,1681.8,1530.1,1681.8z
							 M1510.3,1676.4l18,1.4l28.5-310.8l-36.2-15.3L1510.3,1676.4z"/>
					</g>
					<g>
						<polygon class="st0" points="1659.2,1291.9 1650.8,1621.7 1633.7,1618 1618.1,1276.2 						"/>
						<path d="M1650.8,1623.6c-0.1,0-0.3,0-0.4,0l-17-3.7c-0.9-0.2-1.5-0.9-1.5-1.8l-15.6-341.8c0-0.7,0.3-1.3,0.8-1.7
							c0.5-0.4,1.2-0.5,1.8-0.2l41.1,15.7c0.8,0.3,1.3,1,1.3,1.9l-8.5,329.8c0,0.6-0.3,1.1-0.7,1.5
							C1651.6,1623.5,1651.2,1623.6,1650.8,1623.6z M1635.6,1616.4l13.3,2.9l8.4-326.1l-37-14.1L1635.6,1616.4z"/>
					</g>
					<g>
						<polygon class="st0" points="1326.7,1284.5 1318.3,1614.3 1300.6,1614.4 1285.6,1268.8 						"/>
						<path d="M1300.6,1616.4c-1,0-1.9-0.8-1.9-1.9l-14.9-345.6c0-0.7,0.3-1.3,0.8-1.7c0.5-0.4,1.2-0.5,1.8-0.2l41.1,15.7
							c0.8,0.3,1.3,1,1.3,1.9l-8.5,329.8c0,1.1-0.9,1.9-1.9,1.9L1300.6,1616.4C1300.6,1616.4,1300.6,1616.4,1300.6,1616.4z
							 M1287.7,1271.7l14.7,340.8l13.9-0.1l8.4-326.5L1287.7,1271.7z"/>
					</g>
					<g>
						<path class="st0" d="M1412.2,1026.9v76.7c0,75.1-59.2,135.9-132.2,135.9c-73,0-132.2,60.8-132.2,135.9
							c0,6.7,5.4,12.1,12.1,12.1h350c109.5,0,198.2-91.2,198.2-203.7v-163.7c0-44.8-35.3-81-78.8-81h-131.5
							C1450.4,939.1,1412.2,978.4,1412.2,1026.9z"/>
						<path d="M1509.8,1389.5h-350c-7.7,0-14-6.3-14-14.1c0-76,60.2-137.8,134.2-137.8c71.8,0,130.3-60.1,130.3-133.9v-76.7
							c0-49.5,39.2-89.8,87.4-89.8h131.5c44.5,0,80.8,37.2,80.8,83v163.7C1710,1297.3,1620.2,1389.5,1509.8,1389.5z M1497.7,941
							c-46.1,0-83.5,38.5-83.5,85.9v76.7c0,76-60.2,137.8-134.2,137.8c-71.8,0-130.3,60.1-130.3,133.9c0,5.6,4.5,10.2,10.1,10.2h350
							c108.2,0,196.3-90.5,196.3-201.8v-163.7c0-43.6-34.5-79.1-76.9-79.1H1497.7z"/>
					</g>
				</g>
				<g>
					<g>
						<g>
							<path class="st0" d="M1387.2,1030.6c0,0-19.1,173.4-147.2,184.8l147.2,2.1c0,0,54.5-110.6,56.7-153.6
								C1446.1,1020.8,1387.2,1030.6,1387.2,1030.6z"/>
							<path d="M1387.2,1219.4C1387.2,1219.4,1387.2,1219.4,1387.2,1219.4l-147.2-2.1c-1,0-1.9-0.8-1.9-1.9c0-1,0.7-1.9,1.8-2
								c65.2-5.8,101.2-55.1,120-95.4c20.4-44,25.4-87.2,25.4-87.6c0.1-0.9,0.8-1.6,1.6-1.7c1.3-0.2,32.9-5.3,49.4,9.5
								c6.9,6.2,10.1,14.8,9.5,25.8c-2.2,43-54.7,149.8-56.9,154.4C1388.6,1218.9,1387.9,1219.4,1387.2,1219.4z M1261.5,1213.7
								l124.5,1.8c5.7-11.7,53.9-111.9,56-151.7c0.5-9.7-2.3-17.4-8.2-22.7c-13.3-11.8-38.5-9.5-44.8-8.7c-1.1,8.1-7,47.3-25.5,87.2
								C1339.7,1170.6,1304.7,1202.8,1261.5,1213.7z"/>
						</g>
						<path d="M1569.5,920.3c-24.9-5.8-35.2-5.9-125.5-2.7c-22.1,0.8-48.3,28.5-50.9,50.5c7,21.1,39.4,125.1-17.1,206.4
							c-8,11.5-18.9,24.2-33.9,36.3c8.4,6.8,21.5,15.7,39,20.9c29.1,8.7,43.8-0.7,67.3,0c62.1,1.9,84.9,71.1,125,62.4
							c10.7-2.3,24.9-10.7,38.2-38.8c7.5-23.3,14.3-50.6,18-81.5c10.1-83.7-6.4-153.4-21.3-197.2
							C1603.9,962.9,1598.8,927.2,1569.5,920.3z"/>
						<path d="M1370.4,1050c0,0,14.6-117.3,56.7-127.3l-9.7,154.3L1370.4,1050z"/>
						<g>
							<g>
								<path class="st0" d="M1584.3,1018.7c19.2,8.1,41.8,17.8,61.7,26.3c0,0.2,0,0.5,0,0.7l-61.7-26.6L1584.3,1018.7z"/>
								<path d="M1646,1047.7c-0.3,0-0.5-0.1-0.8-0.2l-61.7-26.6c-0.7-0.3-1.1-1-1.2-1.7l0-0.4c0-0.7,0.3-1.3,0.8-1.7
									c0.5-0.4,1.3-0.5,1.9-0.2c23.5,10,44.8,19,61.7,26.3c0.7,0.3,1.2,1,1.2,1.7l0,0.8c0,0.7-0.3,1.3-0.9,1.7
									C1646.8,1047.6,1646.4,1047.7,1646,1047.7z"/>
							</g>
						</g>
						<path d="M1656.8,1071.5c0,0-4.1-69.7-10.1-96.6c-12.6-56.6-85.9-57.2-85.9-57.2l12.8,144.1L1656.8,1071.5z"/>
						<g>
							<g>
								<path class="st0" d="M1497.6,908.1l-2.5-35.2c-1.7-0.1-2.8-0.2-3.2-0.2c-9.8-0.1-13-3.3-13.9-11.4c-0.5-5-0.7-12.5,1.7-21.9
									c0.3-1,0.2-2.1-0.2-3l-1.7-3.9c-0.3-1.3,0.1-2.7,1.1-3.5l0.9-0.7c3.2-2.6,5.9-5.9,8-9.4c2-3.3,5.3-9.5,7.6-10.6
									c6.5-3.1,32.6-16.8,47.3,7.2c11.4,18.7-7.2,44.4-14,52.8c-1.6,2,11.1,42,11.1,42l16.4,4c0,0-12.7,22.5-51.1,13.2
									c-27.4-6.6-23-16.8-23-16.8L1497.6,908.1z"/>
								<path d="M1522.9,931.4c-5.3,0-11.4-0.7-18.2-2.3c-13-3.1-21-7.6-23.8-13.1c-1.7-3.5-0.7-6.1-0.6-6.4
									c0.3-0.6,0.8-1.1,1.5-1.2l13.7-2l-2.2-31.7c-0.7,0-1.2-0.1-1.4-0.1c-10.5-0.1-14.8-3.7-15.8-13.1c-0.8-7.6-0.2-15,1.8-22.6
									c0.2-0.6,0.1-1.2-0.1-1.8l-1.7-3.9c0-0.1-0.1-0.2-0.1-0.3c-0.5-2,0.1-4.2,1.8-5.5l0.9-0.7c2.9-2.4,5.5-5.4,7.6-8.9l0.9-1.5
									c2.9-4.9,5.2-8.7,7.5-9.8l0.7-0.3c22.6-10.9,39.1-8.1,49.1,8.2c11.6,19-5.6,44.3-13.9,54.7c0,3.4,5.3,22.2,10.8,39.4
									l15.4,3.7c0.6,0.1,1.1,0.6,1.3,1.1c0.2,0.6,0.2,1.2-0.1,1.7C1557.6,915.8,1548.4,931.4,1522.9,931.4z M1483.8,912.1
									c0,0.6,0.2,1.4,0.7,2.3c1.3,2.5,5.8,7.2,21.1,10.9c29.4,7.1,43.1-5,47.4-10.1l-13.6-3.3c-0.7-0.2-1.2-0.7-1.4-1.3
									c-13-40.9-11.5-42.8-10.7-43.8c7.6-9.5,24.3-33.5,13.9-50.6c-13.2-21.7-36.4-10.4-44.1-6.8l-0.7,0.3
									c-1.4,0.7-4.4,5.8-5.9,8.3l-0.9,1.5c-2.3,3.9-5.2,7.3-8.4,10l-0.9,0.7c-0.4,0.3-0.6,0.9-0.5,1.4l1.6,3.8
									c0.6,1.3,0.7,2.8,0.3,4.3c-1.9,7.2-2.4,14.1-1.7,21.2c0.7,6.6,2.6,9.5,11.9,9.6c0.4,0,1.6,0.1,3.3,0.2
									c1,0.1,1.7,0.8,1.8,1.8l2.5,35.2c0.1,1-0.7,1.9-1.7,2.1L1483.8,912.1z"/>
							</g>
							<path d="M1534.8,784.8c-7.1-1.5-15.2-0.4-18.7-1.7c-5.6-2-5.7-8.7-13.4-10.6c-9.3-2.3-13.2,1.7-16.8,7.3
								c-0.6,0.9-1.1,2-1.6,3.1c-5.8,15.7,1.5,23.3,4.8,25.8c0,0,20.9,10.8,24.5,13.9c3.4,2.9,7.2,9.7,4.8,19.6
								c-0.3,1.3,0.2,2.6,1.3,3.2c1.3,0.8,2.9,0.4,3.7-0.9c2.7-3.9,8.7-11.6,12.9-9.8c5.3,2.3,3.7,18.2-8.1,20.1
								c-3.6,0.6-6.5,4.3-6.2,8c0.2,2.5,2.5,5.4,6,6.2c2.1,0.5,4.2-0.4,6-1.6c7.6-4.9,29.2-25.6,31.9-44.2
								C1569.3,801,1544.2,786.8,1534.8,784.8z"/>
							<path d="M1492.5,874.4c-1,0-1.9-0.8-1.9-1.9c0-1.1,0.8-2,1.9-2c0.1,0,7.6-0.4,12.7-4.7c0.8-0.7,2-0.6,2.7,0.2
								c0.7,0.8,0.6,2-0.2,2.7C1501.5,874.1,1492.9,874.4,1492.5,874.4C1492.6,874.4,1492.5,874.4,1492.5,874.4z"/>
						</g>
					</g>
					<g>
						<g>
							<path class="st0" d="M1324.7,1581.4c-3.6-3.6-24.3-68-24.3-68l-40.9,29.2l44.8,60.3L1324.7,1581.4z"/>
							<path d="M1304.4,1604.8c0,0-0.1,0-0.1,0c-0.6,0-1.1-0.3-1.4-0.8l-44.8-60.3c-0.3-0.4-0.4-0.9-0.4-1.5c0.1-0.5,0.4-1,0.8-1.3
								l40.9-29.2c0.5-0.4,1.2-0.5,1.7-0.3c0.6,0.2,1.1,0.7,1.2,1.3c7.8,24.4,21.2,64.3,23.8,67.3c0.6,0.8,0.7,2,0,2.7l-20.3,21.4
								C1305.5,1604.6,1305,1604.8,1304.4,1604.8z M1262.3,1543l42.3,56.8l17.7-18.7c-4.8-9.3-18.4-50.9-22.9-64.7L1262.3,1543z"/>
						</g>
						<g>
							<path d="M1251.1,1662.8l27.2-0.2c18-0.1,34.7-9.3,44.5-24.3l26.9-42.6c7.4-11.8,3.3-27.4-9-33.9c-11.2-6-23-11.8-25.7-11.5
								c-5.6,0.5-7.9,27-7.9,27l-24.2,0.9c0,0-12,49.8-22.5,55.5c-7.7,4.1-13,10.2-16.6,15.7
								C1240,1655.2,1244.2,1662.9,1251.1,1662.8z"/>
							<path class="st0" d="M1253.8,1654.2c-0.9,0-1.8-0.7-1.9-1.7c-0.2-1.1,0.6-2.1,1.6-2.2l37.2-5.6c7.8-1.2,14.6-5.7,18.6-12.5
								l32.9-55c0.6-0.9,1.7-1.2,2.7-0.7c0.9,0.6,1.2,1.7,0.7,2.7l-32.9,55c-4.6,7.8-12.4,13-21.4,14.4l-37.2,5.6
								C1254,1654.2,1253.9,1654.2,1253.8,1654.2z"/>
							<path class="st0" d="M1299.7,1612.8c-0.2,0-0.3,0-0.5-0.1l-20.7-5.6c-1-0.3-1.6-1.4-1.4-2.4c0.3-1,1.3-1.6,2.4-1.4l20.7,5.6
								c1,0.3,1.6,1.4,1.4,2.4C1301.4,1612.3,1300.6,1612.8,1299.7,1612.8z"/>
							<path class="st0" d="M1288.9,1623.5c-0.2,0-0.3,0-0.5-0.1l-13.9-3.4c-1-0.3-1.7-1.3-1.4-2.4c0.3-1,1.3-1.7,2.4-1.4l13.9,3.4
								c1,0.3,1.7,1.3,1.4,2.4C1290.6,1622.9,1289.8,1623.5,1288.9,1623.5z"/>
						</g>
						<g>
							<polygon class="st0" points="1185.3,1569.1 1137.8,1616.8 1112.7,1607.6 1156.4,1546.5 							"/>
							<path d="M1137.8,1618.8c-0.2,0-0.5,0-0.7-0.1l-25.2-9.3c-0.6-0.2-1-0.7-1.2-1.3c-0.2-0.6-0.1-1.2,0.3-1.7l43.7-61.1
								c0.3-0.4,0.8-0.7,1.3-0.8c0.5-0.1,1.1,0.1,1.5,0.4l28.9,22.6c0.4,0.3,0.7,0.9,0.7,1.4c0,0.6-0.2,1.1-0.6,1.5l-47.5,47.7
								C1138.8,1618.6,1138.3,1618.8,1137.8,1618.8z M1115.7,1606.6l21.6,7.9l45-45.3l-25.5-20L1115.7,1606.6z"/>
						</g>
						<g>
							<path class="st0" d="M1436.5,1216.7c0,0-216.9-26.6-281.4,32.2c-64.5,58.9,101.8,312,101.8,312l52.6-41.1l-49.9-178.9
								l200.5-60L1436.5,1216.7z"/>
							<path d="M1256.9,1562.8c-0.1,0-0.2,0-0.3,0c-0.5-0.1-1-0.4-1.3-0.9c-6.8-10.4-166.5-255.2-101.5-314.5
								c64.4-58.8,274-33.8,282.9-32.7c0.7,0.1,1.3,0.6,1.6,1.3l23.6,64.2c0.2,0.5,0.2,1.1-0.1,1.5c-0.2,0.5-0.7,0.8-1.2,1
								l-198.7,59.5l49.4,177.1c0.2,0.8-0.1,1.6-0.7,2.1l-52.6,41.1C1257.8,1562.7,1257.3,1562.8,1256.9,1562.8z M1329.5,1212.7
								c-64.2,0-139.8,7.2-173.1,37.6c-59.8,54.5,86.4,285,101,307.7l49.9-39l-49.5-177.6c-0.3-1,0.3-2.1,1.3-2.4l198.5-59.4
								l-22.5-61.1C1427.3,1217.6,1382.2,1212.7,1329.5,1212.7z"/>
						</g>
						<g>
							<path class="st0" d="M1555.8,1333.2c-31.5,10.5-87.9,24.2-166.7,23c-22.4-0.3-43.1,12.7-53.2,33.7
								c-23.3,48.3-73.8,135.1-156.1,191.4l-39.3-22.3l100.3-238c9.2-21.7,26.3-38.6,47.5-46.8l198.8-76.8c0,0,61.6-18.2,91.9,39.8
								c5.4,10.4,15.4-8.2,17.8,0.2C1604.9,1266.1,1582.9,1324.1,1555.8,1333.2z"/>
							<path d="M1179.8,1583.3c-0.3,0-0.7-0.1-1-0.3l-39.3-22.3c-0.9-0.5-1.2-1.5-0.8-2.4l100.3-238c9.3-22.1,27-39.5,48.6-47.9
								l198.8-76.8c0.8-0.2,63.7-18,94.3,40.8c0.6,1.2,1.3,1.9,2.1,2.1c1.6,0.4,3.9-1.2,6-2.6c2.5-1.7,4.8-3.2,7.1-2.4
								c1.3,0.5,2.2,1.6,2.7,3.4c8.3,29.1-13.9,88.7-42.1,98.1l-0.6-1.8l0.6,1.8c-33.4,11.2-89.5,24.3-167.3,23.1
								c-0.3,0-0.5,0-0.8,0c-21.5,0-40.9,12.5-50.6,32.7c-22.9,47.4-73.8,135.4-156.8,192.2
								C1180.6,1583.2,1180.2,1583.3,1179.8,1583.3z M1143,1558.2l36.7,20.9c81.7-56.3,131.8-143.1,154.5-190
								c10.4-21.5,32-35.2,55-34.8c77.2,1.1,132.9-11.9,166-22.9c26.1-8.7,47.4-66.2,39.6-93.4c-0.2-0.7-0.4-0.9-0.4-0.9
								c-0.5-0.1-2.4,1.3-3.6,2c-2.8,1.9-5.9,4-9.1,3.1c-1.9-0.5-3.4-1.9-4.6-4.1c-29.1-55.9-87.1-39.6-89.6-38.9L1289,1276
								c-20.6,8-37.5,24.6-46.4,45.8L1143,1558.2z"/>
						</g>
						<g>
							<path d="M1152.8,1609.4c0,0,2.3,20.3-1.6,38.3c-2.1,9.6-10.7,16.3-20.5,16.3h-116.5c-8.3,0-12.1-10.4-5.7-15.8
								c20.7-17.4,58.8-43.9,105.6-51.7l13.1,18.3L1152.8,1609.4z"/>
							<path class="st0" d="M1140.5,1649.8h-120.7c-1.1,0-1.9-0.9-1.9-1.9c0-1.1,0.9-1.9,1.9-1.9h120.7c1.1,0,1.9,0.9,1.9,1.9
								C1142.5,1648.9,1141.6,1649.8,1140.5,1649.8z"/>
							<path class="st0" d="M1087.2,1628.4c-0.8,0-1.5-0.5-1.8-1.2l-6.4-15.5c-0.4-1,0.1-2.1,1.1-2.5c1-0.4,2.1,0.1,2.5,1.1
								l6.4,15.5c0.4,1-0.1,2.1-1.1,2.5C1087.7,1628.3,1087.4,1628.4,1087.2,1628.4z"/>
							<path class="st0" d="M1066.2,1632.4c-0.8,0-1.6-0.5-1.8-1.3l-4.6-14c-0.3-1,0.2-2.1,1.2-2.5c1-0.3,2.1,0.2,2.5,1.2l4.6,14
								c0.3,1-0.2,2.1-1.2,2.5C1066.6,1632.4,1066.4,1632.4,1066.2,1632.4z"/>
						</g>
					</g>
				</g>
			</g>
			<g>
				<g>
					<path class="st0" d="M1595.1,1058c-21.1,77-84,126.2-175.1,152.1l13.9,26c126.6-4.5,193-59.5,219.5-165.1L1595.1,1058z"/>
					<path d="M1434,1238c-0.7,0-1.4-0.4-1.7-1l-13.9-26c-0.3-0.5-0.3-1.1-0.1-1.7c0.2-0.5,0.7-1,1.3-1.1
						c95.3-27.1,153.7-77.8,173.7-150.7c0.3-1,1.3-1.6,2.3-1.4l58.4,13c0.5,0.1,1,0.4,1.2,0.9c0.3,0.4,0.4,1,0.2,1.5
						C1627.9,1180.7,1557.6,1233.6,1434,1238C1434,1238,1434,1238,1434,1238z M1422.9,1211.3l12.2,22.8
						c120.1-4.5,188.8-55.9,216-161.6l-54.6-12.1C1575.8,1133.1,1517.4,1183.9,1422.9,1211.3z"/>
				</g>
				<g>
					<path class="st0" d="M1441.7,1207.9c-1.3-2.5-3.5-4.5-6.1-5.5c-1.9-0.7-3.8-1.6-5.6-2.5l-24.8-13.2c-4.6-2.3-11.3,3-16.1,4.6
						c-14.5,4.8-44.7,16-42.2,26.6c2.7,11.4,28.6,6,37.8,3.7c2.1-0.5,21.1,6.4,27.1,6.8c8.3,0.6,10.2-1.5,14.3-3.6
						c1.9-1,3.9-1.4,6.2-1.4c3.4,0,6.7-1.5,8.8-4.1l0.1-0.1c2.4-2.9,2.8-7,1.1-10.4L1441.7,1207.9z"/>
					<path d="M1414.5,1230.6c-0.9,0-1.8,0-2.9-0.1c-3.3-0.3-9.8-2.2-16.1-4c-4.2-1.3-9.5-2.9-10.6-2.8c-9.6,2.4-27.2,5.8-35.5,0.7
						c-2.3-1.4-3.8-3.4-4.4-5.9c-2.6-11.2,22.2-21.9,43.5-28.9c1.3-0.4,2.8-1.2,4.4-2c4.2-2.1,9-4.5,13.1-2.5l24.8,13.2
						c2.1,1.1,3.8,1.9,5.3,2.4c3.1,1.1,5.6,3.4,7.2,6.4l0.5,1c2.1,4,1.6,8.9-1.3,12.5c-2.5,3.1-6.3,4.9-10.4,4.9
						c-2,0-3.7,0.4-5.3,1.2c-0.6,0.3-1.2,0.7-1.7,1C1422.6,1229.1,1420,1230.6,1414.5,1230.6z M1385,1219.7c1.5,0,4.4,0.8,11.7,3
						c5.8,1.7,12.3,3.7,15.3,3.9c6.4,0.5,8.5-0.7,11.4-2.4c0.6-0.3,1.2-0.7,1.9-1c2.1-1.1,4.4-1.6,7-1.6c2.9,0,5.6-1.3,7.3-3.4
						c1.9-2.4,2.3-5.7,0.9-8.3l-0.5-1c-1.1-2.1-2.9-3.8-5-4.5c-1.7-0.6-3.6-1.5-5.8-2.7l-24.8-13.2c-2.3-1.1-6.2,0.8-9.6,2.5
						c-1.7,0.9-3.4,1.7-5,2.2c-26.7,8.8-42.4,18.1-40.9,24.3c0.3,1.5,1.2,2.6,2.6,3.5c5.1,3.1,17.4,2.7,32.8-1.2
						C1384.4,1219.8,1384.7,1219.7,1385,1219.7z"/>
				</g>
			</g>
			<g>
				<path class="st0" d="M515.7,1242.7h974c18.1,0,32.3,11.9,30.2,25.6l-67.3,446.2h-48.6l42.1-418.8c0.7-7.4-7-13.7-16.8-13.7
					H593.3c-14.7,0-26.2,9.4-25.1,20.5l41.7,414.6h-48.6L492.9,1262C491.4,1251.7,502,1242.7,515.7,1242.7z"/>
				<path d="M609.9,1719.1h-48.6c-1,0-1.8-0.7-1.9-1.7L491,1262.3c-0.7-4.6,0.7-9.2,4-12.9c4.6-5.4,12.4-8.6,20.7-8.6h974
					c10.9,0,21,4.2,27,11.1c4.2,4.9,6,10.8,5.1,16.7l-67.3,446.2c-0.1,1-1,1.7-1.9,1.7h-48.6c-0.5,0-1.1-0.2-1.4-0.6
					c-0.4-0.4-0.5-1-0.5-1.5l42.1-418.8c0.3-3-1.1-5.2-2.4-6.6c-2.8-3.1-7.4-4.9-12.5-4.9H593.3c-7.8,0-15,2.9-19.4,7.7
					c-2.9,3.2-4.2,6.9-3.8,10.7l41.7,414.6c0.1,0.5-0.1,1.1-0.5,1.5C611,1718.8,610.5,1719.1,609.9,1719.1z M563,1715.2h44.7
					l-41.5-412.5c-0.5-4.8,1.2-9.7,4.8-13.7c5.1-5.6,13.4-8.9,22.2-8.9h836.1c6.1,0,11.8,2.3,15.3,6.2c2.5,2.8,3.7,6.2,3.4,9.6
					l-41.9,416.7h44.7l67-444.6c0.7-4.8-0.7-9.5-4.2-13.5c-5.3-6.1-14.3-9.8-24-9.8h-974c-7.2,0-13.9,2.7-17.8,7.2
					c-2.5,3-3.6,6.4-3.1,9.8L563,1715.2z"/>
			</g>
			<g>
				<g>
					<g>
						<path class="st0" d="M1324.2,1228.4l-52.3-154.3c-3.1-4.8-8.6-7.8-14.5-7.8h-139.5c-6.3,0-10.4,6.2-8.3,11.6
							c0.8,2.2,1.7,4.3,2.4,6.5l47.3,144.2h0c0.2,8.4,7,15.2,15.5,15.2h257.5c8.6,0,15.5-6.9,15.5-15.5H1324.2z"/>
						<path d="M1432.2,1245.9h-257.5c-9.3,0-17-7.5-17.4-16.8l-47.2-144c-0.5-1.5-1.1-3.1-1.7-4.6l-0.7-1.8
							c-1.2-3.2-0.8-6.7,1.2-9.6c2-3,5.3-4.6,9-4.6h139.5c6.6,0,12.6,3.2,16.1,8.7c0.1,0.1,0.2,0.3,0.2,0.4l51.9,152.9h122.1
							c1.1,0,1.9,0.9,1.9,1.9C1449.6,1238.1,1441.8,1245.9,1432.2,1245.9z M1161,1227.9c0.1,0.2,0.2,0.5,0.2,0.8
							c0.1,7.3,6.2,13.3,13.5,13.3h257.5c6.8,0,12.5-5.1,13.4-11.6h-121.4c-0.8,0-1.6-0.5-1.8-1.3l-52.3-154
							c-2.8-4.2-7.6-6.7-12.7-6.7h-139.5c-2.4,0-4.5,1.1-5.8,3c-1.2,1.8-1.5,4-0.8,6l0.7,1.8c0.6,1.5,1.2,3.1,1.8,4.8L1161,1227.9z"
							/>
					</g>
					<path d="M1220.5,1145.5c2,6.5-1,13.2-6.7,14.9c-5.7,1.7-11.9-2.2-13.8-8.7c-2-6.5,1-13.2,6.7-14.9
						C1212.3,1135,1218.5,1138.9,1220.5,1145.5z"/>
				</g>
			</g>
			<g>
				<g>
					<g>
						<path class="st0" d="M754.5,1246.2H497.7c-7.2,0-13.1-5.8-13.1-13.1v-2.1h282.9v2.1C767.6,1240.3,761.7,1246.2,754.5,1246.2z"
							/>
						<path d="M754.8,1248.1H497.4c-8.1,0-14.7-6.6-14.7-14.7v-2.5c0-1.1,0.9-1.9,1.9-1.9h282.9c1.1,0,1.9,0.9,1.9,1.9v2.5
							C769.5,1241.5,762.9,1248.1,754.8,1248.1z M486.6,1232.9v0.5c0,5.9,4.8,10.8,10.8,10.8h257.5c5.9,0,10.8-4.8,10.8-10.8v-0.5
							H486.6z"/>
					</g>
					<g>
						<g>
							<path class="st0" d="M767.6,1231.2H605.7l51.4-151.4c3.1-4.7,8.4-7.6,14.2-7.6h136.9c6.2,0,10.2,6,8.2,11.3
								c-0.8,2.1-1.7,4.2-2.4,6.4L767.6,1231.2z"/>
							<path d="M767.6,1233.2H605.7c-0.6,0-1.2-0.3-1.6-0.8c-0.4-0.5-0.5-1.2-0.3-1.8l51.4-151.4c0.1-0.2,0.1-0.3,0.2-0.4
								c3.5-5.3,9.4-8.5,15.8-8.5h136.9c3.6,0,6.8,1.7,8.8,4.6c1.9,2.8,2.4,6.3,1.2,9.4l-0.7,1.8c-0.6,1.5-1.2,3-1.6,4.5
								l-46.4,141.3C769.2,1232.6,768.4,1233.2,767.6,1233.2z M608.4,1229.3h157.8l46-140c0.5-1.6,1.1-3.2,1.7-4.7l0.7-1.8
								c0.7-1.9,0.4-4.1-0.7-5.8c-1.3-1.8-3.3-2.9-5.6-2.9H671.3c-5.1,0-9.7,2.4-12.4,6.5L608.4,1229.3z"/>
						</g>
						<path d="M707.5,1149.7c-1.9,6.4,1,13,6.6,14.6c5.6,1.7,11.6-2.1,13.6-8.5c1.9-6.4-1-13-6.6-14.6
							C715.5,1139.5,709.4,1143.3,707.5,1149.7z"/>
					</g>
				</g>
			</g>
			<g>
				<g>
					<path class="st0" d="M1656.9,1724.3h-265.1c-15.9,0-27.8-14.6-24.6-30.2l40.2-195.5c3.4-16.4,17.9-28.2,34.6-28.2h227.4
						L1656.9,1724.3z"/>
					<path d="M1656.9,1726.3h-265.1c-8.2,0-15.8-3.6-21-10c-5.2-6.3-7.2-14.6-5.5-22.6l40.2-195.5c3.6-17.3,18.9-29.8,36.5-29.8
						h227.4c0.5,0,1,0.2,1.4,0.6c0.4,0.4,0.6,0.9,0.5,1.4l-12.5,253.9C1658.8,1725.5,1657.9,1726.3,1656.9,1726.3z M1442,1472.3
						c-15.8,0-29.6,11.2-32.7,26.7l-40.2,195.5c-1.4,6.9,0.3,13.9,4.7,19.3s11,8.5,18,8.5H1655l12.3-250.1H1442z"/>
				</g>
				<g>
					<path class="st0" d="M1690.8,1724.3h-51.4c-15.9,0-27.8-14.6-24.6-30.2l44.3-215.3c1-4.9,5.3-8.4,10.3-8.4h13.2
						c5.5,0,10.1,4.2,10.5,9.7l18.1,222.1C1712.2,1714.1,1702.8,1724.3,1690.8,1724.3z"/>
					<path d="M1690.8,1726.3h-51.4c-8.2,0-15.8-3.6-21-10c-5.2-6.3-7.2-14.6-5.5-22.6l44.3-215.3c1.2-5.8,6.3-10,12.2-10h13.2
						c6.4,0,11.9,5,12.4,11.5l18.1,222.1c0.5,6.2-1.6,12.4-5.9,17C1703.1,1723.7,1697.1,1726.3,1690.8,1726.3z M1669.4,1472.3
						c-4.1,0-7.6,2.9-8.4,6.9l-44.3,215.3c-1.4,6.9,0.3,13.9,4.7,19.3c4.4,5.4,11,8.5,18,8.5h51.4c5.2,0,10.1-2.1,13.6-6
						c3.5-3.8,5.3-8.8,4.8-14.1l-18.1-222.1c-0.4-4.4-4.1-7.9-8.6-7.9H1669.4z"/>
				</g>
				<path d="M1620.8,1575h-207.6c-1.1,0-1.9-0.9-1.9-1.9c0-1.1,0.9-1.9,1.9-1.9h207.6c5.3,0,9.8-3.6,11-8.7l18.3-77.2
					c0.2-1,1.3-1.7,2.3-1.4c1,0.2,1.7,1.3,1.4,2.3l-18.3,77.2C1633.9,1570.2,1627.9,1575,1620.8,1575z"/>
				<g>
					<path class="st0" d="M1540.7,1573l-5.8,23.5c-0.9,4-4.5,6.8-8.6,6.8h-41.1c-4.5,0-7.7-4.3-6.5-8.6l6-21.6H1540.7z"/>
					<path d="M1526.3,1605.2h-41.1c-2.7,0-5.3-1.3-6.9-3.4c-1.7-2.2-2.2-5-1.5-7.6l6-21.6c0.2-0.8,1-1.4,1.9-1.4h56
						c0.6,0,1.2,0.3,1.5,0.7c0.4,0.5,0.5,1.1,0.4,1.7l-5.8,23.5C1535.6,1601.8,1531.3,1605.2,1526.3,1605.2z M1486.2,1575l-5.6,20.2
						c-0.4,1.5-0.1,3,0.8,4.2c0.9,1.2,2.3,1.9,3.8,1.9h41.1c3.2,0,5.9-2.2,6.7-5.3l5.2-21.1H1486.2z"/>
				</g>
				<path d="M1601.8,1706.6h-220.5c-1.1,0-1.9-0.9-1.9-1.9c0-1.1,0.9-1.9,1.9-1.9h220.5c1.1,0,1.9,0.9,1.9,1.9
					C1603.8,1705.8,1602.9,1706.6,1601.8,1706.6z"/>
				<g>
					<g>
						<path d="M1494.4,1461.5h-17.2c-4.7,0-8.4,3.8-8.4,8.4h34.1C1502.8,1465.3,1499.1,1461.5,1494.4,1461.5z"/>
						<path d="M1502.8,1471.9h-34.1c-1.1,0-1.9-0.9-1.9-1.9c0-5.7,4.7-10.4,10.4-10.4h17.2c5.7,0,10.4,4.6,10.4,10.4
							C1504.8,1471,1503.9,1471.9,1502.8,1471.9z M1471,1468h29.6c-0.8-2.6-3.3-4.5-6.2-4.5h-17.2
							C1474.3,1463.5,1471.9,1465.4,1471,1468z"/>
					</g>
					<g>
						<path d="M1632.4,1461.5h-17.2c-4.7,0-8.4,3.8-8.4,8.4h34.1C1640.8,1465.3,1637,1461.5,1632.4,1461.5z"/>
						<path d="M1640.8,1471.9h-34.1c-1.1,0-1.9-0.9-1.9-1.9c0-5.7,4.6-10.4,10.4-10.4h17.2c5.7,0,10.4,4.6,10.4,10.4
							C1642.7,1471,1641.9,1471.9,1640.8,1471.9z M1609,1468h29.6c-0.8-2.6-3.3-4.5-6.2-4.5h-17.2
							C1612.3,1463.5,1609.8,1465.4,1609,1468z"/>
					</g>
					<g>
						<path class="st0" d="M1627.9,1461.1l2.8-16.5c2-11.7-5.9-21.2-17.6-21.2h-103.2c-11.7,0-22.8,9.5-24.7,21.2l-2.8,16.5h7.9
							l2.2-12.8c1.5-9.1,10.1-16.5,19.2-16.5h96.8c9.1,0,15.2,7.4,13.7,16.5l-2.2,12.8H1627.9z"/>
						<path d="M1627.9,1463h-7.9c-0.6,0-1.1-0.3-1.5-0.7c-0.4-0.4-0.5-1-0.4-1.6l2.2-12.8c0.7-3.9-0.2-7.5-2.5-10.1
							c-2.2-2.6-5.5-4.1-9.3-4.1h-96.8c-8.2,0-15.9,6.7-17.3,14.8l-2.2,12.8c-0.2,0.9-1,1.6-1.9,1.6h-7.9c-0.6,0-1.1-0.3-1.5-0.7
							c-0.4-0.4-0.5-1-0.4-1.6l2.8-16.5c2.1-12.6,14.1-22.8,26.6-22.8h103.2c6.2,0,11.6,2.4,15.3,6.8c3.8,4.5,5.3,10.4,4.2,16.6
							l-2.8,16.5C1629.6,1462.3,1628.8,1463,1627.9,1463z M1622.3,1459.1h4l2.5-14.9c0.9-5.1-0.3-9.9-3.3-13.5
							c-2.9-3.5-7.3-5.4-12.3-5.4h-103.2c-10.8,0-21,8.8-22.8,19.5l-2.4,14.2h4l1.9-11.2c1.7-10,11.2-18.1,21.2-18.1h96.8
							c4.9,0,9.3,1.9,12.2,5.4c3,3.6,4.2,8.3,3.4,13.3L1622.3,1459.1z"/>
					</g>
					<g>
						<path d="M1607.9,1416.6h-90.7c-3.7,0-7.1,3-7.7,6.6l-1.3,7.9c-0.6,3.7,1.8,6.6,5.5,6.6h90.7c3.7,0,7.1-3,7.7-6.6l1.3-7.9
							C1614,1419.6,1611.6,1416.6,1607.9,1416.6z"/>
						<path d="M1604.4,1439.7h-90.7c-2.3,0-4.4-0.9-5.8-2.6c-1.4-1.7-2-3.9-1.6-6.3l1.3-7.9c0.8-4.6,5-8.2,9.6-8.2h90.7
							c2.3,0,4.4,0.9,5.8,2.6c1.4,1.7,2,3.9,1.6,6.3l-1.3,7.9C1613.2,1436.1,1609,1439.7,1604.4,1439.7z M1517.3,1418.6
							c-2.7,0-5.4,2.3-5.8,5l-1.3,7.9c-0.2,1.2,0.1,2.3,0.7,3.1c0.7,0.8,1.7,1.2,2.8,1.2h90.7c2.7,0,5.4-2.3,5.8-5l1.3-7.9
							c0.2-1.2-0.1-2.3-0.7-3.1c-0.7-0.8-1.7-1.2-2.8-1.2H1517.3z"/>
					</g>
				</g>
				<path d="M1638.9,1706.6c-0.7,0-1.3-0.4-1.7-1c-0.5-0.9-0.2-2.1,0.7-2.7l34.6-19.7v-197.7c0-1.1,0.9-1.9,1.9-1.9
					c1.1,0,1.9,0.9,1.9,1.9v198.9c0,0.7-0.4,1.3-1,1.7l-35.5,20.2C1639.6,1706.6,1639.2,1706.6,1638.9,1706.6z"/>
			</g>
		</g>
	</g>
</g>
</svg>
